<?xml version="1.0" standalone="no"?>
<!DOCTYPE svg PUBLIC "-//W3C//DTD SVG 1.1//EN" "http://www.w3.org/Graphics/SVG/1.1/DTD/svg11.dtd" >
<svg>
<metadata>
Created by FontForge 20090914 at Mon Jun 21 12:01:18 2021
 By www-data
Copyright (c) 2012 by Hagilda. All rights reserved.
</metadata>
<defs>
<font id="Alef-Bold" horiz-adv-x="0" >
  <font-face 
    font-family="Alef"
    font-weight="700"
    font-stretch="normal"
    units-per-em="2048"
    panose-1="0 0 8 0 0 0 0 0 0 0"
    ascent="1638"
    descent="-410"
    x-height="1040"
    cap-height="1438"
    bbox="-68.999 -682.001 1913 2067"
    underline-thickness="150"
    underline-position="-67"
    unicode-range="U+000D-U+FB4B"
  />
<missing-glyph horiz-adv-x="748" 
d="M68 0v1365h544v-1365h-544zM136 68h408v1229h-408v-1229z" />
    <glyph glyph-name="uniFB01" unicode="fi" horiz-adv-x="1634" 
d="M1316 1547c22.667 0 44.167 -4.33301 64.5 -13s38 -20.5 53 -35.5s26.833 -32.667 35.5 -53s13 -41.833 13 -64.5c0 -23.333 -4.33301 -45 -13 -65s-20.5 -37.667 -35.5 -53s-32.667 -27.333 -53 -36s-41.833 -13 -64.5 -13c-23.333 0 -45 4.33301 -65 13
s-37.667 20.667 -53 36s-27.333 33 -36 53s-13 41.667 -13 65c0 22.667 4.33301 44.167 13 64.5s20.667 38 36 53s33 26.833 53 35.5s41.667 13 65 13zM277 1078c0 70 5.83398 130.332 17.501 180.999s31.334 92.167 59.001 124.5s64.667 56.333 111 72
s104.166 23.5 173.499 23.5c54 0 112.667 -4.33301 176 -13s130.666 -20.334 201.999 -35.001l-43 -190c-60 11.333 -111.833 20.5 -155.5 27.5s-82.167 10.5 -115.5 10.5c-32.667 0 -59 -2.83301 -79 -8.5s-35.333 -16.167 -46 -31.5s-17.667 -36.666 -21 -63.999
s-5 -62.666 -5 -105.999v-29h902v-1040h-275v840h-627v-640h334v-200h-782v200h174v640h-174v200h174v38z" />
    <glyph glyph-name="uniFB02" unicode="fl" horiz-adv-x="1613" 
d="M277 1078c0 70 5.83398 130.332 17.501 180.999s31.334 92.167 59.001 124.5s64.667 56.333 111 72s104.166 23.5 173.499 23.5c54 0 112.667 -4.33301 176 -13s130.666 -20.334 201.999 -35.001l-43 -190c-60 11.333 -111.833 20.5 -155.5 27.5
s-82.167 10.5 -115.5 10.5c-32.667 0 -59 -2.83301 -79 -8.5s-35.333 -16.167 -46 -31.5s-17.667 -36.666 -21 -63.999s-5 -62.666 -5 -105.999v-29h334v-200h-334v-640h625v1240h275v-1440h-1348v200h174v640h-174v200h174v38z" />
    <glyph glyph-name=".notdef" horiz-adv-x="748" 
d="M68 0v1365h544v-1365h-544zM136 68h408v1229h-408v-1229z" />
    <glyph glyph-name="glyph1" horiz-adv-x="2048" 
 />
    <glyph glyph-name="glyph1" horiz-adv-x="2048" 
 />
    <glyph glyph-name="uni000D" unicode="&#xd;" horiz-adv-x="2048" 
 />
    <glyph glyph-name="space" unicode=" " horiz-adv-x="570" 
 />
    <glyph glyph-name="exclam" unicode="!" horiz-adv-x="711" 
d="M150 1351c24 36 54.167 63.167 90.5 81.5s73.166 27.5 110.499 27.5c23.333 0 45.833 -3.83301 67.5 -11.5s40.834 -19.334 57.501 -35.001s30 -35.167 40 -58.5s15 -50.666 15 -81.999l-41 -851l-219 -34l-40 796zM371 262c21.333 0 40.668 -3.66602 58.001 -10.999
s32.166 -17.5 44.499 -30.5s21.833 -28 28.5 -45s10 -35.167 10 -54.5s-3.66699 -37.5 -11 -54.5s-17.5 -32 -30.5 -45s-28 -23.167 -45 -30.5s-35.167 -11 -54.5 -11s-37.5 3.66699 -54.5 11s-32 17.5 -45 30.5s-23.167 28 -30.5 45s-11 35.167 -11 54.5
c0 20.667 3.83301 39.667 11.5 57s18 32.166 31 44.499s28 22 45 29s34.833 10.5 53.5 10.5z" />
    <glyph glyph-name="quotedbl" unicode="&#x22;" horiz-adv-x="941" 
d="M553 1402c26.667 19.333 55.501 34.167 86.501 44.5s61.167 15.5 90.5 15.5c20 0 39.167 -2.83301 57.5 -8.5s34.5 -14.334 48.5 -26.001s25.167 -26.167 33.5 -43.5s12.5 -37.666 12.5 -60.999c0 -28 -4 -54.5 -12 -79.5s-20.333 -52.333 -37 -82
s-37.334 -63.167 -62.001 -100.5l-87 -134h-172l105 289zM111.001 1400c26.667 19.333 55.501 34.333 86.501 45s61.167 16 90.5 16c20 0 39.167 -2.83301 57.5 -8.5s34.5 -14.334 48.5 -26.001s25.167 -26.167 33.5 -43.5s12.5 -37.666 12.5 -60.999
c0 -28 -4 -54.5 -12 -79.5s-20.333 -52.333 -37 -82s-37.334 -63.167 -62.001 -100.5l-87 -134h-172l105 289z" />
    <glyph glyph-name="numbersign" unicode="#" horiz-adv-x="1291" 
d="M1037 956l-78 -213h236l-46 -125h-232l-70 -186h235l-44 -127h-237l-78 -211h-130l70 211h-198l-80 -211h-138l80 211h-231l44 127h231l71 186h-241l49 125h238l78 213h129l-78 -213h211l78 213h131zM782 618h-209l-64 -186h202z" />
    <glyph glyph-name="dollar" unicode="$" horiz-adv-x="1273" 
d="M734 1571l0.00585938 -114c52 -5.33301 108.5 -14.333 169.5 -27s120.167 -31.334 177.5 -56.001l-71 -174c-42.667 15.333 -86.834 28.5 -132.501 39.5s-93.167 18.5 -142.5 22.5v-400l79.5 -21c30.333 -8 61.666 -18.833 93.999 -32.5s64.166 -31 95.499 -52
s59.333 -47.5 84 -79.5s44.667 -70.333 60 -115s23 -97.334 23 -158.001c0 -50 -6.33301 -94.667 -19 -134s-29.667 -73.666 -51 -102.999s-46.333 -54.5 -75 -75.5s-59.167 -38.667 -91.5 -53s-65.666 -25.666 -99.999 -33.999s-67.833 -14.5 -100.5 -18.5v-117h-205v109
c-30 2 -62.667 5 -98 9s-71.5 9.83301 -108.5 17.5s-74.333 17 -112 28s-73.834 24.5 -108.501 40.5l74 176c51.333 -19.333 106.166 -36 164.499 -50s121.166 -22.333 188.499 -25v476c-20 5.33301 -44.5 11.5 -73.5 18.5s-59.167 16.833 -90.5 29.5
s-62.5 28.834 -93.5 48.501s-58.833 44.834 -83.5 75.501s-44.667 67.667 -60 111s-23 94.666 -23 153.999c0 61.333 12.667 114 38 158s58.166 80.667 98.499 110s85.833 52.166 136.5 68.499s101 27.5 151 33.5v114h205zM529.006 1250
c-43.333 -11.333 -77.5 -30.001 -102.5 -56.001s-37.5 -61.333 -37.5 -106c0 -25.333 3 -47 9 -65s15 -33.667 27 -47s26.667 -24.666 44 -33.999s37.333 -18 60 -26v334zM734.006 198.999c47.333 16 84.667 40.666 112 73.999s41 77 41 131c0 27.333 -3.5 51 -10.5 71
s-17 37.5 -30 52.5s-29 27.833 -48 38.5s-40.5 20.334 -64.5 29.001v-396z" />
    <glyph glyph-name="percent" unicode="%" horiz-adv-x="1300" 
d="M388 1363c30 0 60.667 -3.16992 92 -9.50293s59.833 -19.666 85.5 -39.999s46.834 -49.666 63.501 -87.999s25 -89.166 25 -152.499s-8.33301 -114.166 -25 -152.499s-37.834 -68 -63.501 -89s-54.167 -34.833 -85.5 -41.5s-62 -10 -92 -10s-60.833 3.33301 -92.5 10
s-60.5 20.167 -86.5 40.5s-47.333 49.833 -64 88.5s-25 90 -25 154s8.33301 115.167 25 153.5s38 67.666 64 87.999s54.833 33.5 86.5 39.5s62.5 9 92.5 9zM388 1266c-22.667 0 -41.834 -4.83398 -57.501 -14.501s-28.334 -23 -38.001 -40s-16.667 -37.333 -21 -61
s-6.5 -49.5 -6.5 -77.5c0 -28.667 2.16699 -54.834 6.5 -78.501s11.333 -44 21 -61s22.334 -30.167 38.001 -39.5s34.834 -14 57.501 -14c22 0 40.833 4.66699 56.5 14s28.5 22.333 38.5 39s17.167 36.834 21.5 60.501s6.5 50.167 6.5 79.5
c0 28.667 -2.16699 54.834 -6.5 78.501s-11.5 44 -21.5 61s-22.833 30.167 -38.5 39.5s-34.5 14 -56.5 14zM1114 1110v-149l-928 -694v148zM914 595.996c30 0 60.667 -3.16992 92 -9.50293s59.833 -19.666 85.5 -39.999s46.834 -49.666 63.501 -87.999
s25 -89.166 25 -152.499s-8.33301 -114.166 -25 -152.499s-37.834 -68 -63.501 -89s-54.167 -34.833 -85.5 -41.5s-62 -10 -92 -10s-60.833 3.33301 -92.5 10s-60.5 20.167 -86.5 40.5s-47.333 49.833 -64 88.5s-25 90 -25 154s8.33301 115.167 25 153.5
s38 67.666 64 87.999s54.833 33.5 86.5 39.5s62.5 9 92.5 9zM914 498.993c-22.667 0 -41.834 -4.83398 -57.501 -14.501s-28.334 -23 -38.001 -40s-16.667 -37.333 -21 -61s-6.5 -49.5 -6.5 -77.5c0 -28.667 2.16699 -54.834 6.5 -78.501s11.333 -44 21 -61
s22.334 -30.167 38.001 -39.5s34.834 -14 57.501 -14c22 0 40.833 4.66699 56.5 14s28.5 22.333 38.5 39s17.167 36.834 21.5 60.501s6.5 50.167 6.5 79.5c0 28.667 -2.16699 54.834 -6.5 78.501s-11.5 44 -21.5 61s-22.833 30.167 -38.5 39.5s-34.5 14 -56.5 14z" />
    <glyph glyph-name="ampersand" unicode="&#x26;" horiz-adv-x="1650" 
d="M1550 243c-30.667 -53.333 -58.3311 -97.3359 -82.998 -132.003s-48.667 -62 -72 -82s-47 -34 -71 -42s-50.333 -12 -79 -12c-24 0 -46.667 1.83301 -68 5.5s-42.5 10.834 -63.5 21.501s-43 25.334 -66 44.001s-47.833 42.667 -74.5 72
c-23.333 -22 -50.5 -41.833 -81.5 -59.5s-64.5 -32.5 -100.5 -44.5s-73.833 -21.333 -113.5 -28s-79.5 -10 -119.5 -10c-77.333 0 -144.666 10.167 -201.999 30.5s-105.166 48.5 -143.499 84.5s-67 78.667 -86 128s-28.5 103 -28.5 161c0 45.333 8 90.5 24 135.5
s41 88.5 75 130.5c24.667 30 54.5 60.167 89.5 90.5s76.167 62.5 123.5 96.5l-63.5 88.5c-19 27 -35 53.333 -48 79s-23 51.334 -30 77.001s-10.5 53.167 -10.5 82.5c0 36 6 71 18 105s30.667 63.667 56 89c18.667 20 40.5 36.833 65.5 50.5s52 24.5 81 32.5
s59.5 13.833 91.5 17.5s64.667 5.5 98 5.5c61.333 0 122.5 -4.33301 183.5 -13s116.5 -18.667 166.5 -30l-72 -202l-56 13c-20 4.66699 -40.5 8.66699 -61.5 12s-42.167 6.16602 -63.5 8.49902s-42 3.5 -62 3.5c-22 0 -42.833 -1.66699 -62.5 -5s-36.667 -8.83301 -51 -16.5
s-25.666 -18 -33.999 -31s-12.5 -29.167 -12.5 -48.5c0 -16 1.83301 -31.5 5.5 -46.5s9.83398 -30.833 18.501 -47.5s19.667 -35 33 -55s29.666 -42.333 48.999 -67l351 -453c15.333 28 29.166 59.667 41.499 95s21.166 72 26.499 110h-135v167h548v-167h-182
c-15.333 -82.667 -36 -157.5 -62 -224.5s-55 -125.167 -87 -174.5l29 -38c10 -12.667 20 -24 30 -34s19.667 -18 29 -24s18.666 -9 27.999 -9c8 0 16.167 2.66699 24.5 8s17.666 14.333 27.999 27s22.166 29.834 35.499 51.501l48 80.5zM533.003 671.997
c-28 -17.333 -52.666 -36.8359 -73.999 -58.5029s-39.333 -44.667 -54 -69s-25.667 -49.166 -33 -74.499s-11 -50.333 -11 -75c0 -28.667 5 -55.667 15 -81s25.5 -47.666 46.5 -66.999s47.333 -34.666 79 -45.999s69.167 -17 112.5 -17c40.667 0 81.167 7.66699 121.5 23
s75.166 37 104.499 65z" />
    <glyph glyph-name="quotesingle" unicode="'" horiz-adv-x="500" 
d="M111 1401c26.667 19.333 55.501 34.167 86.501 44.5s61.167 15.5 90.5 15.5c20 0 39.167 -2.83301 57.5 -8.5s34.5 -14.334 48.5 -26.001s25.167 -26.167 33.5 -43.5s12.5 -37.666 12.5 -60.999c0 -28 -4 -54.5 -12 -79.5s-20.333 -52.333 -37 -82
s-37.334 -63.167 -62.001 -100.5l-87 -134h-172l105 289z" />
    <glyph glyph-name="parenleft" unicode="(" horiz-adv-x="830" 
d="M538 -209c-57.333 43.333 -109.166 93 -155.499 149s-85.833 117.5 -118.5 184.5s-58 139 -76 216s-27 158.167 -27 243.5s9 166.5 27 243.5s43.333 149 76 216s72.167 128.5 118.5 184.5s98.166 105.667 155.499 149l132 -54c-42 -60 -78.167 -117.333 -108.5 -172
s-55.5 -110.834 -75.5 -168.501s-34.667 -118.667 -44 -183s-14 -136.166 -14 -215.499s4.66699 -151.166 14 -215.499s24 -125.333 44 -183s45.167 -113.834 75.5 -168.501s66.5 -112 108.5 -172z" />
    <glyph glyph-name="parenright" unicode=")" horiz-adv-x="830" 
d="M293 1377c56.667 -43.333 108.334 -93 155.001 -149s86.334 -117.5 119.001 -184.5s58 -139 76 -216s27 -158.167 27 -243.5s-9 -166.5 -27 -243.5s-43.333 -149 -76 -216s-72.334 -128.5 -119.001 -184.5s-98.334 -105.667 -155.001 -149l-132 54
c42 60 78.167 117.333 108.5 172s55.5 110.834 75.5 168.501s34.667 118.667 44 183s14 136.166 14 215.499s-4.66699 151.166 -14 215.499s-24 125.333 -44 183s-45.167 113.834 -75.5 168.501s-66.5 112 -108.5 172z" />
    <glyph glyph-name="asterisk" unicode="*" horiz-adv-x="1099" 
d="M621 1459l12 -245l233 62l44 -130l-228 -86l134 -202l-111 -80l-153 190l-153 -190l-110 80l133 204l-230 86l44 130l235 -64l12 245h138z" />
    <glyph glyph-name="plus" unicode="+" horiz-adv-x="1216" 
d="M703 1020v-363h363v-190h-363v-363h-190v363h-363v190h363v363h190z" />
    <glyph glyph-name="comma" unicode="," horiz-adv-x="698" 
d="M185 169c24 17.333 50.165 30.834 78.498 40.501s55.833 14.5 82.5 14.5c18.667 0 36.334 -2.5 53.001 -7.5s31.334 -12.833 44.001 -23.5s22.667 -23.834 30 -39.501s11 -34.167 11 -55.5c0 -25.333 -3.66699 -49.5 -11 -72.5s-18.5 -47.833 -33.5 -74.5
s-33.833 -57 -56.5 -91l-79 -122h-156l95 262z" />
    <glyph glyph-name="hyphen" unicode="-" horiz-adv-x="1224" 
d="M1020 657v-190h-816v190h816z" />
    <glyph glyph-name="period" unicode="." horiz-adv-x="682" 
d="M341 262c21.333 0 40.668 -3.66602 58.001 -10.999s32.166 -17.5 44.499 -30.5s21.833 -28 28.5 -45s10 -35.167 10 -54.5s-3.66699 -37.5 -11 -54.5s-17.5 -32 -30.5 -45s-28 -23.167 -45 -30.5s-35.167 -11 -54.5 -11s-37.5 3.66699 -54.5 11s-32 17.5 -45 30.5
s-23.167 28 -30.5 45s-11 35.167 -11 54.5c0 20.667 3.83301 39.667 11.5 57s18 32.166 31 44.499s28 22 45 29s34.833 10.5 53.5 10.5z" />
    <glyph glyph-name="slash" unicode="/" horiz-adv-x="1349" 
d="M1239 1438l-900 -1438h-229l900 1438h229z" />
    <glyph glyph-name="zero" unicode="0" horiz-adv-x="1247" 
d="M624 1083c76 0 147.667 -14.5 215 -43.5s126 -68.5 176 -118.5s89.5 -108.667 118.5 -176s43.5 -139 43.5 -215c0 -76.667 -14.5 -148.667 -43.5 -216s-68.5 -126 -118.5 -176s-108.667 -89.5 -176 -118.5s-139 -43.5 -215 -43.5c-76.667 0 -148.667 14.5 -216 43.5
s-126 68.5 -176 118.5s-89.5 108.667 -118.5 176s-43.5 139.333 -43.5 216c0 76 14.5 147.667 43.5 215s68.5 126 118.5 176s108.667 89.5 176 118.5s139.333 43.5 216 43.5zM624 851c-42.667 0 -82.834 -8.33301 -120.501 -25s-70.5 -39.334 -98.5 -68.001
s-50.167 -62.667 -66.5 -102s-24.5 -81.333 -24.5 -126c0 -45.333 8.16699 -87.5 24.5 -126.5s38.5 -73 66.5 -102s60.833 -51.833 98.5 -68.5s77.834 -25 120.501 -25c42 0 81.833 8.33301 119.5 25s70.5 39.5 98.5 68.5s50.167 63 66.5 102s24.5 81.167 24.5 126.5
c0 44.667 -8.16699 86.667 -24.5 126s-38.5 73.333 -66.5 102s-60.833 51.334 -98.5 68.001s-77.5 25 -119.5 25z" />
    <glyph glyph-name="one" unicode="1" horiz-adv-x="859" 
d="M527 1092l108 -84v-1008h-274v823l-203 -78l-68 178z" />
    <glyph glyph-name="two" unicode="2" horiz-adv-x="1073" 
d="M134 990c62 30 130.333 53.0049 205 69.0049s148.334 24 221.001 24c55.333 0 107 -5.16699 155 -15.5s89.667 -27.166 125 -50.499s63 -54.333 83 -93s30 -86.334 30 -143.001c0 -54.667 -7.33301 -100.334 -22 -137.001s-36.334 -68.334 -65.001 -95.001
s-64.5 -50.5 -107.5 -71.5s-92.5 -43.5 -148.5 -67.5l-84.5 -36.5c-23.667 -10.333 -43.5 -20 -59.5 -29s-29 -18 -39 -27s-17.667 -19.167 -23 -30.5s-9 -24.333 -11 -39s-3.33301 -32.334 -4 -53.001h549v-195h-818v139c0 64.667 8.33301 120.334 25 167.001
s40.667 87 72 121s69.333 63.667 114 89s95 49 151 71l84.5 34c25 10 46.167 21.5 63.5 34.5s30.666 28.667 39.999 47s14 42.5 14 72.5c0 23.333 -4 42.666 -12 57.999s-19 27.666 -33 36.999s-30.333 15.833 -49 19.5s-38.667 5.5 -60 5.5
c-22 0 -46.333 -1.83301 -73 -5.5s-54 -8.83398 -82 -15.501s-56.167 -15 -84.5 -25s-55.166 -21.333 -80.499 -34z" />
    <glyph glyph-name="three" unicode="3" horiz-adv-x="1097" 
d="M187 1089c24.667 -9.33301 47.0068 -16.6709 67.0068 -22.0039s42 -9.66602 66 -12.999s51.833 -5.5 83.5 -6.5s72.167 -1.5 121.5 -1.5h342v-154l-237 -266c48.667 -1.33301 96 -9.5 142 -24.5s85.333 -39.5 118 -73.5c36.667 -36.667 63.667 -80.167 81 -130.5
s26 -101.5 26 -153.5c0 -63.333 -10.833 -119.666 -32.5 -168.999s-51.334 -92.833 -89.001 -130.5s-82.334 -69.667 -134.001 -96s-107.5 -48.5 -167.5 -66.5c-45.333 -13.333 -88.833 -23.833 -130.5 -31.5s-82 -13.5 -121 -17.5s-77 -6.66699 -114 -8
s-73.167 -2.33301 -108.5 -3v202c52.667 3.33301 104.667 8.33301 156 15s100 16.334 146 29.001c45.333 12.667 87.666 27.834 126.999 45.501s73.333 38 102 61s51.167 49.167 67.5 78.5s24.5 62.333 24.5 99c0 32 -4.66699 59.333 -14 82s-22.333 41 -39 55
s-36.334 24.167 -59.001 30.5s-47.334 9.5 -74.001 9.5s-54.667 -2.83301 -84 -8.5s-59 -13.5 -89 -23.5l-75 149l257 295h-125c-22.667 0 -47.334 0.666992 -74.001 2s-53.667 3.83301 -81 7.5s-54.333 9 -81 16s-51.334 16.5 -74.001 28.5z" />
    <glyph glyph-name="four" unicode="4" horiz-adv-x="1251" 
d="M408 772c20.667 40 37.332 73.501 49.999 100.501s23.167 52 31.5 75s15.666 46.167 21.999 69.5s13.166 51.333 20.499 84l258 -54c-3.33301 -28 -7.16602 -53.333 -11.499 -76s-10.166 -45.167 -17.499 -67.5s-16.166 -45.333 -26.499 -69
s-22.833 -49.834 -37.5 -78.501l-276 -551h312v221h268v-221h168v-205h-168v-274h-268v274h-613l-40 124z" />
    <glyph glyph-name="five" unicode="5" horiz-adv-x="1107" 
d="M540 1046c49.333 0 89.8369 0.498047 121.504 1.49805s59.5 3.16699 83.5 6.5s46 7.66602 66 12.999s42.333 12.666 67 21.999l76 -194c-23.333 -12 -48.166 -21.5 -74.499 -28.5s-53.166 -12.333 -80.499 -16s-54.333 -6.16699 -81 -7.5s-51.334 -2 -74.001 -2h-187
l-14 -244c25.333 9.33301 52.833 16.5 82.5 21.5s60.5 7.5 92.5 7.5c50.667 0 100.167 -7.66699 148.5 -23s89.5 -40.333 123.5 -75c36.667 -36.667 63.667 -80.167 81 -130.5s26 -101.5 26 -153.5c0 -63.333 -10.833 -119.666 -32.5 -168.999
s-51.334 -92.833 -89.001 -130.5s-82.334 -69.667 -134.001 -96s-107.5 -48.5 -167.5 -66.5c-45.333 -13.333 -88.833 -23.833 -130.5 -31.5s-82 -13.5 -121 -17.5s-77 -6.66699 -114 -8s-73.167 -2.33301 -108.5 -3v202c52.667 3.33301 104.667 8.33301 156 15
s100 16.334 146 29.001c45.333 12.667 87.666 27.834 126.999 45.501s73.333 38 102 61s51.167 49.167 67.5 78.5s24.5 62.333 24.5 99c0 32 -4.66699 59.333 -14 82s-22.333 41 -39 55s-36.334 24.167 -59.001 30.5s-47.334 9.5 -74.001 9.5
c-33.333 0 -68.333 -4.16699 -105 -12.5s-74 -20.166 -112 -35.499l-147 106l33 559h334z" />
    <glyph glyph-name="six" unicode="6" horiz-adv-x="1186" 
d="M980 1148c-11.333 0.666992 -22.6631 1.16992 -33.9961 1.50293s-22.666 0.5 -33.999 0.5c-66.667 0 -127 -5.5 -181 -16.5s-101.5 -29.333 -142.5 -55s-75.5 -59 -103.5 -100s-49.667 -91.5 -65 -151.5c34 12 72.5 21.667 115.5 29s87.5 11 133.5 11
c30 0 59.833 -2 89.5 -6s58.334 -10.167 86.001 -18.5s53.667 -19.5 78 -33.5s46.166 -31 65.499 -51c32.667 -36.667 58.167 -82 76.5 -136s27.5 -116.333 27.5 -187c0 -89.333 -14.333 -163.5 -43 -222.5s-66.334 -106 -113.001 -141s-99.334 -59.667 -158.001 -74
s-118.334 -21.5 -179.001 -21.5c-40.667 0 -81.167 2.66699 -121.5 8s-79.166 15 -116.499 29s-71.833 33.5 -103.5 58.5s-59 57.5 -82 97.5s-40.833 88.167 -53.5 144.5s-18 123.166 -16 200.499c2 76.667 8.66699 148.167 20 214.5s27.666 130.166 48.999 191.499
c20.667 59.333 46.167 110.666 76.5 153.999s64 80 101 110s76.333 54.5 118 73.5s84.167 33.667 127.5 44s86.5 17.333 129.5 21s84.5 5.5 124.5 5.5c23.333 0 45.666 -0.333008 66.999 -1s41.666 -1.66699 60.999 -3v-176zM615.003 679.003
c-83.333 0 -156.998 -16.9971 -220.998 -50.9971c-5.33301 -26 -9 -52.667 -11 -80s-3 -51.666 -3 -72.999c0 -42 3.66699 -81.667 11 -119s19.5 -70.333 36.5 -99s39.667 -51.334 68 -68.001s63.166 -25 104.499 -25c36 0 67.5 6.5 94.5 19.5s49.667 31.167 68 54.5
s32.166 51.5 41.499 84.5s14 69.167 14 108.5c0 41.333 -3 77.666 -9 108.999s-16.667 57.666 -32 78.999c-16.667 23.333 -39.667 39.166 -69 47.499s-60.333 12.5 -93 12.5z" />
    <glyph glyph-name="seven" unicode="7" horiz-adv-x="1092" 
d="M635 1046c42 0 77.835 0.665039 107.502 1.99805s56.834 3.66602 81.501 6.99902c24 3.33301 47 7 69 11s45.333 9.33301 70 16l49 -144c-64 -93.333 -118.5 -176.333 -163.5 -249s-82.5 -139.334 -112.5 -200.001c-30.667 -60.667 -54.667 -117.5 -72 -170.5
s-30.333 -106.833 -39 -161.5c-4 -27.333 -7.33301 -53.666 -10 -78.999s-4.83398 -51.666 -6.50098 -78.999s-2.66699 -56.333 -3 -87s-0.5 -65 -0.5 -103v-74h-274c0 81.333 1.16699 155 3.5 221s7.66602 128.833 15.999 188.5s21.166 118.334 38.499 176.001
s41 118.834 71 183.501c23.333 50 50.833 102.167 82.5 156.5s68.5 114.5 110.5 180.5h-563v205h545z" />
    <glyph glyph-name="eight" unicode="8" horiz-adv-x="1206" 
d="M608 1314c28 0 57.9941 -2.00488 89.9941 -6.00488s64 -10.667 96 -20s62.667 -21.666 92 -36.999s55.333 -34.833 78 -58.5s40.834 -51.667 54.501 -84s20.5 -69.833 20.5 -112.5c0 -118.667 -46.667 -216 -140 -292c31.333 -16 59.833 -34 85.5 -54
s47.5 -43.333 65.5 -70s31.833 -57 41.5 -91s14.5 -73.333 14.5 -118c0 -52 -7.5 -98 -22.5 -138s-35.333 -74.5 -61 -103.5s-55.5 -53.333 -89.5 -73s-69.667 -35.5 -107 -47.5s-75.166 -20.5 -113.499 -25.5s-74.833 -7.5 -109.5 -7.5c-36.667 0 -74.5 2.5 -113.5 7.5
s-77.167 13.333 -114.5 25s-72.666 27.334 -105.999 47.001s-62.5 44.334 -87.5 74.001s-44.833 65 -59.5 106s-22 88.5 -22 142.5c0 38.667 5.33301 74.834 16 108.501s25.5 64.5 44.5 92.5s41.833 53.333 68.5 76s56.334 42.667 89.001 60c-20 14 -38.5 29.667 -55.5 47
s-31.5 37.166 -43.5 59.499s-21.5 47.833 -28.5 76.5s-10.5 61.334 -10.5 98.001c0 42.667 6.83301 80.167 20.5 112.5s32 60.333 55 84s49.167 43.334 78.5 59.001s59.833 28.167 91.5 37.5s63.334 15.833 95.001 19.5s60.834 5.5 87.501 5.5zM607.994 1140
c-25.333 0 -48.667 -2.83594 -70 -8.50293s-39.666 -14.5 -54.999 -26.5s-27.333 -27.333 -36 -46s-13 -41 -13 -67c0 -37.333 8.33301 -67.166 25 -89.499s38 -40.5 64 -54.5s55 -25 87 -33l95 -23c16 14 29.167 29.333 39.5 46s18.5 33.834 24.5 51.501
s10.167 35.334 12.5 53.001s3.5 34.167 3.5 49.5c0 26 -4.5 48.333 -13.5 67s-21.5 34 -37.5 46s-34.833 20.833 -56.5 26.5s-44.834 8.5 -69.501 8.5zM501.993 598.992c-23.333 -14 -43.501 -28.501 -60.501 -43.501s-30.833 -31.167 -41.5 -48.5s-18.5 -36.5 -23.5 -57.5
s-7.5 -44.833 -7.5 -71.5c0 -73.333 20.333 -129.666 61 -168.999s98.334 -59 173.001 -59c74 0 131.5 19.167 172.5 57.5s61.5 92.833 61.5 163.5c0 44.667 -10.167 80 -30.5 106s-46.5 46.5 -78.5 61.5s-68 26.667 -108 35z" />
    <glyph glyph-name="nine" unicode="9" horiz-adv-x="1186" 
d="M212 -89c11.333 -0.666992 22.6689 -1.16797 34.002 -1.50098s22.666 -0.5 33.999 -0.5c66.667 0 127 5.5 181 16.5s101.5 29.333 142.5 55s75.5 59 103.5 100s49.667 91.5 65 151.5c-34 -12 -72.5 -21.667 -115.5 -29s-87.5 -11 -133.5 -11c-30 0 -59.833 2 -89.5 6
s-58.334 10.167 -86.001 18.5s-53.667 19.5 -78 33.5s-46.166 31 -65.499 51c-32.667 36.667 -58.167 82 -76.5 136s-27.5 116.333 -27.5 187c0 59.333 6.5 112 19.5 158s31.167 86 54.5 120s50.666 62.5 81.999 85.5s65.166 41.667 101.499 56s74.5 24.5 114.5 30.5
s80.333 9 121 9s81.167 -2.66699 121.5 -8s79.166 -15 116.499 -29s71.833 -33.5 103.5 -58.5s59 -57.5 82 -97.5s40.833 -88.333 53.5 -145s18 -123.334 16 -200.001s-8.66699 -148.167 -20 -214.5s-27.666 -130.166 -48.999 -191.499
c-20.667 -60 -46.5 -111.667 -77.5 -155s-65.167 -80.166 -102.5 -110.499s-77.166 -54.833 -119.499 -73.5s-85 -33 -128 -43s-85.667 -16.833 -128 -20.5s-82.5 -5.5 -120.5 -5.5c-24.667 0 -47.667 0.333008 -69 1s-41.333 1.66699 -60 3v176zM592.003 894.999
c-36 0 -67.502 -6.50195 -94.502 -19.502s-49.667 -31.333 -68 -55s-32.166 -51.834 -41.499 -84.501s-14 -68.667 -14 -108c0 -41.333 3 -77.666 9 -108.999s16.667 -57.666 32 -78.999c16.667 -23.333 39.667 -39.166 69 -47.499s60.333 -12.5 93 -12.5
c83.333 0 157 17 221 51c5.33301 26 9 52.667 11 80s3 51.666 3 72.999c0 42 -3.66699 81.667 -11 119s-19.5 70.333 -36.5 99s-39.667 51.334 -68 68.001s-63.166 25 -104.499 25z" />
    <glyph glyph-name="colon" unicode=":" horiz-adv-x="670" 
d="M335 887c22 0 42.168 -3.83203 60.501 -11.499s34 -18.334 47 -32.001s23 -29.5 30 -47.5s10.5 -37 10.5 -57s-3.83301 -39 -11.5 -57s-18.334 -33.833 -32.001 -47.5s-29.5 -24.334 -47.5 -32.001s-37 -11.5 -57 -11.5s-39 3.83301 -57 11.5
s-33.833 18.334 -47.5 32.001s-24.334 29.5 -32.001 47.5s-11.5 37 -11.5 57c0 22 4 42 12 60s18.833 33.5 32.5 46.5s29.334 23.167 47.001 30.5s36.5 11 56.5 11zM335.001 276.001c22 0 42.168 -3.83203 60.501 -11.499s34 -18.334 47 -32.001s23 -29.5 30 -47.5
s10.5 -37 10.5 -57s-3.83301 -39 -11.5 -57s-18.334 -33.833 -32.001 -47.5s-29.5 -24.334 -47.5 -32.001s-37 -11.5 -57 -11.5s-39 3.83301 -57 11.5s-33.833 18.334 -47.5 32.001s-24.334 29.5 -32.001 47.5s-11.5 37 -11.5 57c0 22 4 42 12 60s18.833 33.5 32.5 46.5
s29.334 23.167 47.001 30.5s36.5 11 56.5 11z" />
    <glyph glyph-name="semicolon" unicode=";" horiz-adv-x="724" 
d="M393 887c22 0 42.168 -3.83203 60.501 -11.499s34 -18.334 47 -32.001s23 -29.5 30 -47.5s10.5 -37 10.5 -57s-3.83301 -39 -11.5 -57s-18.334 -33.833 -32.001 -47.5s-29.5 -24.334 -47.5 -32.001s-37 -11.5 -57 -11.5s-39 3.83301 -57 11.5
s-33.833 18.334 -47.5 32.001s-24.334 29.5 -32.001 47.5s-11.5 37 -11.5 57c0 22 4 42 12 60s18.833 33.5 32.5 46.5s29.334 23.167 47.001 30.5s36.5 11 56.5 11zM241.001 169.001c24 17.333 50.165 30.834 78.498 40.501s55.833 14.5 82.5 14.5
c18.667 0 36.334 -2.5 53.001 -7.5s31.334 -12.833 44.001 -23.5s22.667 -23.834 30 -39.501s11 -34.167 11 -55.5c0 -25.333 -3.66699 -49.5 -11 -72.5s-18.5 -47.833 -33.5 -74.5s-33.833 -57 -56.5 -91l-79 -122h-156l95 262z" />
    <glyph glyph-name="less" unicode="&#x3c;" horiz-adv-x="1127" 
d="M1027 1049v-254l-633 -277l633 -280v-258l-927 459v156z" />
    <glyph glyph-name="equal" unicode="=" horiz-adv-x="1216" 
d="M1066 847v-190h-916v190h916zM1066 467v-190h-916v190h916z" />
    <glyph glyph-name="greater" unicode="&#x3e;" horiz-adv-x="1127" 
d="M100 1049l927 -454v-156l-927 -459v258l633 280l-633 277v254z" />
    <glyph glyph-name="question" unicode="?" horiz-adv-x="1196" 
d="M120 1363c70.667 32 143.835 56.333 219.502 73s148.834 25 219.501 25c71.333 0 135.166 -7.5 191.499 -22.5s104.166 -37.5 143.499 -67.5s69.5 -67.667 90.5 -113s31.5 -98.666 31.5 -159.999c0 -57.333 -9.33301 -106.833 -28 -148.5
s-46.334 -78.834 -83.001 -111.501s-82.167 -62.834 -136.5 -90.501s-116.833 -56.5 -187.5 -86.5v-239l-239 -40l-60 367l147 61.5c44 17.667 83.167 34.167 117.5 49.5s64 30.5 89 45.5s45.5 31.333 61.5 49s27.833 37.334 35.5 59.001s11.5 47.5 11.5 77.5
c0 29.333 -5 54.333 -15 75s-24 37.5 -42 50.5s-39.5 22.333 -64.5 28s-52.5 8.5 -82.5 8.5c-26 0 -53.5 -2 -82.5 -6s-58.333 -9.83301 -88 -17.5s-59.167 -16.667 -88.5 -27s-58 -21.5 -86 -33.5zM461.001 262c21.333 0 40.668 -3.66602 58.001 -10.999
s32.166 -17.5 44.499 -30.5s21.833 -28 28.5 -45s10 -35.167 10 -54.5s-3.66699 -37.5 -11 -54.5s-17.5 -32 -30.5 -45s-28 -23.167 -45 -30.5s-35.167 -11 -54.5 -11s-37.5 3.66699 -54.5 11s-32 17.5 -45 30.5s-23.167 28 -30.5 45s-11 35.167 -11 54.5
c0 20.667 3.83301 39.667 11.5 57s18 32.166 31 44.499s28 22 45 29s34.833 10.5 53.5 10.5z" />
    <glyph glyph-name="at" unicode="@" horiz-adv-x="1742" 
d="M870 -219c-70 0 -137.328 8.66992 -201.995 26.0029s-125 41.666 -181 72.999s-106.833 69.166 -152.5 113.499s-84.667 93.333 -117 147s-57.333 111.5 -75 173.5s-26.5 126.333 -26.5 193s8.83301 131 26.5 193s42.667 119.833 75 173.5s71.333 102.667 117 147
s96.5 82.166 152.5 113.499s116.167 55.666 180.5 72.999s131.833 26 202.5 26c70 0 137.333 -8.66699 202 -26s125 -41.666 181 -72.999s106.833 -69.166 152.5 -113.499s84.667 -93.333 117 -147s57.333 -111.5 75 -173.5s26.5 -126.333 26.5 -193
c0 -63.333 -10 -119.166 -30 -167.499s-47.5 -89.166 -82.5 -122.499s-76.333 -58.5 -124 -75.5s-99.5 -25.5 -155.5 -25.5c-21.333 0 -40.833 0.166992 -58.5 0.5s-34.834 0.833008 -51.501 1.5s-33.5 1.66699 -50.5 3s-34.833 3 -53.5 5c-2 11.333 -4 23.666 -6 36.999
l-6 42c-1.33301 13.333 -2.5 26.833 -3.5 40.5s-1.5 27.167 -1.5 40.5h-10c-14 -32 -29 -58.833 -45 -80.5s-32.833 -38.834 -50.5 -51.501s-35.834 -21.667 -54.501 -27s-37.334 -8 -56.001 -8c-24 0 -48.167 3.16699 -72.5 9.5s-47 17.833 -68 34.5s-39.5 39.5 -55.5 68.5
s-28 66.167 -36 111.5c-3.33301 19.333 -5.83301 38.833 -7.5 58.5s-2.5 40.167 -2.5 61.5c0 78.667 8.83301 145 26.5 199s43 97.667 76 131s72.667 57.5 119 72.5s98.166 23.167 155.499 24.5c30 0 67.667 -3 113 -9s97.333 -17.333 156 -34l-11 -259
c-0.666992 -16.667 -1.5 -36.167 -2.5 -58.5s-1.83301 -45.5 -2.5 -69.5l-2 -71c-0.666992 -23.333 -1 -44.333 -1 -63v-13c0 -5.33301 0.166992 -10.833 0.5 -16.5s0.666016 -10.834 0.999023 -15.501s0.5 -8 0.5 -10c2.66699 -0.666992 7 -1.16699 13 -1.5l18 -1
c6 -0.333008 11.833 -0.5 17.5 -0.5h12.5c65.333 0 116.5 19 153.5 57s55.5 98.667 55.5 182c0 76 -14.833 147.5 -44.5 214.5s-70.167 125.167 -121.5 174.5s-111.833 88.333 -181.5 117s-144.5 43 -224.5 43s-154.833 -14.333 -224.5 -43s-130.167 -67.667 -181.5 -117
s-91.833 -107.5 -121.5 -174.5s-44.5 -138.5 -44.5 -214.5s14.833 -147.5 44.5 -214.5s70.167 -125.167 121.5 -174.5s111.833 -88.333 181.5 -117s144.5 -43 224.5 -43h58v-177h-58zM1006 741.003l-35 5.99609c-12 2 -24.333 3 -37 3
c-46.667 0 -83.834 -8.33301 -111.501 -25s-48.667 -38.667 -63 -66s-23.666 -58.166 -27.999 -92.499s-6.5 -69.166 -6.5 -104.499c0 -19.333 0.666992 -40.666 2 -63.999s4.5 -45 9.5 -65s12.667 -36.833 23 -50.5s24.833 -20.5 43.5 -20.5
c19.333 0 36.833 4.33301 52.5 13s30.167 21 43.5 37c18 20.667 34.667 46.334 50 77.001s30.333 64.667 45 102z" />
    <glyph glyph-name="A" unicode="A" horiz-adv-x="1454" 
d="M865 1438l543 -1438h-282l-164 442h-474l-164 -442h-282l543 1438h280zM725 1141l-163 -498h326z" />
    <glyph glyph-name="B" unicode="B" horiz-adv-x="1348" 
d="M719 1438c62.667 0 122.002 -6.16602 178.002 -18.499s104.833 -31.833 146.5 -58.5s74.667 -61 99 -103s36.5 -92.667 36.5 -152c0 -41.333 -4.16699 -78.333 -12.5 -111s-20.333 -61.834 -36 -87.501s-34.5 -48.167 -56.5 -67.5s-47 -36 -75 -50v-10
c31.333 -7.33301 62.166 -20.333 92.499 -39s57.5 -42.667 81.5 -72s43.5 -63.5 58.5 -102.5s22.5 -82.167 22.5 -129.5c0 -80 -13 -147.833 -39 -203.5s-61.833 -100.667 -107.5 -135s-99.834 -59.333 -162.501 -75s-130.667 -23.5 -204 -23.5h-558v1438h536z
M625.002 874.001c50 0 92.667 3.33203 128 9.99902s64.166 17.334 86.499 32.001s38.833 33.667 49.5 57s16 51.666 16 84.999c0 34 -5.33301 62.667 -16 86s-27.167 42.333 -49.5 57s-51.166 25.334 -86.499 32.001s-78 10 -128 10h-168v-369h168zM661.002 195
c105.333 0 184.833 18.667 238.5 56s80.5 99.333 80.5 186s-26.833 148.667 -80.5 186s-133.167 56 -238.5 56h-204v-484h204z" />
    <glyph glyph-name="C" unicode="C" horiz-adv-x="1289" 
d="M1207 40c-59.333 -19.333 -124.506 -34.834 -195.506 -46.501s-143.167 -17.5 -216.5 -17.5c-124.667 0 -230.167 14.5 -316.5 43.5s-156.5 73.333 -210.5 133s-93 134.667 -117 225s-36 196.833 -36 319.5c0 128 11.833 239.667 35.5 335s61.167 174.666 112.5 237.999
s117.5 110.833 198.5 142.5s179.167 47.5 294.5 47.5c40.667 0 80.834 -2 120.501 -6s77.334 -9.33301 113.001 -16s69 -14.334 100 -23.001s58.5 -17.667 82.5 -27l-66 -201c-47.333 17.333 -97.833 32.5 -151.5 45.5s-110.167 19.5 -169.5 19.5
c-71.333 0 -131.666 -10.667 -180.999 -32s-89.166 -53.666 -119.499 -96.999s-52.166 -98 -65.499 -164s-20 -143.333 -20 -232c0 -94.667 7.33301 -176.167 22 -244.5s38.334 -124.666 71.001 -168.999s75.5 -77 128.5 -98s117.5 -31.5 193.5 -31.5
c58 0 116.167 5.33301 174.5 16s112.5 24.334 162.5 41.001z" />
    <glyph glyph-name="D" unicode="D" horiz-adv-x="1424" 
d="M571 1438c78.667 0 151.332 -4.16699 217.999 -12.5s128 -22.833 184 -43.5c66 -24.667 121.333 -57.5 166 -98.5s80.334 -89.5 107.001 -145.5s45.667 -118.833 57 -188.5s17 -145.167 17 -226.5s-5.83301 -157 -17.5 -227s-31.167 -133.167 -58.5 -189.5
s-63.166 -105.333 -107.499 -147s-98.833 -75.167 -163.5 -100.5c-56 -21.333 -117.333 -36.5 -184 -45.5s-139.334 -13.5 -218.001 -13.5h-390v1438h390zM500.998 203c110 0 199.669 7.99805 269.002 23.998s123.666 43.667 162.999 83s66.333 91.833 81 157.5
s22 148.5 22 248.5s-7.16699 183.333 -21.5 250s-39.833 119.834 -76.5 159.501s-86.334 67.834 -149.001 84.501s-142 25 -238 25h-90v-1032h40z" />
    <glyph glyph-name="E" unicode="E" horiz-adv-x="1191" 
d="M1042 1438v-205h-581v-326h411v-205h-411v-497h602v-205h-881v1438h860z" />
    <glyph glyph-name="F" unicode="F" horiz-adv-x="1122" 
d="M1042 1438v-205h-581v-326h411v-205h-411v-702h-279v1438h860z" />
    <glyph glyph-name="G" unicode="G" horiz-adv-x="1445" 
d="M1303 70c-29.333 -14.667 -62.6689 -27.8311 -100.002 -39.498s-77.333 -21.5 -120 -29.5s-87 -14.167 -133 -18.5s-92 -6.5 -138 -6.5c-116.667 0 -218.667 12 -306 36s-160 64 -218 120s-101.333 130.167 -130 222.5s-43 207.166 -43 344.499
c0 143.333 15 263.666 45 360.999s73 175.833 129 235.5s123.833 102.5 203.5 128.5s168.834 39 267.501 39c42 0 84.5 -2.16699 127.5 -6.5s85.5 -10.833 127.5 -19.5s82.5 -19.5 121.5 -32.5s75.5 -27.833 109.5 -44.5l-77 -195c-67.333 32 -133.833 55 -199.5 69
s-127.834 21 -186.501 21c-66.667 0 -124.167 -10.5 -172.5 -31.5s-88.166 -53 -119.499 -96s-54.5 -97.667 -69.5 -164s-22.5 -144.5 -22.5 -234.5c0 -95.333 7.66699 -177.166 23 -245.499s39.5 -124.833 72.5 -169.5s75 -77.5 126 -98.5s112.5 -31.5 184.5 -31.5
c36 0 72.833 2.66699 110.5 8s75.834 12.666 114.501 21.999v347h-229v203h502v-694z" />
    <glyph glyph-name="H" unicode="H" horiz-adv-x="1558" 
d="M1376 1438v-1438h-279v701h-636v-701h-279v1438h279v-532h636v532h279z" />
    <glyph glyph-name="I" unicode="I" horiz-adv-x="687" 
d="M483 1438v-1438h-279v1438h279z" />
    <glyph glyph-name="J" unicode="J" horiz-adv-x="796" 
d="M625 1438l-0.000976562 -1009c0 -86 -3.5 -161.667 -10.5 -227s-21.5 -123.333 -43.5 -174c-12 -26.667 -27 -53 -45 -79s-40.5 -51.5 -67.5 -76.5s-58.667 -49.5 -95 -73.5s-78.833 -48 -127.5 -72l-112 154l94.5 86.5c27.667 26.333 51.167 56.166 70.5 89.499
c18.667 33.333 32.834 73 42.501 119s14.5 104 14.5 174v1088h279z" />
    <glyph glyph-name="K" unicode="K" horiz-adv-x="1310" 
d="M990 1460l180 -150l-486 -576l586 -734h-352l-455 615v-615h-279v1438h279v-602z" />
    <glyph glyph-name="L" unicode="L" horiz-adv-x="1133" 
d="M475 1438v-1233h561v-205h-840v1438h279z" />
    <glyph glyph-name="M" unicode="M" horiz-adv-x="1868" 
d="M1631 1438l164 -1438h-274l-118 1070h-6l-309 -1075h-308l-309 1075h-6l-118 -1070h-274l164 1438h366l331 -1153l331 1153h366z" />
    <glyph glyph-name="N" unicode="N" horiz-adv-x="1574" 
d="M1396 1438v-1438h-309l-629 1075v-1075h-279v1438h309l629 -1075v1075h279z" />
    <glyph glyph-name="O" unicode="O" horiz-adv-x="1542" 
d="M771 1460c120 0 221.333 -18.1689 304 -54.502s149.834 -87.166 201.501 -152.499s88.834 -143.5 111.501 -234.5s34 -191.167 34 -300.5s-11.333 -209.5 -34 -300.5s-59.834 -169.167 -111.501 -234.5s-118.834 -116.166 -201.501 -152.499s-184 -54.5 -304 -54.5
c-118 0 -218.333 17.667 -301 53s-149.834 85.333 -201.501 150s-89.334 142.667 -113.001 234s-35.5 193 -35.5 305s11.833 213.667 35.5 305s61.334 169.333 113.001 234s118.834 114.667 201.501 150s183 53 301 53zM771 1255c-70 0 -128.5 -11.3311 -175.5 -33.998
s-84.667 -56.5 -113 -101.5s-48.5 -101 -60.5 -168s-18 -144.833 -18 -233.5s6 -166.5 18 -233.5s32.167 -123 60.5 -168s66 -78.833 113 -101.5s105.5 -34 175.5 -34c69.333 0 127.5 11.167 174.5 33.5s84.667 55.833 113 100.5s48.666 100.667 60.999 168
s18.5 145.666 18.5 234.999s-6.16699 167.666 -18.5 234.999s-32.666 123.333 -60.999 168s-66 78.167 -113 100.5s-105.167 33.5 -174.5 33.5z" />
    <glyph glyph-name="P" unicode="P" horiz-adv-x="1295" 
d="M738 1438c70 0 132.5 -9.5 187.5 -28.5s101.5 -46.833 139.5 -83.5s67 -82 87 -136s30 -116 30 -186c0 -76 -12.333 -142.5 -37 -199.5s-60 -104.5 -106 -142.5s-101.667 -66.667 -167 -86s-138.333 -29 -219 -29c-37.333 0 -72.5 1.16699 -105.5 3.5
s-62.167 4.83301 -87.5 7.5v-558h-279v1438h557zM460 749c21.333 -3.33301 42.501 -5.83301 63.501 -7.5s41.5 -2.5 61.5 -2.5c51.333 0 96.5 4.33301 135.5 13s71.667 23 98 43s46.166 46 59.499 78s20 71.667 20 119c0 46.667 -5 86.167 -15 118.5s-26 58.5 -48 78.5
s-50.333 34.5 -85 43.5s-76.667 13.5 -126 13.5h-164v-497z" />
    <glyph glyph-name="Q" unicode="Q" horiz-adv-x="1542" 
d="M771 1460c120 0 221.328 -18.167 303.995 -54.5s149.834 -87.166 201.501 -152.499s88.834 -143.5 111.501 -234.5s34 -191.167 34 -300.5c0 -86.667 -7 -167.5 -21 -242.5s-36.5 -142.833 -67.5 -203.5s-71.167 -112.834 -120.5 -156.501s-109.333 -77.5 -180 -101.5
l83 -64.5c24.667 -19 49.334 -36.167 74.001 -51.5s50.667 -28.833 78 -40.5s59.333 -21.834 96 -30.501l-11.5 -50c-3.66699 -15.333 -7.83398 -30.166 -12.501 -44.499s-10.167 -28.833 -16.5 -43.5l-21.5 -48c-36 8.66699 -67.5 17.334 -94.5 26.001
s-52.5 18.667 -76.5 30s-48 24.666 -72 39.999s-51 34 -81 56l-103 78l-138 106c-112 3.33301 -207 23.333 -285 60s-141.667 87.334 -191 152.001s-85.166 141.667 -107.499 231s-33.5 188.666 -33.5 297.999c0 112 11.833 213.667 35.5 305s61.334 169.333 113.001 234
s118.834 114.667 201.501 150s183 53 301 53zM770.995 1255c-70 0 -128.5 -11.3311 -175.5 -33.998s-84.667 -56.5 -113 -101.5s-48.5 -101 -60.5 -168s-18 -144.833 -18 -233.5s6 -166.5 18 -233.5s32.167 -123 60.5 -168s66 -78.833 113 -101.5s105.5 -34 175.5 -34
c69.333 0 127.5 11.167 174.5 33.5s84.667 55.833 113 100.5s48.666 100.667 60.999 168s18.5 145.666 18.5 234.999s-6.16699 167.666 -18.5 234.999s-32.666 123.333 -60.999 168s-66 78.167 -113 100.5s-105.167 33.5 -174.5 33.5z" />
    <glyph glyph-name="R" unicode="R" horiz-adv-x="1323" 
d="M711 1438c64.667 0 124.333 -8.16406 179 -24.4971s102 -40.833 142 -73.5s71.167 -74 93.5 -124s33.5 -108.333 33.5 -175c0 -54 -9 -103.333 -27 -148s-43.333 -83.5 -76 -116.5s-71.334 -59.833 -116.001 -80.5s-94 -34.334 -148 -41.001l-1 -3
c26.667 -15.333 52.667 -36.833 78 -64.5s49.833 -57.834 73.5 -90.501s46.334 -66 68.001 -100l59.5 -94l198 -303h-315l-78.5 132.5l-87 148.5l-82 137.5c-25.667 42.333 -46.5 75.5 -62.5 99.5c-15.333 22 -29.5 40.667 -42.5 56s-26.167 27.666 -39.5 36.999
s-27.5 16 -42.5 20s-31.833 6.33301 -50.5 7h-8v-638h-279v1438h530zM603.999 830.003c43.333 0 81.833 3.49805 115.5 10.498s62 18.667 85 35s40.5 37.833 52.5 64.5s18 59.334 18 98.001s-6 71.334 -18 98.001s-29.5 48.167 -52.5 64.5s-51.333 28 -85 35
s-72.167 10.5 -115.5 10.5h-144v-416h144z" />
    <glyph glyph-name="S" unicode="S" horiz-adv-x="1271" 
d="M176 249c55.333 -21.333 114.495 -39.166 177.495 -53.499s131.5 -21.5 205.5 -21.5c48 0 92 4.33301 132 13s74.5 22.334 103.5 41.001s51.667 42.5 68 71.5s24.5 63.833 24.5 104.5c0 44 -8.83301 79 -26.5 105s-42.5 47.333 -74.5 64s-70.667 30.667 -116 42l-151 38
c-62 16 -118.5 34.333 -169.5 55s-94.5 47.334 -130.5 80.001s-64 73 -84 121s-30 107.333 -30 178c0 47.333 7.83301 89.666 23.5 126.999s36.834 69.833 63.501 97.5s57.5 51.167 92.5 70.5s71.667 35 110 47s77.5 20.667 117.5 26s78 8 114 8
c25.333 0 55.833 -1.33301 91.5 -4s73.667 -7.5 114 -14.5s82 -16.167 125 -27.5s84.5 -25.666 124.5 -42.999l-71 -174c-53.333 19.333 -108.833 35 -166.5 47s-118.167 18 -181.5 18c-40 0 -76.667 -3.16699 -110 -9.5s-62.166 -16.5 -86.499 -30.5
s-43.166 -32.333 -56.499 -55s-20 -50 -20 -82c0 -41.333 8.16699 -73.666 24.5 -96.999s39.833 -42.333 70.5 -57s68.167 -27.167 112.5 -37.5s94.5 -22.833 150.5 -37.5c61.333 -16 117.833 -34.833 169.5 -56.5s96.334 -49.667 134.001 -84s67.167 -76.833 88.5 -127.5
s32 -113 32 -187c0 -65.333 -10.333 -121.333 -31 -168s-47.667 -85.834 -81 -117.501s-71.333 -56.834 -114 -75.501s-86 -33 -130 -43s-86.667 -16.5 -128 -19.5s-77.666 -4.5 -108.999 -4.5c-30.667 0.666992 -65.167 2.66699 -103.5 6s-78.5 8.66602 -120.5 15.999
s-84.5 17.166 -127.5 29.499s-84.5 27.5 -124.5 45.5z" />
    <glyph glyph-name="T" unicode="T" horiz-adv-x="1303" 
d="M1213 1438v-205h-420v-1233h-279v1233h-424v205h1123z" />
    <glyph glyph-name="U" unicode="U" horiz-adv-x="1532" 
d="M1366 1438l-0.00195312 -806c0 -104 -10.667 -196.667 -32 -278s-55.833 -150 -103.5 -206s-109.667 -98.5 -186 -127.5s-169.5 -43.5 -279.5 -43.5c-112 0 -206.167 15 -282.5 45s-138 73.333 -185 130s-80.667 125.5 -101 206.5s-30.5 172.167 -30.5 273.5v806h284
v-840c0 -63.333 5.5 -120.5 16.5 -171.5s29 -94.333 54 -130s57.5 -63.167 97.5 -82.5s89 -29 147 -29c59.333 0 109.333 9.66699 150 29s73.334 47 98.001 83s42.334 79.5 53.001 130.5s16 107.833 16 170.5v840h284z" />
    <glyph glyph-name="V" unicode="V" horiz-adv-x="1508" 
d="M1395 1438l-511 -1440h-259l-512 1440h287l355 -1129l353 1129h287z" />
    <glyph glyph-name="W" unicode="W" horiz-adv-x="1868" 
d="M1795 1437l-164 -1437h-366l-331 1152l-331 -1152h-366l-164 1437h274l118 -1079h2l310 1079h314l310 -1079h2l118 1079h274z" />
    <glyph glyph-name="X" unicode="X" horiz-adv-x="1456" 
d="M357 1463l385 -526l348 501h294l-491 -707l450 -617l-259 -138l-367 506l-332 -482h-294l476 688l-469 637z" />
    <glyph glyph-name="Y" unicode="Y" horiz-adv-x="1400" 
d="M1335 1438l-495 -790v-648h-280v648l-495 790h304l331 -603l331 603h304z" />
    <glyph glyph-name="Z" unicode="Z" horiz-adv-x="1291" 
d="M1137 1438v-167l-658 -1066h664v-205h-996v161l660 1072h-637v205h967z" />
    <glyph glyph-name="bracketleft" unicode="[" horiz-adv-x="821" 
d="M641 1570v-192h-178v-1318h178v-192h-441v1702h441z" />
    <glyph glyph-name="backslash" unicode="\" horiz-adv-x="1219" 
d="M354 1438l710 -1438h-199l-710 1438h199z" />
    <glyph glyph-name="bracketright" unicode="]" horiz-adv-x="821" 
d="M621 1570v-1702h-441v192h178v1318h-178v192h441z" />
    <glyph glyph-name="asciicircum" unicode="^" horiz-adv-x="839" 
d="M502 1114l311 -687h-177l-217 489l-217 -489h-176l309 687h167z" />
    <glyph glyph-name="underscore" unicode="_" horiz-adv-x="1164" 
d="M1014 200v-200h-864v200h864z" />
    <glyph glyph-name="grave" unicode="`" horiz-adv-x="575" 
d="M204 1181l-79.002 121.999c-22.667 34 -41.5 64.333 -56.5 91s-26.167 51.5 -33.5 74.5s-11 47.167 -11 72.5c0 21.333 3.66699 39.833 11 55.5s17.333 28.834 30 39.501s27.334 18.5 44.001 23.5s34.334 7.5 53.001 7.5c26.667 0 54.167 -4.83301 82.5 -14.5
s54.5 -23.167 78.5 -40.5l-58 -169l95 -262h-156z" />
    <glyph glyph-name="a" unicode="a" horiz-adv-x="1141" 
d="M187 989c24.667 10 52.833 19.335 84.5 28.002s65.334 16.5 101.001 23.5s72.667 12.5 111 16.5s77.166 6 116.499 6c55.333 0 107.166 -4.33301 155.499 -13s88.5 -23 120.5 -43s57 -47.167 75 -81.5s27 -77.5 27 -129.5v-406c0 -46.667 0.333008 -88.167 1 -124.5
s2 -71.833 4 -106.5c1.33301 -12.667 2.66602 -24.167 3.99902 -34.5s2.83301 -20.333 4.5 -30s3.66699 -19.834 6 -30.501s5.16602 -22.334 8.49902 -35.001l-123.5 -27c-41 -8.66699 -82.5 -17 -124.5 -25c-7.33301 18.667 -13.166 37.834 -17.499 57.501
s-8.16602 42.167 -11.499 67.5h-15c-23.333 -24 -46.666 -44 -69.999 -60s-47.666 -29 -72.999 -39s-51.666 -17 -78.999 -21s-56 -6 -86 -6c-46 0 -88.667 5.5 -128 16.5s-73.5 27.833 -102.5 50.5s-51.667 51.5 -68 86.5s-24.5 76.167 -24.5 123.5
c0 40 4.16699 75.667 12.5 107s20.166 59.333 35.499 84s33.666 46.334 54.999 65.001s45 35 71 49c52 28 110 47.167 174 57.5s129.333 15.5 196 15.5h86v130c0 24.667 -3.83301 44.167 -11.5 58.5s-18 25.166 -31 32.499s-28.167 12.166 -45.5 14.499s-36 3.5 -56 3.5
c-54 0 -108.5 -6.83301 -163.5 -20.5s-107.5 -30.5 -157.5 -50.5zM712.999 484.002h-19.999c-47.333 -0.666992 -92.5 -4.16699 -135.5 -10.5s-80.833 -17.166 -113.5 -32.499s-58.834 -35.5 -78.501 -60.5s-29.5 -56.5 -29.5 -94.5c0 -42 12.167 -74.333 36.5 -97
s58.5 -34 102.5 -34c20.667 0 42 2.83301 64 8.5s43.667 13.667 65 24s41.333 23.166 60 38.499s35 33 49 53v205z" />
    <glyph glyph-name="b" unicode="b" horiz-adv-x="1235" 
d="M448 1440l0.00292969 -534.001h5c19.333 24.667 40 46.834 62 66.501s45.833 36.5 71.5 50.5s53.5 24.667 83.5 32s63 11 99 11c70 0 129 -13.667 177 -41s86.833 -64 116.5 -110s51 -99.5 64 -160.5s19.5 -124.833 19.5 -191.5c0 -90.667 -10.333 -172 -31 -244
s-54.334 -133.167 -101.001 -183.5s-107.834 -89 -183.501 -116s-168.834 -40.5 -279.501 -40.5c-68 0 -132.167 3.16699 -192.5 9.5s-120.833 13.833 -181.5 22.5v1429h271zM448.003 197.999c27.333 -6 54.001 -10.667 80.001 -14s51 -5 75 -5c38.667 0 74.5 5 107.5 15
s61.5 26.667 85.5 50s42.667 54.333 56 93s20 87 20 145c0 56 -2.33301 107.5 -7 154.5s-14 87.5 -28 121.5s-34 60.5 -60 79.5s-60.333 28.5 -103 28.5c-26.667 0 -50.5 -4.83301 -71.5 -14.5s-40.5 -23 -58.5 -40s-34.833 -37.167 -50.5 -60.5s-30.834 -49 -45.501 -77
v-476z" />
    <glyph glyph-name="c" unicode="c" horiz-adv-x="1063" 
d="M981 39c-27.333 -10 -57.3291 -18.999 -89.9961 -26.999s-65.834 -14.667 -99.501 -20s-66.834 -9.33301 -99.501 -12s-62.667 -4 -90 -4c-96.667 0 -178.334 11.333 -245.001 34s-120.5 56.167 -161.5 100.5s-70.5 99.166 -88.5 164.499s-27 140.333 -27 225
c0 88.667 11.5 168 34.5 238s57.5 129 103.5 177s103.333 84.667 172 110s149 38 241 38c53.333 0 106.333 -4.16699 159 -12.5s103 -19.5 151 -33.5l-67 -198c-40 13.333 -78.833 24 -116.5 32s-75.834 12 -114.501 12c-51.333 0 -95.166 -8.5 -131.499 -25.5
s-66.166 -40.667 -89.499 -71s-40.5 -66.5 -51.5 -108.5s-16.5 -88 -16.5 -138c0 -116 20.167 -202.333 60.5 -259s107.166 -85 200.499 -85c57.333 0 110.166 6 158.499 18s96.5 26.333 144.5 43z" />
    <glyph glyph-name="d" unicode="d" horiz-adv-x="1225" 
d="M1058 1440l-0.000976562 -1101v-43c0 -52 1.66699 -98.833 5 -140.5s10.666 -83.834 21.999 -126.501c-21.333 -6 -42 -11.5 -62 -16.5s-39.833 -9.66699 -59.5 -14s-39.5 -8.33301 -59.5 -12s-41 -7.16699 -63 -10.5c-5.33301 14 -9.83301 27.333 -13.5 40
s-7 26.334 -10 41.001s-5.5 30.667 -7.5 48s-3.66699 37.666 -5 60.999h-11c-77.333 -126.667 -186.666 -190 -327.999 -190c-70 0 -129 13.667 -177 41s-86.833 64.166 -116.5 110.499s-51 100 -64 161s-19.5 125.5 -19.5 193.5c0 96 12.833 180.167 38.5 252.5
s61.834 132.833 108.501 181.5s102.5 85.334 167.5 110.001s136.833 37 215.5 37c28.667 0 56.5 -1.33301 83.5 -4s54.167 -6 81.5 -10v391h274zM786.999 843.001c-53.333 13.333 -103 19.999 -149 19.999c-39.333 0 -75.833 -5.33301 -109.5 -16s-62.834 -28 -87.501 -52
s-43.834 -55 -57.501 -93s-20.5 -84.333 -20.5 -139c0 -56.667 2.16699 -108.667 6.5 -156s13.5 -88.166 27.5 -122.499s34 -61 60 -80s60.667 -28.5 104 -28.5c31.333 0 58.833 6.33301 82.5 19s45.167 30.334 64.5 53.001c14.667 16 28.334 34.167 41.001 54.5
s25.334 42.166 38.001 65.499v475z" />
    <glyph glyph-name="e" unicode="e" horiz-adv-x="1202" 
d="M1029 47c-27.333 -11.333 -57.167 -21.3311 -89.5 -29.998s-66.166 -16 -101.499 -22s-71.166 -10.667 -107.499 -14s-71.833 -5 -106.5 -5c-175.333 0 -307.833 42.167 -397.5 126.5s-134.5 213.5 -134.5 387.5c0 77.333 9 150.666 27 219.999
s47.167 130.166 87.5 182.499s93.333 93.833 159 124.5s146.167 46 241.5 46c166.667 0 291 -44.167 373 -132.5s123 -223.166 123 -404.499v-79h-739c1.33301 -45.333 6.66602 -85.333 15.999 -120s24.833 -63.834 46.5 -87.501s50.167 -41.667 85.5 -54
s79.666 -18.5 132.999 -18.5c46.667 0 97 5.83301 151 17.5s110.333 28.5 169 50.5zM828.999 625.002c-4.66699 164.667 -78.667 247 -222 247c-74 0 -130.167 -21.333 -168.5 -64s-61.833 -103.667 -70.5 -183h461z" />
    <glyph glyph-name="f" unicode="f" horiz-adv-x="1016" 
d="M277 1078c0 70 5.83398 130.332 17.501 180.999s31.334 92.167 59.001 124.5s64.667 56.333 111 72s104.166 23.5 173.499 23.5c54 0 112.667 -4.33301 176 -13s130.666 -20.334 201.999 -35.001l-43 -190c-60 11.333 -111.833 20.5 -155.5 27.5
s-82.167 10.5 -115.5 10.5c-32.667 0 -59 -2.83301 -79 -8.5s-35.333 -16.167 -46 -31.5s-17.667 -36.666 -21 -63.999s-5 -62.666 -5 -105.999v-29h334v-200h-334v-640h334v-200h-782v200h174v640h-174v200h174v38z" />
    <glyph glyph-name="g" unicode="g" horiz-adv-x="1232" 
d="M837 1041c32 0 59.3369 0.335938 82.0039 1.00293s44.334 2.33398 65.001 5.00098s42.334 6.66699 65.001 12s50 12.333 82 21l31 -95.5c10.667 -33 20.667 -65.833 30 -98.5c-22 -8 -42.167 -14.667 -60.5 -20s-36 -9.83301 -53 -13.5s-33.667 -6.33398 -50 -8.00098
s-33.833 -2.83398 -52.5 -3.50098c12.667 -28.667 21.334 -56.834 26.001 -84.501s7 -56.834 7 -87.501c0 -64 -9.66699 -119.833 -29 -167.5s-47 -88.167 -83 -121.5c-22 -20 -47 -36.667 -75 -50s-57.333 -24.166 -88 -32.499s-61.834 -14.166 -93.501 -17.499
s-62.167 -5 -91.5 -5c-54 0 -103.333 4 -148 12c-11.333 -32 -17 -57.333 -17 -76c0 -12.667 2.5 -23.5 7.5 -32.5s13.167 -16.833 24.5 -23.5c17.333 -9.33301 38.166 -15.333 62.499 -18s51.166 -4 80.499 -4h33.5c13.667 0 27.834 0.166992 42.501 0.5
s28.834 0.5 42.501 0.5h35.5c53.333 0 101.666 -4.83301 144.999 -14.5s80.5 -25.167 111.5 -46.5s55 -49.666 72 -84.999s25.5 -78.333 25.5 -129c0 -58 -14.167 -106.833 -42.5 -146.5s-65.833 -71.834 -112.5 -96.501s-100 -42.5 -160 -53.5s-122 -16.5 -186 -16.5
c-46 0 -91.833 2.5 -137.5 7.5s-89.834 11.5 -132.501 19.5c-33.333 6.66699 -64.833 14.167 -94.5 22.5s-57.167 17.166 -82.5 26.499c8.66699 20.667 21.5 47 38.5 79l56.5 103c68 -24 132.667 -41.667 194 -53s117.333 -17 168 -17c31.333 0 60.666 2 87.999 6
s51 10.667 71 20s35.833 21.833 47.5 37.5s17.5 35.5 17.5 59.5c0 18.667 -4 33.5 -12 44.5s-19 19.5 -33 25.5s-30.5 9.83301 -49.5 11.5s-39.5 2.5 -61.5 2.5c-9.33301 0 -19 -0.166992 -29 -0.5s-20 -0.5 -30 -0.5h-32c-30.667 0 -61.167 0.5 -91.5 1.5
s-59.5 3.83301 -87.5 8.5s-54 11.5 -78 20.5s-44.833 21.333 -62.5 37s-31.667 35.334 -42 59.001s-15.5 52.167 -15.5 85.5c0 32.667 6.33301 65.834 19 99.501s28.667 67.167 48 100.5c-18 12 -35.833 27.667 -53.5 47s-33.334 42.166 -47.001 68.499
s-24.667 56.166 -33 89.499s-12.5 70.666 -12.5 111.999c0 62.667 9.83301 118.167 29.5 166.5s47.5 89.5 83.5 123.5c21.333 20 45.333 36.667 72 50s54.667 24 84 32s59.666 13.667 90.999 17s62 5 92 5c38 0 73.667 -2.16699 107 -6.5s62.666 -9.5 87.999 -15.5h93z
M553.004 878.003c-58.667 0 -105 -17.667 -139 -53s-51 -87.333 -51 -156c0 -70.667 17.167 -123.167 51.5 -157.5s80.5 -51.5 138.5 -51.5c58.667 0 105 17.667 139 53s51 87.333 51 156c0 69.333 -17.5 121.5 -52.5 156.5s-80.833 52.5 -137.5 52.5z" />
    <glyph glyph-name="h" unicode="h" horiz-adv-x="1259" 
d="M447 1440l0.00195312 -578.001h7c20.667 30.667 42 58.334 64 83.001s46.5 45.834 73.5 63.501s56.833 31.167 89.5 40.5s69.667 14 111 14c79.333 0 143.166 -15.833 191.499 -47.5s84.166 -79.834 107.499 -144.501c12.667 -34.667 21.834 -73.667 27.501 -117
s8.5 -92 8.5 -146v-608h-274v687c0 54 -12.667 96.833 -38 128.5s-61.666 47.5 -108.999 47.5c-26.667 0 -52.667 -6.66699 -78 -20s-49.333 -30 -72 -50s-43.334 -42 -62.001 -66s-34.334 -47 -47.001 -69v-658h-275v1440h275z" />
    <glyph glyph-name="i" unicode="i" horiz-adv-x="637" 
d="M319 1547c22.667 0 44.167 -4.33301 64.5 -13s38 -20.5 53 -35.5s26.833 -32.667 35.5 -53s13 -41.833 13 -64.5c0 -23.333 -4.33301 -45 -13 -65s-20.5 -37.667 -35.5 -53s-32.667 -27.333 -53 -36s-41.833 -13 -64.5 -13c-23.333 0 -45 4.33301 -65 13
s-37.667 20.667 -53 36s-27.333 33 -36 53s-13 41.667 -13 65c0 22.667 4.33301 44.167 13 64.5s20.667 38 36 53s33 26.833 53 35.5s41.667 13 65 13zM455 1040v-1040h-274v1040h274z" />
    <glyph glyph-name="j" unicode="j" horiz-adv-x="760" 
d="M419 1547c22.667 0 44.167 -4.33301 64.5 -13s38 -20.5 53 -35.5s26.833 -32.667 35.5 -53s13 -41.833 13 -64.5c0 -23.333 -4.33301 -45 -13 -65s-20.5 -37.667 -35.5 -53s-32.667 -27.333 -53 -36s-41.833 -13 -64.5 -13c-23.333 0 -45 4.33301 -65 13
s-37.667 20.667 -53 36s-27.333 33 -36 53s-13 41.667 -13 65c0 22.667 4.33301 44.167 13 64.5s20.667 38 36 53s33 26.833 53 35.5s41.667 13 65 13zM556 1040l0.00292969 -896.002c0 -47.333 -1.83301 -90.166 -5.5 -128.499s-9.83398 -74.166 -18.501 -107.499
s-20.5 -64.833 -35.5 -94.5s-33.833 -58.834 -56.5 -87.501c-16.667 -21.333 -37 -45.5 -61 -72.5s-54.667 -58.833 -92 -95.5l-178 138l40 51c20.667 26.667 39.167 52.334 55.5 77.001s30.166 51.5 41.499 80.5s20.166 61.5 26.499 97.5s9.5 79 9.5 129v909h274z" />
    <glyph glyph-name="k" unicode="k" horiz-adv-x="1138" 
d="M441 1440v-761l417 384l152 -165l-370 -340l478 -558h-334l-343 415v-415h-274v1440h274z" />
    <glyph glyph-name="l" unicode="l" horiz-adv-x="513" 
d="M384 408c0 -55.333 0.50293 -101.667 1.50293 -139s2.83301 -70 5.5 -98c1.33301 -14.667 2.66602 -27.5 3.99902 -38.5l4 -32c1.33301 -10.333 3.16602 -20.666 5.49902 -30.999s5.16602 -21.833 8.49902 -34.5c-44 -13.333 -88 -24.833 -132 -34.5
s-89 -17.834 -135 -24.501c-10 30 -18.5 61.833 -25.5 95.5s-10.5 70.5 -10.5 110.5v1258h274v-1032z" />
    <glyph glyph-name="m" unicode="m" horiz-adv-x="1894" 
d="M1109 817c22 42.667 44.666 79.498 67.999 110.498s48.5 56.5 75.5 76.5s56.333 34.833 88 44.5s67.5 14.5 107.5 14.5c83.333 0 148.833 -19.5 196.5 -58.5s81.5 -95.833 101.5 -170.5c16.667 -62.667 25 -138 25 -226v-608h-274v686c0 26 -2.16699 48.833 -6.5 68.5
s-10.5 36.5 -18.5 50.5c-11.333 20.667 -26.5 35.5 -45.5 44.5s-41.167 13.5 -66.5 13.5c-24.667 0 -48.334 -6.5 -71.001 -19.5s-44.167 -29.5 -64.5 -49.5s-39.166 -42.333 -56.499 -67s-33 -48.667 -47 -72c0.666992 -7.33301 1 -14.666 1 -21.999v-23v-610h-274v686
c0 26 -2.16699 48.833 -6.5 68.5s-10.5 36.5 -18.5 50.5c-11.333 20.667 -26.5 35.5 -45.5 44.5s-41.167 13.5 -66.5 13.5c-24 0 -47 -6.5 -69 -19.5s-43 -29.5 -63 -49.5s-38.667 -42.333 -56 -67s-33 -48.667 -47 -72v-655h-274v641c0 38.667 -0.333008 74.834 -1 108.501
s-2 65.334 -4 95.001s-5 57.834 -9 84.501s-9.33301 52.667 -16 78c43.333 11.333 86.5 21.5 129.5 30.5s86.5 17.5 130.5 25.5c4.66699 -14 9 -27.833 13 -41.5s7.33301 -28.334 10 -44.001s5 -32.834 7 -51.501s4 -40 6 -64h13c21.333 32 42.833 60.5 64.5 85.5
s44.834 46 69.501 63s52 30 82 39s64 13.5 102 13.5c86 0 153.167 -21 201.5 -63s81.833 -103 100.5 -183h8z" />
    <glyph glyph-name="n" unicode="n" horiz-adv-x="1247" 
d="M448 862c22 33.333 44.8301 62.5039 68.4971 87.5039s49 46 76 63s56.667 29.667 89 38s68.166 12.5 107.499 12.5c44 0 83 -4.83301 117 -14.5s63.333 -23.667 88 -42s45.5 -41 62.5 -68s30.5 -57.5 40.5 -91.5c9.33301 -34 16.166 -70.833 20.499 -110.5
s6.5 -82.5 6.5 -128.5v-608h-274v687c0 57.333 -13.167 101 -39.5 131s-62.166 45 -107.499 45c-25.333 0 -50.166 -6 -74.499 -18s-47.833 -27.833 -70.5 -47.5s-43.667 -41.834 -63 -66.501s-36.666 -49.667 -51.999 -75v-656h-274v641c0 54 -0.5 99.167 -1.5 135.5
s-2.83301 68.5 -5.5 96.5c-1.33301 14 -2.66602 26.333 -3.99902 37s-2.83301 21 -4.5 31s-3.66699 20.167 -6 30.5s-5.16602 22.166 -8.49902 35.499c43.333 11.333 86.5 21.5 129.5 30.5s86.5 17.5 130.5 25.5c4.66699 -14 9 -27.833 13 -41.5s7.33301 -28.334 10 -44.001
s5 -32.834 7 -51.501s4 -40 6 -64h13z" />
    <glyph glyph-name="o" unicode="o" horiz-adv-x="1213" 
d="M609 1063c87.333 0 163 -13.667 227 -41s116.833 -65.166 158.5 -113.499s72.667 -105.666 93 -171.999s30.5 -138.5 30.5 -216.5s-10.167 -150.333 -30.5 -217s-51.333 -124.167 -93 -172.5s-94.5 -86.166 -158.5 -113.499s-139.667 -41 -227 -41s-163 13.667 -227 41
s-116.833 65.166 -158.5 113.499s-72.667 105.833 -93 172.5s-30.5 139 -30.5 217s10.167 150.167 30.5 216.5s51.333 123.666 93 171.999s94.5 86.166 158.5 113.499s139.667 41 227 41zM609 867c-48 0 -87.333 -9 -118 -27s-54.667 -42.667 -72 -74
s-29.166 -68.166 -35.499 -110.499s-9.5 -87.5 -9.5 -135.5c0 -48.667 3.16699 -94.167 9.5 -136.5s18.166 -79.166 35.499 -110.499s41.333 -56 72 -74s70 -27 118 -27s87.333 9 118 27s54.667 42.667 72 74s29.166 68.166 35.499 110.499s9.5 87.833 9.5 136.5
c0 48 -3.16699 93.167 -9.5 135.5s-18.166 79.166 -35.499 110.499s-41.333 56 -72 74s-70 27 -118 27z" />
    <glyph glyph-name="p" unicode="p" horiz-adv-x="1225" 
d="M431 873c77.333 126.667 186.669 190 328.002 190c70 0 129 -13.667 177 -41s86.833 -64.166 116.5 -110.499s51 -100 64 -161s19.5 -125.5 19.5 -193.5c0 -96 -12.833 -180.167 -38.5 -252.5s-61.834 -132.833 -108.501 -181.5s-102.5 -85.334 -167.5 -110.001
s-136.833 -37 -215.5 -37c-28.667 0 -56.5 1.33301 -83.5 4s-54.167 6 -81.5 10v-391h-273v1101c0 31.333 -0.166992 60.666 -0.5 87.999s-1.5 53.333 -3.5 78s-4.83301 48.834 -8.5 72.501s-8.83398 47.5 -15.501 71.5c42.667 12 83 22 121 30s79 15.667 123 23l13 -40
c4 -12.667 7.5 -26.334 10.5 -41.001s5.5 -30.667 7.5 -48s3.66699 -37.666 5 -60.999h11zM438.003 196c53.333 -13.333 103.002 -19.999 149.002 -19.999c39.333 0 75.833 5.33301 109.5 16s62.667 28 87 52s43.5 55 57.5 93s21 84.333 21 139
c0 56.667 -2.33301 108.667 -7 156s-14 88.166 -28 122.499s-34 61 -60 80s-60.333 28.5 -103 28.5c-31.333 0 -58.833 -6.33301 -82.5 -19s-45.167 -30.334 -64.5 -53.001c-14.667 -16 -28.334 -34.167 -41.001 -54.5s-25.334 -42.166 -38.001 -65.499v-475z" />
    <glyph glyph-name="q" unicode="q" horiz-adv-x="1246" 
d="M793 136c-38.667 -49.333 -83.1709 -88.333 -133.504 -117s-111.166 -43 -182.499 -43c-70 0 -129 13.667 -177 41s-86.833 64 -116.5 110s-51 99.333 -64 160s-19.5 124.667 -19.5 192c0 90.667 10.333 172 31 244s54.334 133.167 101.001 183.5s107.834 89 183.501 116
s168.834 40.5 279.501 40.5c68 0 132.167 -3.16699 192.5 -9.5s120.833 -13.833 181.5 -22.5v-1429h-271v534h-5zM797.996 844c-27.333 6 -53.999 10.667 -79.999 14s-51 5 -75 5c-39.333 0 -75.333 -5 -108 -15s-61 -26.667 -85 -50s-42.667 -54.333 -56 -93
s-20 -87 -20 -145c0 -56 2.16699 -107.5 6.5 -154.5s13.5 -87.5 27.5 -121.5s34 -60.5 60 -79.5s60.667 -28.5 104 -28.5c26.667 0 50.5 4.83301 71.5 14.5s40.5 23 58.5 40s34.667 37.167 50 60.5s30.666 49 45.999 77v476z" />
    <glyph glyph-name="r" unicode="r" horiz-adv-x="950" 
d="M455 862c24 35.333 46.333 64.333 67 87c20 22 41 40.167 63 54.5s44.167 26 66.5 35s44.833 15.333 67.5 19s45 5.5 67 5.5c18.667 0 36.834 -1.16699 54.501 -3.5s34.167 -5.16602 49.5 -8.49902c-2 -18.667 -4.66699 -38.5 -8 -59.5s-7 -42.167 -11 -63.5
s-8.5 -42.333 -13.5 -63s-10.167 -40 -15.5 -58l-99 18.5c-28 5 -53 7.5 -75 7.5c-20.667 0 -39.5 -2.83301 -56.5 -8.5s-33.833 -15.5 -50.5 -29.5s-33.834 -32.5 -51.501 -55.5s-37.5 -51.833 -59.5 -86.5v-653h-274v641c0 38.667 -0.333008 74.834 -1 108.501
s-2 65.334 -4 95.001s-5 57.834 -9 84.501s-9.33301 52.667 -16 78c43.333 11.333 86.5 21.666 129.5 30.999s86.5 17.666 130.5 24.999c4.66699 -14 9 -27.833 13 -41.5s7.33301 -28.334 10 -44.001s5 -32.834 7 -51.501s4 -40 6 -64h13z" />
    <glyph glyph-name="s" unicode="s" horiz-adv-x="1055" 
d="M536 1062c64 0 126.663 -5.66504 187.996 -16.998s115 -26.333 161 -45c-9.33301 -26.667 -20.166 -53.667 -32.499 -81s-24.833 -53.333 -37.5 -78c-34 11.333 -73.5 21 -118.5 29s-89.5 12 -133.5 12c-25.333 0 -49.5 -1.83301 -72.5 -5.5s-43 -9.5 -60 -17.5
s-30.5 -18.5 -40.5 -31.5s-15 -28.833 -15 -47.5c0 -26 6.5 -46.5 19.5 -61.5s30.333 -27.167 52 -36.5s46.834 -17 75.501 -23s58.667 -12.667 90 -20c48.667 -11.333 94.167 -25.666 136.5 -42.999s79 -39.5 110 -66.5s55 -60 72 -99s25.167 -85.833 24.5 -140.5
c-1.33301 -58.667 -15.166 -108 -41.499 -148s-61 -72.333 -104 -97s-92 -42.334 -147 -53.001s-111.167 -16 -168.5 -16c-38 0 -76 2 -114 6s-74.333 9.83301 -109 17.5s-67 16.667 -97 27s-56.333 21.833 -79 34.5c11.333 26 24 53 38 81s27.667 54 41 78
c18.667 -8 40.167 -15.833 64.5 -23.5s50 -14.334 77 -20.001s54.667 -10.334 83 -14.001s56.166 -5.5 83.499 -5.5c28 0 54.667 2.33301 80 7s47.5 12.167 66.5 22.5s34 24 45 41s16.5 37.833 16.5 62.5c0 28 -6.5 50.333 -19.5 67s-30.5 30 -52.5 40s-47.333 18 -76 24
l-89 18c-46.667 9.33301 -91 22.666 -133 39.999s-78.667 39.666 -110 66.999s-56.166 60.5 -74.499 99.5s-26.833 84.833 -25.5 137.5c0.666992 52 13.334 95.833 38.001 131.5s56.667 64.334 96 86.001s84.333 37.334 135 47.001s103 14.5 157 14.5z" />
    <glyph glyph-name="t" unicode="t" horiz-adv-x="961" 
d="M531 1278l-0.000976562 -238.001h350v-200h-350v-499c0 -32.667 1.5 -59.667 4.5 -81s8.5 -38.166 16.5 -50.499s19 -21 33 -26s32 -7.5 54 -7.5c21.333 0 46.166 2.33301 74.499 7s61.833 11.334 100.5 20.001l13.5 -42l15 -49.5l14.5 -49
c4.66699 -15.667 9 -29.5 13 -41.5c-18.667 -6.66699 -40.5 -12.834 -65.5 -18.501s-51.167 -10.5 -78.5 -14.5s-55 -7 -83 -9s-54.333 -3 -79 -3c-23.333 0 -46.333 1 -69 3s-44.167 5.5 -64.5 10.5s-39.166 11.5 -56.499 19.5s-32.333 18.333 -45 31
c-29.333 28.667 -48.666 68.167 -57.999 118.5s-14 114.5 -14 192.5v489h-150v200h150v238h274z" />
    <glyph glyph-name="u" unicode="u" horiz-adv-x="1258" 
d="M1100 1040l0.00488281 -642c0 -54 0.5 -99.167 1.5 -135.5s2.83301 -68.5 5.5 -96.5c1.33301 -14 2.66602 -26.333 3.99902 -37s2.83301 -21 4.5 -31s3.66699 -20.333 6 -31s5.16602 -22.334 8.49902 -35.001c-43.333 -11.333 -86.5 -21.5 -129.5 -30.5
s-86.5 -17.5 -130.5 -25.5c-5.33301 14 -9.83301 27.833 -13.5 41.5s-6.83398 28.334 -9.50098 44.001s-5 32.834 -7 51.501s-4 40 -6 64h-13c-22 -33.333 -44.833 -62.5 -68.5 -87.5s-49 -46 -76 -63s-56.667 -29.667 -89 -38s-68.166 -12.5 -107.499 -12.5
c-83.333 0 -148.833 16.833 -196.5 50.5s-82.167 81.5 -103.5 143.5c-12.667 36 -21.667 75.667 -27 119s-8 90.666 -8 141.999v609h274v-688c0 -57.333 13.167 -101 39.5 -131s62.166 -45 107.499 -45c25.333 0 50.166 6 74.499 18s47.833 27.667 70.5 47
s43.667 41.5 63 66.5s36.666 50.167 51.999 75.5v657h274z" />
    <glyph glyph-name="v" unicode="v" horiz-adv-x="1122" 
d="M1072 1040l-346 -1050h-330l-346 1050h286l225 -853l225 853h286z" />
    <glyph glyph-name="w" unicode="w" horiz-adv-x="1577" 
d="M1086 194l54.5 126.999c17.667 40 33.334 79.5 47.001 118.5s24.5 79 32.5 120s12 85.167 12 132.5c0 24 -1.33301 47 -4 69s-6.83398 45 -12.501 69s-12.667 50.167 -21 78.5s-18.5 60.833 -30.5 97.5c23.333 7.33301 45.666 14 66.999 20l63 17
c20.667 5.33301 41.334 10.333 62.001 15s42.667 9.33398 66 14.001c15.333 -32 28 -59.667 38 -83s18.333 -46 25 -68c7.33301 -22.667 12.833 -45.5 16.5 -68.5s5.5 -47.167 5.5 -72.5c0 -44 -4.83301 -88.833 -14.5 -134.5s-22.167 -91.834 -37.5 -138.501
c-16 -46.667 -34.667 -93.167 -56 -139.5s-43.5 -91.666 -66.5 -135.999l-69.5 -128.5l-66 -117h-320l-94 364l-152 -364h-316l-270 1055h267l212 -847l189 441l-106 406h272z" />
    <glyph glyph-name="x" unicode="x" horiz-adv-x="1259" 
d="M302 1063l323 -373l276 351h278l-410 -517l335 -395l-199 -153l-297 343l-250 -319h-278l385 486l-362 424z" />
    <glyph glyph-name="y" unicode="y" horiz-adv-x="1286" 
d="M1113 1040l0.00292969 -1032c0 -78 -12.5 -144.167 -37.5 -198.5s-60.333 -98.5 -106 -132.5s-100.334 -58.667 -164.001 -74s-133.834 -23 -210.501 -23c-59.333 0 -119.5 5.16699 -180.5 15.5s-117.5 25.833 -169.5 46.5l43 98l45 96
c48 -15.333 96.667 -28.5 146 -39.5s97 -16.5 143 -16.5c13.333 0 27.833 0.5 43.5 1.5s31.5 3.5 47.5 7.5s31.667 10.167 47 18.5s28.833 19.666 40.5 33.999s21.167 32.333 28.5 54s11.333 47.834 12 78.501v203h-9c-22 -33.333 -44.833 -62.5 -68.5 -87.5
s-49.167 -46 -76.5 -63s-57.333 -29.667 -90 -38s-69 -12.5 -109 -12.5c-65.333 0 -119.333 10.333 -162 31s-77 50.334 -103 89.001c-25.333 40 -43.333 88 -54 144s-16 119.667 -16 191v609h274v-688c0 -57.333 13.333 -101 40 -131s63.334 -45 110.001 -45
c25.333 0 50.166 6 74.499 18s47.833 27.667 70.5 47s43.667 41.5 63 66.5s36.666 50.167 51.999 75.5v657h276z" />
    <glyph glyph-name="z" unicode="z" horiz-adv-x="1091" 
d="M402 840c-31.333 0 -59.002 0.500977 -83.002 1.50098s-47.167 3 -69.5 6s-45 7.5 -68 13.5s-49.167 14.333 -78.5 25c9.33301 32.667 19.333 65.5 30 98.5l31 95.5c32 -8.66699 59.333 -15.667 82 -21s44.334 -9.33301 65.001 -12s42.334 -4.33398 65.001 -5.00098
s50 -1 82 -1h508v-151l-495 -690h504v-200h-846v151l494 689h-221z" />
    <glyph glyph-name="braceleft" unicode="{" horiz-adv-x="795" 
d="M633 1564v-173c-42 0 -75 -3.5 -99 -10.5s-42.667 -18.167 -56 -33.5s-22 -34 -26 -56s-6 -47.333 -6 -76v-295c0 -44.667 -7 -82.167 -21 -112.5s-32.333 -58.833 -55 -85.5c23.333 -28 41.833 -57.167 55.5 -87.5s20.5 -67.166 20.5 -110.499v-295
c0 -28.667 2 -54 6 -76s12.667 -40.667 26 -56s32 -26.5 56 -33.5s57 -10.5 99 -10.5v-173h-100c-64.667 0 -118.334 6.83301 -161.001 20.5s-76.667 32.167 -102 55.5c-26 23.333 -44.333 50.5 -55 81.5s-16 64.5 -16 100.5v386c0 40 -9 75.5 -27 106.5
s-41.333 61.5 -70 91.5c30 32 53.667 63.167 71 93.5s26 65.166 26 104.499v386c0 36 5.33301 69.5 16 100.5s29 58.167 55 81.5c25.333 23.333 59.333 41.833 102 55.5s96.334 20.5 161.001 20.5h100z" />
    <glyph glyph-name="bar" unicode="|" horiz-adv-x="695" 
d="M465 1571v-1702h-235v1702h235z" />
    <glyph glyph-name="braceright" unicode="}" horiz-adv-x="795" 
d="M262 1564c64.667 0 118.334 -6.83301 161.001 -20.5s76.667 -32.167 102 -55.5c26 -23.333 44.333 -50.5 55 -81.5s16 -64.5 16 -100.5v-386c0 -40 9 -75.5 27 -106.5s41.333 -61.5 70 -91.5c-30 -32 -53.667 -63.167 -71 -93.5s-26 -65.166 -26 -104.499v-386
c0 -36 -5.33301 -69.5 -16 -100.5s-29 -58.167 -55 -81.5c-25.333 -23.333 -59.333 -41.833 -102 -55.5s-96.334 -20.5 -161.001 -20.5h-100v173c42 0 75 3.5 99 10.5s42.667 18.167 56 33.5s22 34 26 56s6 47.333 6 76v295c0 44.667 7 82.167 21 112.5
s32.333 58.833 55 85.5c-23.333 28 -41.833 57.167 -55.5 87.5s-20.5 67.166 -20.5 110.499v295c0 28.667 -2 54 -6 76s-12.667 40.667 -26 56s-32 26.5 -56 33.5s-57 10.5 -99 10.5v173h100z" />
    <glyph glyph-name="asciitilde" unicode="~" horiz-adv-x="1145" 
d="M121 568c40.667 48 83.168 81.833 127.501 101.5s86.5 29.5 126.5 29.5c48.667 0 92.667 -4.66699 132 -14s76.166 -19.5 110.499 -30.5s67.5 -21 99.5 -30s65 -13.5 99 -13.5c28 0 55.833 6.16699 83.5 18.5s57.167 34.5 88.5 66.5l90 -136
c-37.333 -48.667 -76.833 -82.667 -118.5 -102s-82.5 -29 -122.5 -29h-13c-52 0 -99 4.5 -141 13.5s-80.5 19 -115.5 30l-97.5 30.5c-30 9.33301 -59 14 -87 14s-55.833 -6.16699 -83.5 -18.5s-57.167 -34.5 -88.5 -66.5z" />
    <glyph glyph-name="uni00A0" unicode="&#xa0;" horiz-adv-x="570" 
 />
    <glyph glyph-name="exclamdown" unicode="&#xa1;" horiz-adv-x="641" 
d="M290 1062c19.333 0 37.498 -3.66797 54.498 -11.001s32 -17.5 45 -30.5s23.167 -28 30.5 -45s11 -35.167 11 -54.5c0 -20.667 -3.83301 -39.667 -11.5 -57s-18 -32.166 -31 -44.499s-28 -22 -45 -29s-34.833 -10.5 -53.5 -10.5c-21.333 0 -40.666 3.66699 -57.999 11
s-32.166 17.5 -44.499 30.5s-21.833 28 -28.5 45s-10 35.167 -10 54.5s3.66699 37.5 11 54.5s17.5 32 30.5 45s28 23.167 45 30.5s35.167 11 54.5 11zM510.998 -309.001c-24 -36 -54.167 -63.167 -90.5 -81.5s-73.166 -27.5 -110.499 -27.5
c-23.333 0 -45.833 3.83301 -67.5 11.5s-40.834 19.167 -57.501 34.5s-30 34.833 -40 58.5s-15 51.167 -15 82.5l41 851l219 34l40 -796z" />
    <glyph glyph-name="cent" unicode="&#xa2;" horiz-adv-x="1106" 
d="M903 1340l-61.0029 -260.995c24.667 -4 48.834 -8.83301 72.501 -14.5s46.834 -11.834 69.501 -18.501l-65 -187c-21.333 7.33301 -42 13.666 -62 18.999s-39.667 9.66602 -59 12.999l-170 -723c34.667 0 67 1.83301 97 5.5s58.667 8.66699 86 15s53.833 13.5 79.5 21.5
l77.5 25l58 -192c-32.667 -12 -67.5 -22.333 -104.5 -31s-73.667 -15.667 -110 -21s-71 -9.16602 -104 -11.499s-61.833 -3.5 -86.5 -3.5h-20.5c-6.33301 0 -12.166 0.333008 -17.499 1l-46 -197h-222l54 231c-54 17.333 -99.5 41.166 -136.5 71.499
s-67.167 66.666 -90.5 108.999s-40.166 90.666 -50.499 144.999s-15.5 114.166 -15.5 179.499c0 99.333 13.5 185.833 40.5 259.5s66.833 134.834 119.5 183.501c91.333 84.667 220.666 130 387.999 136l57 245h222zM575.997 893.005
c-26 -6.66699 -51.833 -17.335 -77.5 -32.002s-48.5 -35.667 -68.5 -63s-36.167 -62.166 -48.5 -104.499s-18.5 -94.166 -18.5 -155.499c0 -127.333 21.333 -220.333 64 -279z" />
    <glyph glyph-name="sterling" unicode="&#xa3;" horiz-adv-x="1140" 
d="M294 1064c0 64.667 5 121.499 15 170.499s27.667 90.5 53 124.5c19.333 25.333 42.666 44.833 69.999 58.5s55.833 23.667 85.5 30s59 10 88 11s54.5 1.5 76.5 1.5c51.333 0 106.333 -3.66699 165 -11s122.334 -18 191.001 -32l-33 -202
c-56.667 12 -108 21.833 -154 29.5s-86.333 11.5 -121 11.5c-32 0 -59 -3.66699 -81 -11s-38.667 -19.666 -50 -36.999c-12.667 -18.667 -20.167 -42 -22.5 -70s-3.5 -61.333 -3.5 -100v-112h343v-205h-343v-516h551v-205h-830v721h-174v205h174v138z" />
    <glyph glyph-name="yen" unicode="&#xa5;" horiz-adv-x="1430" 
d="M1350 1438l-409 -652h177v-170h-263v-144h263v-170h-263v-302h-280v302h-263v170h263v144h-263v170h177l-409 652h304l331 -603l331 603h304z" />
    <glyph glyph-name="brokenbar" unicode="&#xa6;" horiz-adv-x="695" 
d="M465 1571v-670h-235v670h235zM465 539v-670h-235v670h235z" />
    <glyph glyph-name="section" unicode="&#xa7;" horiz-adv-x="1050" 
d="M534 1482c67.333 0 130.164 -4.99609 188.497 -14.9961s112.5 -26 162.5 -48c-9.33301 -26.667 -19.5 -52.834 -30.5 -78.501s-22.833 -50.834 -35.5 -75.501c-26 6.66699 -49.833 12.5 -71.5 17.5s-42.667 9 -63 12s-40.666 5.33301 -60.999 7s-42.166 2.5 -65.499 2.5
s-46 -1.5 -68 -4.5s-41.5 -8.33301 -58.5 -16s-30.667 -18.167 -41 -31.5s-15.5 -30 -15.5 -50c0 -26 6.5 -46.667 19.5 -62s30.333 -27.833 52 -37.5s46.834 -17.667 75.501 -24l90 -20.5c48.667 -11.333 94.167 -25.666 136.5 -42.999s79 -39.5 110 -66.5s55 -60 72 -99
s25.167 -85.833 24.5 -140.5c-1.33301 -45.333 -8.66602 -84.166 -21.999 -116.499s-31.333 -60.166 -54 -83.499c24.667 -26 43.834 -57 57.501 -93s19.834 -78 18.501 -126c-0.666992 -44 -7.66699 -82.333 -21 -115s-31.333 -60.667 -54 -84s-48.834 -42.333 -78.501 -57
s-61.167 -26.334 -94.5 -35.001s-67.833 -14.667 -103.5 -18s-70.5 -5 -104.5 -5c-76.667 0 -149 6.83301 -217 20.5s-130.333 35.167 -187 64.5c11.333 26 23.5 51.5 36.5 76.5l39.5 73.5c26 -9.33301 51 -17.5 75 -24.5s48.333 -12.833 73 -17.5
s50.5 -8.33398 77.5 -11.001s57.167 -4 90.5 -4c31.333 0 59.5 2 84.5 6s46.333 11 64 21s31.167 23.833 40.5 41.5s14 40.167 14 67.5c0 28 -6.5 50.333 -19.5 67s-30.5 30 -52.5 40s-47.333 18 -76 24l-89 18c-46.667 9.33301 -91.167 22.666 -133.5 39.999
s-79.333 39.666 -111 66.999s-56.5 60.5 -74.5 99.5s-26 84.833 -24 137.5c1.33301 40 10.166 75.5 26.499 106.5s38.5 57.833 66.5 80.5c-28.667 26 -51.334 56.667 -68.001 92s-25 77 -25 125v15c2 47.333 14.333 88.666 37 123.999s53 64.5 91 87.5
s82.333 40.167 133 51.5s105 17 163 17zM428.998 863.004c-13.333 -6.66699 -25.668 -16.501 -37.001 -29.501s-17 -29.833 -17 -50.5c0 -26 6.5 -46.667 19.5 -62s30.333 -27.833 52 -37.5s46.834 -17.667 75.501 -24l90 -20.5c9.33301 -2 18.333 -4.16699 27 -6.5
s17.334 -4.83301 26.001 -7.5c16.667 20.667 25 48.667 25 84c0 28.667 -6.83301 51.334 -20.5 68.001s-31.834 30 -54.501 40c-13.333 6 -29.5 11.333 -48.5 16s-37.667 9 -56 13l-50 10.5c-15 3 -25.5 5.16699 -31.5 6.5z" />
    <glyph glyph-name="dieresis" unicode="&#xa8;" horiz-adv-x="986" 
d="M254 1456c18.667 0 36.3311 -3.66406 52.998 -10.9971s31.334 -17.333 44.001 -30s22.667 -27.334 30 -44.001s11 -34.334 11 -53.001c0 -19.333 -3.66699 -37.5 -11 -54.5s-17.166 -31.833 -29.499 -44.5s-27 -22.667 -44 -30s-34.833 -11 -53.5 -11
c-19.333 0 -37.666 3.66699 -54.999 11s-32.5 17.333 -45.5 30s-23.167 27.5 -30.5 44.5s-11 35.167 -11 54.5c0 18.667 3.66699 36.5 11 53.5s17.5 31.667 30.5 44s28.167 22.166 45.5 29.499s35.666 11 54.999 11zM735.997 1456
c18.667 0 36.3311 -3.66406 52.998 -10.9971s31.334 -17.333 44.001 -30s22.667 -27.334 30 -44.001s11 -34.334 11 -53.001c0 -19.333 -3.66699 -37.5 -11 -54.5s-17.166 -31.833 -29.499 -44.5s-27 -22.667 -44 -30s-34.833 -11 -53.5 -11
c-19.333 0 -37.666 3.66699 -54.999 11s-32.5 17.333 -45.5 30s-23.167 27.5 -30.5 44.5s-11 35.167 -11 54.5c0 18.667 3.66699 36.5 11 53.5s17.5 31.667 30.5 44s28.167 22.166 45.5 29.499s35.666 11 54.999 11z" />
    <glyph glyph-name="copyright" unicode="&#xa9;" horiz-adv-x="1649" 
d="M823 1233c100.667 0 195.167 -19 283.5 -57s165.5 -90 231.5 -156s118 -143.167 156 -231.5s57 -182.833 57 -283.5c0 -66.667 -8.66699 -131 -26 -193s-41.833 -119.833 -73.5 -173.5s-69.667 -102.667 -114 -147s-93.333 -82.333 -147 -114
s-111.667 -56.167 -174 -73.5s-126.833 -26 -193.5 -26s-131 8.66699 -193 26s-119.833 41.833 -173.5 73.5s-102.667 69.667 -147 114s-82.333 93.333 -114 147s-56.167 111.5 -73.5 173.5s-26 126.333 -26 193c0 67.333 8.66699 132 26 194s41.833 119.833 73.5 173.5
s69.667 102.667 114 147s93.333 82.333 147 114s111.5 56.167 173.5 73.5s126.333 26 193 26zM824 1069c-78 0 -151.167 -14.833 -219.5 -44.5s-128 -70 -179 -121s-91.333 -110.667 -121 -179s-44.5 -141.5 -44.5 -219.5c0 -77.333 14.833 -150.166 44.5 -218.499
s70 -128 121 -179s110.667 -91.333 179 -121s141.5 -44.5 219.5 -44.5c77.333 0 150.166 14.833 218.499 44.5s128 70 179 121s91.333 110.667 121 179s44.5 141.166 44.5 218.499c0 78 -14.833 151.167 -44.5 219.5s-70 128 -121 179s-110.667 91.333 -179 121
s-141.166 44.5 -218.499 44.5zM1097 185c-18.667 -7.33301 -39.1641 -13.832 -61.4971 -19.499s-45 -10.334 -68 -14.001s-46 -6.5 -69 -8.5s-44.167 -3 -63.5 -3c-68 0 -125.333 7.83301 -172 23.5s-84.334 38.5 -113.001 68.5s-49.334 67.167 -62.001 111.5
s-19 95.166 -19 152.499c0 128.667 33 224.834 99 288.501s162 95.5 288 95.5c36.667 0 73.167 -3 109.5 -9s70.833 -13.667 103.5 -23l-42 -124c-30 8.66699 -57.833 15.834 -83.5 21.501s-52.5 8.5 -80.5 8.5c-16 0 -30.5 -1.16699 -43.5 -3.5
s-26.167 -6.16602 -39.5 -11.499c-40.667 -14 -70.834 -40.333 -90.501 -79s-29.5 -88 -29.5 -148c0 -66.667 8.16699 -118.834 24.5 -156.501s41.833 -62.167 76.5 -73.5c13.333 -5.33301 26.333 -9.33301 39 -12s27 -4 43 -4c40.667 0 78.167 4.66699 112.5 14
s68.5 19.666 102.5 30.999z" />
    <glyph glyph-name="guillemotleft" unicode="&#xab;" horiz-adv-x="1360" 
d="M613 959l100 -99l-340 -342l341 -344l-101 -99l-443 443zM1089 959l100 -99l-340 -342l341 -344l-101 -99l-443 443z" />
    <glyph glyph-name="logicalnot" unicode="&#xac;" horiz-adv-x="1286" 
d="M1101 655v-501h-200v311h-716v190h916z" />
    <glyph glyph-name="uni00AD" unicode="&#xad;" horiz-adv-x="1224" 
d="M1020 657v-190h-816v190h816z" />
    <glyph glyph-name="registered" unicode="&#xae;" horiz-adv-x="1649" 
d="M823 1233c100.667 0 195.167 -19 283.5 -57s165.5 -90 231.5 -156s118 -143.167 156 -231.5s57 -182.833 57 -283.5c0 -66.667 -8.66699 -131 -26 -193s-41.833 -119.833 -73.5 -173.5s-69.667 -102.667 -114 -147s-93.333 -82.333 -147 -114
s-111.667 -56.167 -174 -73.5s-126.833 -26 -193.5 -26s-131 8.66699 -193 26s-119.833 41.833 -173.5 73.5s-102.667 69.667 -147 114s-82.333 93.333 -114 147s-56.167 111.5 -73.5 173.5s-26 126.333 -26 193c0 67.333 8.66699 132 26 194s41.833 119.833 73.5 173.5
s69.667 102.667 114 147s93.333 82.333 147 114s111.5 56.167 173.5 73.5s126.333 26 193 26zM824 1069c-78 0 -151.167 -14.833 -219.5 -44.5s-128 -70 -179 -121s-91.333 -110.667 -121 -179s-44.5 -141.5 -44.5 -219.5c0 -77.333 14.833 -150.166 44.5 -218.499
s70 -128 121 -179s110.667 -91.333 179 -121s141.5 -44.5 219.5 -44.5c77.333 0 150.166 14.833 218.499 44.5s128 70 179 121s91.333 110.667 121 179s44.5 141.166 44.5 218.499c0 78 -14.833 151.167 -44.5 219.5s-70 128 -121 179s-110.667 91.333 -179 121
s-141.166 44.5 -218.499 44.5zM875 872c34.667 0 67.1641 -3.83203 97.4971 -11.499s56.833 -19.5 79.5 -35.5s40.334 -36.333 53.001 -61s19 -54 19 -88c0 -30.667 -5.16699 -57.834 -15.5 -81.501s-24.5 -44 -42.5 -61s-39.167 -30.5 -63.5 -40.5s-50.5 -16.333 -78.5 -19
c10.667 -7.33301 21.334 -15.333 32.001 -24s22.667 -20.667 36 -36l21.5 -27l32.5 -43l54 -73l86 -116h-209c-45.333 66 -80.5 119 -105.5 159s-45 70.667 -60 92s-27.167 35.5 -36.5 42.5s-20.666 10.833 -33.999 11.5h-1v-305h-188v717h323zM807.997 578.001
c43.333 0 75.5 5.99902 96.5 17.999s31.5 35.333 31.5 70s-10.667 57.834 -32 69.501s-53.333 17.5 -96 17.5h-68v-175h68z" />
    <glyph glyph-name="macron" unicode="&#xaf;" horiz-adv-x="623" 
d="M614 1408v-171h-605v171h605z" />
    <glyph glyph-name="degree" unicode="&#xb0;" horiz-adv-x="799" 
d="M399 1518c42 0 81.333 -7.66699 118 -23s68.5 -36.5 95.5 -63.5s48.167 -58.833 63.5 -95.5s23 -76 23 -118s-7.66699 -81.167 -23 -117.5s-36.5 -68 -63.5 -95s-58.833 -48.167 -95.5 -63.5s-76 -23 -118 -23s-81.167 7.66699 -117.5 23s-68 36.5 -95 63.5
s-48.167 58.667 -63.5 95s-23 75.5 -23 117.5s7.66699 81.333 23 118s36.5 68.5 63.5 95.5s58.667 48.167 95 63.5s75.5 23 117.5 23zM399 1368c-21.333 0 -41 -3.83301 -59 -11.5s-33.833 -18.167 -47.5 -31.5s-24.334 -29.166 -32.001 -47.499
s-11.5 -38.166 -11.5 -59.499s3.83301 -41 11.5 -59s18.334 -33.833 32.001 -47.5s29.5 -24.334 47.5 -32.001s37.667 -11.5 59 -11.5s41.166 3.83301 59.499 11.5s34.166 18.334 47.499 32.001s23.833 29.5 31.5 47.5s11.5 37.667 11.5 59s-3.83301 41.166 -11.5 59.499
s-18.167 34.166 -31.5 47.499s-29.166 23.833 -47.499 31.5s-38.166 11.5 -59.499 11.5z" />
    <glyph glyph-name="plusminus" unicode="&#xb1;" horiz-adv-x="1218" 
d="M704 1021v-363h363v-190h-363v-363h-190v363h-363v190h363v363h190zM1067 -84v-190h-916v190h916z" />
    <glyph glyph-name="acute" unicode="&#xb4;" horiz-adv-x="575" 
d="M247 1612c24 17.333 50.165 30.834 78.498 40.501s55.833 14.5 82.5 14.5c18.667 0 36.334 -2.5 53.001 -7.5s31.334 -12.833 44.001 -23.5s22.667 -23.834 30 -39.501s11 -34.167 11 -55.5c0 -25.333 -3.66699 -49.5 -11 -72.5s-18.5 -47.833 -33.5 -74.5
s-33.833 -57 -56.5 -91l-79 -122h-156l95 262z" />
    <glyph glyph-name="paragraph" unicode="&#xb6;" horiz-adv-x="600" 
 />
    <glyph glyph-name="periodcentered" unicode="&#xb7;" horiz-adv-x="582" 
d="M291 733c21.333 0 40.668 -3.66602 58.001 -10.999s32.166 -17.5 44.499 -30.5s21.833 -28 28.5 -45s10 -35.167 10 -54.5s-3.66699 -37.5 -11 -54.5s-17.5 -32 -30.5 -45s-28 -23.167 -45 -30.5s-35.167 -11 -54.5 -11s-37.5 3.66699 -54.5 11s-32 17.5 -45 30.5
s-23.167 28 -30.5 45s-11 35.167 -11 54.5c0 20.667 3.83301 39.667 11.5 57s18 32.166 31 44.499s28 22 45 29s34.833 10.5 53.5 10.5z" />
    <glyph glyph-name="cedilla" unicode="&#xb8;" horiz-adv-x="756" 
d="M421 0l-89.9961 -113.002c53.333 -17.333 91.166 -37.666 113.499 -60.999s33.5 -52.666 33.5 -87.999c0 -28 -5.66699 -52.333 -17 -73s-26.833 -37.834 -46.5 -51.501s-43.167 -23.834 -70.5 -30.501s-57 -10 -89 -10c-30 0 -60.5 3 -91.5 9s-61.833 14 -92.5 24
l54 101c26.667 -13.333 51.167 -23.666 73.5 -30.999s42.166 -11 59.499 -11c21.333 0 37.666 5.33301 48.999 16s17 27.334 17 50.001c0 24.667 -11.833 44.5 -35.5 59.5s-58.834 30.167 -105.501 45.5l100 164h138z" />
    <glyph glyph-name="guillemotright" unicode="&#xbb;" horiz-adv-x="1360" 
d="M271 959l443 -441l-443 -443l-101 99l341 344l-340 342zM747 959l443 -441l-443 -443l-101 99l341 344l-340 342z" />
    <glyph glyph-name="questiondown" unicode="&#xbf;" horiz-adv-x="1061" 
d="M665 1062c19.333 0 37.498 -3.66797 54.498 -11.001s32 -17.5 45 -30.5s23.167 -28 30.5 -45s11 -35.167 11 -54.5c0 -20.667 -3.83301 -39.667 -11.5 -57s-18 -32.166 -31 -44.499s-28 -22 -45 -29s-34.833 -10.5 -53.5 -10.5c-21.333 0 -40.666 3.66699 -57.999 11
s-32.166 17.5 -44.499 30.5s-21.833 28 -28.5 45s-10 35.167 -10 54.5s3.66699 37.5 11 54.5s17.5 32 30.5 45s28 23.167 45 30.5s35.167 11 54.5 11zM843.998 292.999c-81.333 -35.333 -151.171 -64.501 -209.504 -87.501s-106.166 -46 -143.499 -69
s-64.833 -48.5 -82.5 -76.5s-26.5 -64.333 -26.5 -109c0 -32 5 -58.5 15 -79.5s24 -37.5 42 -49.5s39.5 -20.5 64.5 -25.5s52.5 -7.5 82.5 -7.5c50 0 104 7.16699 162 21.5s114 32.833 168 55.5c7.33301 -34 13.833 -68.5 19.5 -103.5s10.834 -70.5 15.501 -106.5
c-62.667 -24.667 -126.834 -43.334 -192.501 -56.001s-129.5 -19 -191.5 -19c-71.333 0 -135.166 7 -191.499 21s-104.166 35.667 -143.499 65s-69.5 66.833 -90.5 112.5s-31.5 100.5 -31.5 164.5c0 57.333 9.33301 106.833 28 148.5s46.334 78.834 83.001 111.501
s82.167 62.834 136.5 90.501s116.833 56.5 187.5 86.5v239l239 40z" />
    <glyph glyph-name="Agrave" unicode="&#xc0;" horiz-adv-x="1454" 
d="M649 1578l-79.002 121.999c-22.667 34 -41.5 64.333 -56.5 91s-26.167 51.5 -33.5 74.5s-11 47.167 -11 72.5c0 21.333 3.66699 39.833 11 55.5s17.333 28.834 30 39.501s27.334 18.5 44.001 23.5s34.334 7.5 53.001 7.5c26.667 0 54.167 -4.83301 82.5 -14.5
s54.5 -23.167 78.5 -40.5l-58 -169l95 -262h-156zM864.998 1438l543 -1438h-282l-164 442h-474l-164 -442h-282l543 1438h280zM724.998 1141l-163 -498h326z" />
    <glyph glyph-name="Aacute" unicode="&#xc1;" horiz-adv-x="1454" 
d="M693 2009c24 17.333 50.165 30.834 78.498 40.501s55.833 14.5 82.5 14.5c18.667 0 36.334 -2.5 53.001 -7.5s31.334 -12.833 44.001 -23.5s22.667 -23.834 30 -39.501s11 -34.167 11 -55.5c0 -25.333 -3.66699 -49.5 -11 -72.5s-18.5 -47.833 -33.5 -74.5
s-33.833 -57 -56.5 -91l-79 -122h-156l95 262zM864.998 1438l543 -1438h-282l-164 442h-474l-164 -442h-282l543 1438h280zM724.998 1141l-163 -498h326z" />
    <glyph glyph-name="Acircumflex" unicode="&#xc2;" horiz-adv-x="1454" 
d="M727 1919l331 -254l-75 -87l-256 111l-256 -111l-75 87zM865 1438l543 -1438h-282l-164 442h-474l-164 -442h-282l543 1438h280zM725 1141l-163 -498h326z" />
    <glyph glyph-name="Atilde" unicode="&#xc3;" horiz-adv-x="1454" 
d="M1056 1805c-2.66699 -26.667 -9.33398 -53.333 -20.001 -80s-24.5 -50.834 -41.5 -72.501s-37 -39.167 -60 -52.5s-48.5 -20 -76.5 -20c-23.333 0 -46.166 3.66699 -68.499 11s-44.166 15.333 -65.499 24s-42.333 16.667 -63 24s-41 11 -61 11
c-24.667 0 -43.167 -7.16699 -55.5 -21.5s-21.5 -33.833 -27.5 -58.5h-119c2.66699 26.667 9.33398 53.334 20.001 80.001s24.5 50.667 41.5 72s37 38.833 60 52.5s48.5 20.5 76.5 20.5c23.333 0 46.166 -3.66699 68.499 -11s44.166 -15.333 65.499 -24
s42.333 -16.667 63 -24s41 -11 61 -11c24.667 0 43.167 7.16699 55.5 21.5s21.5 33.833 27.5 58.5h119zM865 1438l543 -1438h-282l-164 442h-474l-164 -442h-282l543 1438h280zM725 1141l-163 -498h326z" />
    <glyph glyph-name="Adieresis" unicode="&#xc4;" horiz-adv-x="1454" 
d="M488 1853c18.667 0 36.3311 -3.66406 52.998 -10.9971s31.334 -17.333 44.001 -30s22.667 -27.334 30 -44.001s11 -34.334 11 -53.001c0 -19.333 -3.66699 -37.5 -11 -54.5s-17.166 -31.833 -29.499 -44.5s-27 -22.667 -44 -30s-34.833 -11 -53.5 -11
c-19.333 0 -37.666 3.66699 -54.999 11s-32.5 17.333 -45.5 30s-23.167 27.5 -30.5 44.5s-11 35.167 -11 54.5c0 18.667 3.66699 36.5 11 53.5s17.5 31.667 30.5 44s28.167 22.166 45.5 29.499s35.666 11 54.999 11zM969.997 1853
c18.667 0 36.3311 -3.66406 52.998 -10.9971s31.334 -17.333 44.001 -30s22.667 -27.334 30 -44.001s11 -34.334 11 -53.001c0 -19.333 -3.66699 -37.5 -11 -54.5s-17.166 -31.833 -29.499 -44.5s-27 -22.667 -44 -30s-34.833 -11 -53.5 -11
c-19.333 0 -37.666 3.66699 -54.999 11s-32.5 17.333 -45.5 30s-23.167 27.5 -30.5 44.5s-11 35.167 -11 54.5c0 18.667 3.66699 36.5 11 53.5s17.5 31.667 30.5 44s28.167 22.166 45.5 29.499s35.666 11 54.999 11zM864.994 1438.01l543 -1438h-282l-164 442h-474
l-164 -442h-282l543 1438h280zM724.994 1141.01l-163 -498h326z" />
    <glyph glyph-name="Aring" unicode="&#xc5;" horiz-adv-x="1454" 
d="M727 1957c27.333 0 52.833 -5 76.5 -15s44.334 -23.833 62.001 -41.5s31.5 -38.334 41.5 -62.001s15 -49.167 15 -76.5s-5 -52.833 -15 -76.5s-23.833 -44.334 -41.5 -62.001s-38.334 -31.5 -62.001 -41.5s-49.167 -15 -76.5 -15s-52.833 5 -76.5 15
s-44.334 23.833 -62.001 41.5s-31.5 38.334 -41.5 62.001s-15 49.167 -15 76.5s5 52.833 15 76.5s23.833 44.334 41.5 62.001s38.334 31.5 62.001 41.5s49.167 15 76.5 15zM727 1845c-23.333 0 -43 -8 -59 -24s-24 -35.667 -24 -59s8 -43 24 -59s35.667 -24 59 -24
s43 8 59 24s24 35.667 24 59s-8 43 -24 59s-35.667 24 -59 24zM865 1438l543 -1438h-282l-164 442h-474l-164 -442h-282l543 1438h280zM725 1141l-163 -498h326z" />
    <glyph glyph-name="AE" unicode="&#xc6;" horiz-adv-x="1879" 
d="M1730 1438v-208h-581v-324h411v-208h-411v-490h602v-208h-881v442h-320l-232 -442h-318l794 1438h936zM870 1050l-215 -408h215v408z" />
    <glyph glyph-name="Ccedilla" unicode="&#xc7;" horiz-adv-x="1289" 
d="M781 -113c53.333 -17.333 91.1641 -37.668 113.497 -61.001s33.5 -52.666 33.5 -87.999c0 -28 -5.66699 -52.333 -17 -73s-26.833 -37.834 -46.5 -51.501s-43.167 -23.834 -70.5 -30.501s-57 -10 -89 -10c-30 0 -60.5 3 -91.5 9s-61.833 14 -92.5 24l54 101
c26.667 -13.333 51.167 -23.666 73.5 -30.999s42.166 -11 59.499 -11c21.333 0 37.666 5.33301 48.999 16s17 27.334 17 50.001c0 24.667 -11.833 44.5 -35.5 59.5s-58.834 30.167 -105.501 45.5l87 142c-110.667 6 -204.334 25 -281.001 57s-139 77.667 -187 137
s-82.833 132.666 -104.5 219.999s-32.5 189 -32.5 305c0 128 11.833 239.667 35.5 335s61.167 174.666 112.5 237.999s117.5 110.833 198.5 142.5s179.167 47.5 294.5 47.5c40.667 0 80.834 -2 120.501 -6s77.334 -9.33301 113.001 -16s69 -14.334 100 -23.001
s58.5 -17.667 82.5 -27l-66 -201c-47.333 17.333 -97.833 32.5 -151.5 45.5s-110.167 19.5 -169.5 19.5c-71.333 0 -131.666 -10.667 -180.999 -32s-89.166 -53.666 -119.499 -96.999s-52.166 -98 -65.499 -164s-20 -143.333 -20 -232c0 -94.667 7.33301 -176.167 22 -244.5
s38.334 -124.666 71.001 -168.999s75.5 -77 128.5 -98s117.5 -31.5 193.5 -31.5c58 0 116.167 5.33301 174.5 16s112.5 24.334 162.5 41.001l56 -201c-51.333 -17.333 -107.166 -31.333 -167.499 -42s-122.5 -17.667 -186.5 -21z" />
    <glyph glyph-name="Egrave" unicode="&#xc8;" horiz-adv-x="1191" 
d="M540 1571l-79.002 121.999c-22.667 34 -41.5 64.333 -56.5 91s-26.167 51.5 -33.5 74.5s-11 47.167 -11 72.5c0 21.333 3.66699 39.833 11 55.5s17.333 28.834 30 39.501s27.334 18.5 44.001 23.5s34.334 7.5 53.001 7.5c26.667 0 54.167 -4.83301 82.5 -14.5
s54.5 -23.167 78.5 -40.5l-58 -169l95 -262h-156zM1042 1438v-205h-581v-326h411v-205h-411v-497h602v-205h-881v1438h860z" />
    <glyph glyph-name="Eacute" unicode="&#xc9;" horiz-adv-x="1191" 
d="M584 2002c24 17.333 50.165 30.834 78.498 40.501s55.833 14.5 82.5 14.5c18.667 0 36.334 -2.5 53.001 -7.5s31.334 -12.833 44.001 -23.5s22.667 -23.834 30 -39.501s11 -34.167 11 -55.5c0 -25.333 -3.66699 -49.5 -11 -72.5s-18.5 -47.833 -33.5 -74.5
s-33.833 -57 -56.5 -91l-79 -122h-156l95 262zM1042 1438v-205h-581v-326h411v-205h-411v-497h602v-205h-881v1438h860z" />
    <glyph glyph-name="Ecircumflex" unicode="&#xca;" horiz-adv-x="1191" 
d="M618 1912l331 -254l-75 -87l-256 111l-256 -111l-75 87zM1042 1438v-205h-581v-326h411v-205h-411v-497h602v-205h-881v1438h860z" />
    <glyph glyph-name="Edieresis" unicode="&#xcb;" horiz-adv-x="1191" 
d="M379 1846c18.667 0 36.3311 -3.66406 52.998 -10.9971s31.334 -17.333 44.001 -30s22.667 -27.334 30 -44.001s11 -34.334 11 -53.001c0 -19.333 -3.66699 -37.5 -11 -54.5s-17.166 -31.833 -29.499 -44.5s-27 -22.667 -44 -30s-34.833 -11 -53.5 -11
c-19.333 0 -37.666 3.66699 -54.999 11s-32.5 17.333 -45.5 30s-23.167 27.5 -30.5 44.5s-11 35.167 -11 54.5c0 18.667 3.66699 36.5 11 53.5s17.5 31.667 30.5 44s28.167 22.166 45.5 29.499s35.666 11 54.999 11zM860.997 1846
c18.667 0 36.3311 -3.66406 52.998 -10.9971s31.334 -17.333 44.001 -30s22.667 -27.334 30 -44.001s11 -34.334 11 -53.001c0 -19.333 -3.66699 -37.5 -11 -54.5s-17.166 -31.833 -29.499 -44.5s-27 -22.667 -44 -30s-34.833 -11 -53.5 -11
c-19.333 0 -37.666 3.66699 -54.999 11s-32.5 17.333 -45.5 30s-23.167 27.5 -30.5 44.5s-11 35.167 -11 54.5c0 18.667 3.66699 36.5 11 53.5s17.5 31.667 30.5 44s28.167 22.166 45.5 29.499s35.666 11 54.999 11zM1041.99 1438.01v-205h-581v-326h411v-205h-411v-497h602
v-205h-881v1438h860z" />
    <glyph glyph-name="Igrave" unicode="&#xcc;" horiz-adv-x="687" 
d="M266 1578l-79.002 121.999c-22.667 34 -41.5 64.333 -56.5 91s-26.167 51.5 -33.5 74.5s-11 47.167 -11 72.5c0 21.333 3.66699 39.833 11 55.5s17.333 28.834 30 39.501s27.334 18.5 44.001 23.5s34.334 7.5 53.001 7.5c26.667 0 54.167 -4.83301 82.5 -14.5
s54.5 -23.167 78.5 -40.5l-58 -169l95 -262h-156zM482.998 1438v-1438h-279v1438h279z" />
    <glyph glyph-name="Iacute" unicode="&#xcd;" horiz-adv-x="687" 
d="M310 2009c24 17.333 50.165 30.834 78.498 40.501s55.833 14.5 82.5 14.5c18.667 0 36.334 -2.5 53.001 -7.5s31.334 -12.833 44.001 -23.5s22.667 -23.834 30 -39.501s11 -34.167 11 -55.5c0 -25.333 -3.66699 -49.5 -11 -72.5s-18.5 -47.833 -33.5 -74.5
s-33.833 -57 -56.5 -91l-79 -122h-156l95 262zM482.998 1438v-1438h-279v1438h279z" />
    <glyph glyph-name="Icircumflex" unicode="&#xce;" horiz-adv-x="687" 
d="M344 1919l331 -254l-75 -87l-256 111l-256 -111l-75 87zM483 1438v-1438h-279v1438h279z" />
    <glyph glyph-name="Idieresis" unicode="&#xcf;" horiz-adv-x="687" 
d="M105 1853c18.667 0 36.3311 -3.66406 52.998 -10.9971s31.334 -17.333 44.001 -30s22.667 -27.334 30 -44.001s11 -34.334 11 -53.001c0 -19.333 -3.66699 -37.5 -11 -54.5s-17.166 -31.833 -29.499 -44.5s-27 -22.667 -44 -30s-34.833 -11 -53.5 -11
c-19.333 0 -37.666 3.66699 -54.999 11s-32.5 17.333 -45.5 30s-23.167 27.5 -30.5 44.5s-11 35.167 -11 54.5c0 18.667 3.66699 36.5 11 53.5s17.5 31.667 30.5 44s28.167 22.166 45.5 29.499s35.666 11 54.999 11zM586.997 1853
c18.667 0 36.3311 -3.66406 52.998 -10.9971s31.334 -17.333 44.001 -30s22.667 -27.334 30 -44.001s11 -34.334 11 -53.001c0 -19.333 -3.66699 -37.5 -11 -54.5s-17.166 -31.833 -29.499 -44.5s-27 -22.667 -44 -30s-34.833 -11 -53.5 -11
c-19.333 0 -37.666 3.66699 -54.999 11s-32.5 17.333 -45.5 30s-23.167 27.5 -30.5 44.5s-11 35.167 -11 54.5c0 18.667 3.66699 36.5 11 53.5s17.5 31.667 30.5 44s28.167 22.166 45.5 29.499s35.666 11 54.999 11zM482.994 1438.01v-1438h-279v1438h279z" />
    <glyph glyph-name="Eth" unicode="&#xd0;" horiz-adv-x="1424" 
d="M571 1438c78.667 0 151.332 -4.16699 217.999 -12.5s128 -22.833 184 -43.5c66 -24.667 121.333 -57.5 166 -98.5s80.334 -89.5 107.001 -145.5s45.667 -118.833 57 -188.5s17 -145.167 17 -226.5s-5.83301 -157 -17.5 -227s-31.167 -133.167 -58.5 -189.5
s-63.166 -105.333 -107.499 -147s-98.833 -75.167 -163.5 -100.5c-56 -21.333 -117.333 -36.5 -184 -45.5s-139.334 -13.5 -218.001 -13.5h-390v633h-241v190h241v615h390zM500.998 203c110 0 199.669 7.99805 269.002 23.998s123.666 43.667 162.999 83
s66.333 91.833 81 157.5s22 148.5 22 248.5s-7.16699 183.333 -21.5 250s-39.833 119.834 -76.5 159.501s-86.334 67.834 -149.001 84.501s-142 25 -238 25h-90v-412h295v-190h-295v-430h40z" />
    <glyph glyph-name="Ntilde" unicode="&#xd1;" horiz-adv-x="1574" 
d="M1116 1805c-2.66699 -26.667 -9.33398 -53.333 -20.001 -80s-24.5 -50.834 -41.5 -72.501s-37 -39.167 -60 -52.5s-48.5 -20 -76.5 -20c-23.333 0 -46.166 3.66699 -68.499 11s-44.166 15.333 -65.499 24s-42.333 16.667 -63 24s-41 11 -61 11
c-24.667 0 -43.167 -7.16699 -55.5 -21.5s-21.5 -33.833 -27.5 -58.5h-119c2.66699 26.667 9.33398 53.334 20.001 80.001s24.5 50.667 41.5 72s37 38.833 60 52.5s48.5 20.5 76.5 20.5c23.333 0 46.166 -3.66699 68.499 -11s44.166 -15.333 65.499 -24
s42.333 -16.667 63 -24s41 -11 61 -11c24.667 0 43.167 7.16699 55.5 21.5s21.5 33.833 27.5 58.5h119zM1396 1438v-1438h-309l-629 1075v-1075h-279v1438h309l629 -1075v1075h279z" />
    <glyph glyph-name="Ograve" unicode="&#xd2;" horiz-adv-x="1542" 
d="M693 1578l-79.002 121.999c-22.667 34 -41.5 64.333 -56.5 91s-26.167 51.5 -33.5 74.5s-11 47.167 -11 72.5c0 21.333 3.66699 39.833 11 55.5s17.333 28.834 30 39.501s27.334 18.5 44.001 23.5s34.334 7.5 53.001 7.5c26.667 0 54.167 -4.83301 82.5 -14.5
s54.5 -23.167 78.5 -40.5l-58 -169l95 -262h-156zM770.998 1460c120 0 221.333 -18.1689 304 -54.502s149.834 -87.166 201.501 -152.499s88.834 -143.5 111.501 -234.5s34 -191.167 34 -300.5s-11.333 -209.5 -34 -300.5s-59.834 -169.167 -111.501 -234.5
s-118.834 -116.166 -201.501 -152.499s-184 -54.5 -304 -54.5c-118 0 -218.333 17.667 -301 53s-149.834 85.333 -201.501 150s-89.334 142.667 -113.001 234s-35.5 193 -35.5 305s11.833 213.667 35.5 305s61.334 169.333 113.001 234s118.834 114.667 201.501 150
s183 53 301 53zM770.998 1255c-70 0 -128.5 -11.3311 -175.5 -33.998s-84.667 -56.5 -113 -101.5s-48.5 -101 -60.5 -168s-18 -144.833 -18 -233.5s6 -166.5 18 -233.5s32.167 -123 60.5 -168s66 -78.833 113 -101.5s105.5 -34 175.5 -34c69.333 0 127.5 11.167 174.5 33.5
s84.667 55.833 113 100.5s48.666 100.667 60.999 168s18.5 145.666 18.5 234.999s-6.16699 167.666 -18.5 234.999s-32.666 123.333 -60.999 168s-66 78.167 -113 100.5s-105.167 33.5 -174.5 33.5z" />
    <glyph glyph-name="Oacute" unicode="&#xd3;" horiz-adv-x="1542" 
d="M737 2009c24 17.333 50.165 30.834 78.498 40.501s55.833 14.5 82.5 14.5c18.667 0 36.334 -2.5 53.001 -7.5s31.334 -12.833 44.001 -23.5s22.667 -23.834 30 -39.501s11 -34.167 11 -55.5c0 -25.333 -3.66699 -49.5 -11 -72.5s-18.5 -47.833 -33.5 -74.5
s-33.833 -57 -56.5 -91l-79 -122h-156l95 262zM770.998 1460c120 0 221.333 -18.1689 304 -54.502s149.834 -87.166 201.501 -152.499s88.834 -143.5 111.501 -234.5s34 -191.167 34 -300.5s-11.333 -209.5 -34 -300.5s-59.834 -169.167 -111.501 -234.5
s-118.834 -116.166 -201.501 -152.499s-184 -54.5 -304 -54.5c-118 0 -218.333 17.667 -301 53s-149.834 85.333 -201.501 150s-89.334 142.667 -113.001 234s-35.5 193 -35.5 305s11.833 213.667 35.5 305s61.334 169.333 113.001 234s118.834 114.667 201.501 150
s183 53 301 53zM770.998 1255c-70 0 -128.5 -11.3311 -175.5 -33.998s-84.667 -56.5 -113 -101.5s-48.5 -101 -60.5 -168s-18 -144.833 -18 -233.5s6 -166.5 18 -233.5s32.167 -123 60.5 -168s66 -78.833 113 -101.5s105.5 -34 175.5 -34c69.333 0 127.5 11.167 174.5 33.5
s84.667 55.833 113 100.5s48.666 100.667 60.999 168s18.5 145.666 18.5 234.999s-6.16699 167.666 -18.5 234.999s-32.666 123.333 -60.999 168s-66 78.167 -113 100.5s-105.167 33.5 -174.5 33.5z" />
    <glyph glyph-name="Ocircumflex" unicode="&#xd4;" horiz-adv-x="1542" 
d="M771 1919l331 -254l-75 -87l-256 111l-256 -111l-75 87zM771 1460c120 0 221.333 -18.1689 304 -54.502s149.834 -87.166 201.501 -152.499s88.834 -143.5 111.501 -234.5s34 -191.167 34 -300.5s-11.333 -209.5 -34 -300.5s-59.834 -169.167 -111.501 -234.5
s-118.834 -116.166 -201.501 -152.499s-184 -54.5 -304 -54.5c-118 0 -218.333 17.667 -301 53s-149.834 85.333 -201.501 150s-89.334 142.667 -113.001 234s-35.5 193 -35.5 305s11.833 213.667 35.5 305s61.334 169.333 113.001 234s118.834 114.667 201.501 150
s183 53 301 53zM771 1255c-70 0 -128.5 -11.3311 -175.5 -33.998s-84.667 -56.5 -113 -101.5s-48.5 -101 -60.5 -168s-18 -144.833 -18 -233.5s6 -166.5 18 -233.5s32.167 -123 60.5 -168s66 -78.833 113 -101.5s105.5 -34 175.5 -34c69.333 0 127.5 11.167 174.5 33.5
s84.667 55.833 113 100.5s48.666 100.667 60.999 168s18.5 145.666 18.5 234.999s-6.16699 167.666 -18.5 234.999s-32.666 123.333 -60.999 168s-66 78.167 -113 100.5s-105.167 33.5 -174.5 33.5z" />
    <glyph glyph-name="Otilde" unicode="&#xd5;" horiz-adv-x="1542" 
d="M1100 1805c-2.66699 -26.667 -9.33398 -53.333 -20.001 -80s-24.5 -50.834 -41.5 -72.501s-37 -39.167 -60 -52.5s-48.5 -20 -76.5 -20c-23.333 0 -46.166 3.66699 -68.499 11s-44.166 15.333 -65.499 24s-42.333 16.667 -63 24s-41 11 -61 11
c-24.667 0 -43.167 -7.16699 -55.5 -21.5s-21.5 -33.833 -27.5 -58.5h-119c2.66699 26.667 9.33398 53.334 20.001 80.001s24.5 50.667 41.5 72s37 38.833 60 52.5s48.5 20.5 76.5 20.5c23.333 0 46.166 -3.66699 68.499 -11s44.166 -15.333 65.499 -24
s42.333 -16.667 63 -24s41 -11 61 -11c24.667 0 43.167 7.16699 55.5 21.5s21.5 33.833 27.5 58.5h119zM771 1460c120 0 221.333 -18.1689 304 -54.502s149.834 -87.166 201.501 -152.499s88.834 -143.5 111.501 -234.5s34 -191.167 34 -300.5s-11.333 -209.5 -34 -300.5
s-59.834 -169.167 -111.501 -234.5s-118.834 -116.166 -201.501 -152.499s-184 -54.5 -304 -54.5c-118 0 -218.333 17.667 -301 53s-149.834 85.333 -201.501 150s-89.334 142.667 -113.001 234s-35.5 193 -35.5 305s11.833 213.667 35.5 305s61.334 169.333 113.001 234
s118.834 114.667 201.501 150s183 53 301 53zM771 1255c-70 0 -128.5 -11.3311 -175.5 -33.998s-84.667 -56.5 -113 -101.5s-48.5 -101 -60.5 -168s-18 -144.833 -18 -233.5s6 -166.5 18 -233.5s32.167 -123 60.5 -168s66 -78.833 113 -101.5s105.5 -34 175.5 -34
c69.333 0 127.5 11.167 174.5 33.5s84.667 55.833 113 100.5s48.666 100.667 60.999 168s18.5 145.666 18.5 234.999s-6.16699 167.666 -18.5 234.999s-32.666 123.333 -60.999 168s-66 78.167 -113 100.5s-105.167 33.5 -174.5 33.5z" />
    <glyph glyph-name="Odieresis" unicode="&#xd6;" horiz-adv-x="1542" 
d="M532 1853c18.667 0 36.3311 -3.66406 52.998 -10.9971s31.334 -17.333 44.001 -30s22.667 -27.334 30 -44.001s11 -34.334 11 -53.001c0 -19.333 -3.66699 -37.5 -11 -54.5s-17.166 -31.833 -29.499 -44.5s-27 -22.667 -44 -30s-34.833 -11 -53.5 -11
c-19.333 0 -37.666 3.66699 -54.999 11s-32.5 17.333 -45.5 30s-23.167 27.5 -30.5 44.5s-11 35.167 -11 54.5c0 18.667 3.66699 36.5 11 53.5s17.5 31.667 30.5 44s28.167 22.166 45.5 29.499s35.666 11 54.999 11zM1014 1853c18.667 0 36.3311 -3.66406 52.998 -10.9971
s31.334 -17.333 44.001 -30s22.667 -27.334 30 -44.001s11 -34.334 11 -53.001c0 -19.333 -3.66699 -37.5 -11 -54.5s-17.166 -31.833 -29.499 -44.5s-27 -22.667 -44 -30s-34.833 -11 -53.5 -11c-19.333 0 -37.666 3.66699 -54.999 11s-32.5 17.333 -45.5 30
s-23.167 27.5 -30.5 44.5s-11 35.167 -11 54.5c0 18.667 3.66699 36.5 11 53.5s17.5 31.667 30.5 44s28.167 22.166 45.5 29.499s35.666 11 54.999 11zM770.994 1460.01c120 0 221.333 -18.1689 304 -54.502s149.834 -87.166 201.501 -152.499s88.834 -143.5 111.501 -234.5
s34 -191.167 34 -300.5s-11.333 -209.5 -34 -300.5s-59.834 -169.167 -111.501 -234.5s-118.834 -116.166 -201.501 -152.499s-184 -54.5 -304 -54.5c-118 0 -218.333 17.667 -301 53s-149.834 85.333 -201.501 150s-89.334 142.667 -113.001 234s-35.5 193 -35.5 305
s11.833 213.667 35.5 305s61.334 169.333 113.001 234s118.834 114.667 201.501 150s183 53 301 53zM770.994 1255c-70 0 -128.5 -11.3311 -175.5 -33.998s-84.667 -56.5 -113 -101.5s-48.5 -101 -60.5 -168s-18 -144.833 -18 -233.5s6 -166.5 18 -233.5
s32.167 -123 60.5 -168s66 -78.833 113 -101.5s105.5 -34 175.5 -34c69.333 0 127.5 11.167 174.5 33.5s84.667 55.833 113 100.5s48.666 100.667 60.999 168s18.5 145.666 18.5 234.999s-6.16699 167.666 -18.5 234.999s-32.666 123.333 -60.999 168s-66 78.167 -113 100.5
s-105.167 33.5 -174.5 33.5z" />
    <glyph glyph-name="multiply" unicode="&#xd7;" horiz-adv-x="1082" 
d="M798 953l134 -134l-257 -257l257 -257l-134 -134l-257 257l-257 -257l-134 134l257 257l-257 257l134 134l257 -257z" />
    <glyph glyph-name="Oslash" unicode="&#xd8;" horiz-adv-x="1542" 
d="M1243 1291c63.333 -65.333 109.001 -147.001 137.001 -245.001s42 -207.333 42 -328c0 -109.333 -11.333 -209.5 -34 -300.5s-59.834 -169.167 -111.501 -234.5s-118.834 -116.166 -201.501 -152.499s-184 -54.5 -304 -54.5c-122.667 0 -227.334 19.667 -314.001 59
l-22 -35h-229l91 146c-62 64.667 -107 145.667 -135 243s-42 207 -42 329c0 112 11.833 213.667 35.5 305s61.334 169.333 113.001 234s118.834 114.667 201.501 150s183 53 301 53c62.667 0 119.667 -4.83301 171 -14.5s98.333 -24.167 141 -43.5l23 36h229zM964.001 1212
c-49.333 28.667 -113.667 43.002 -193 43.002c-70 0 -128.5 -11.333 -175.5 -34s-84.667 -56.5 -113 -101.5s-48.5 -101 -60.5 -168s-18 -144.833 -18 -233.5c0 -68.667 3.5 -130.334 10.5 -185.001s18.167 -103.334 33.5 -146.001zM576 225.001
c51.333 -29.333 116.334 -44 195.001 -44c69.333 0 127.5 11.167 174.5 33.5s84.667 55.833 113 100.5s48.666 100.667 60.999 168s18.5 145.666 18.5 234.999c0 68.667 -3.5 130.834 -10.5 186.501s-18.5 104.5 -34.5 146.5z" />
    <glyph glyph-name="Ugrave" unicode="&#xd9;" horiz-adv-x="1532" 
d="M688 1578l-79.002 121.999c-22.667 34 -41.5 64.333 -56.5 91s-26.167 51.5 -33.5 74.5s-11 47.167 -11 72.5c0 21.333 3.66699 39.833 11 55.5s17.333 28.834 30 39.501s27.334 18.5 44.001 23.5s34.334 7.5 53.001 7.5c26.667 0 54.167 -4.83301 82.5 -14.5
s54.5 -23.167 78.5 -40.5l-58 -169l95 -262h-156zM1366 1438l-0.00195312 -806c0 -104 -10.667 -196.667 -32 -278s-55.833 -150 -103.5 -206s-109.667 -98.5 -186 -127.5s-169.5 -43.5 -279.5 -43.5c-112 0 -206.167 15 -282.5 45s-138 73.333 -185 130
s-80.667 125.5 -101 206.5s-30.5 172.167 -30.5 273.5v806h284v-840c0 -63.333 5.5 -120.5 16.5 -171.5s29 -94.333 54 -130s57.5 -63.167 97.5 -82.5s89 -29 147 -29c59.333 0 109.333 9.66699 150 29s73.334 47 98.001 83s42.334 79.5 53.001 130.5s16 107.833 16 170.5
v840h284z" />
    <glyph glyph-name="Uacute" unicode="&#xda;" horiz-adv-x="1532" 
d="M732 2009c24 17.333 50.165 30.834 78.498 40.501s55.833 14.5 82.5 14.5c18.667 0 36.334 -2.5 53.001 -7.5s31.334 -12.833 44.001 -23.5s22.667 -23.834 30 -39.501s11 -34.167 11 -55.5c0 -25.333 -3.66699 -49.5 -11 -72.5s-18.5 -47.833 -33.5 -74.5
s-33.833 -57 -56.5 -91l-79 -122h-156l95 262zM1366 1438l-0.00195312 -806c0 -104 -10.667 -196.667 -32 -278s-55.833 -150 -103.5 -206s-109.667 -98.5 -186 -127.5s-169.5 -43.5 -279.5 -43.5c-112 0 -206.167 15 -282.5 45s-138 73.333 -185 130
s-80.667 125.5 -101 206.5s-30.5 172.167 -30.5 273.5v806h284v-840c0 -63.333 5.5 -120.5 16.5 -171.5s29 -94.333 54 -130s57.5 -63.167 97.5 -82.5s89 -29 147 -29c59.333 0 109.333 9.66699 150 29s73.334 47 98.001 83s42.334 79.5 53.001 130.5s16 107.833 16 170.5
v840h284z" />
    <glyph glyph-name="Ucircumflex" unicode="&#xdb;" horiz-adv-x="1532" 
d="M766 1919l331 -254l-75 -87l-256 111l-256 -111l-75 87zM1366 1438l-0.00195312 -806c0 -104 -10.667 -196.667 -32 -278s-55.833 -150 -103.5 -206s-109.667 -98.5 -186 -127.5s-169.5 -43.5 -279.5 -43.5c-112 0 -206.167 15 -282.5 45s-138 73.333 -185 130
s-80.667 125.5 -101 206.5s-30.5 172.167 -30.5 273.5v806h284v-840c0 -63.333 5.5 -120.5 16.5 -171.5s29 -94.333 54 -130s57.5 -63.167 97.5 -82.5s89 -29 147 -29c59.333 0 109.333 9.66699 150 29s73.334 47 98.001 83s42.334 79.5 53.001 130.5s16 107.833 16 170.5
v840h284z" />
    <glyph glyph-name="Udieresis" unicode="&#xdc;" horiz-adv-x="1532" 
d="M527 1853c18.667 0 36.3311 -3.66406 52.998 -10.9971s31.334 -17.333 44.001 -30s22.667 -27.334 30 -44.001s11 -34.334 11 -53.001c0 -19.333 -3.66699 -37.5 -11 -54.5s-17.166 -31.833 -29.499 -44.5s-27 -22.667 -44 -30s-34.833 -11 -53.5 -11
c-19.333 0 -37.666 3.66699 -54.999 11s-32.5 17.333 -45.5 30s-23.167 27.5 -30.5 44.5s-11 35.167 -11 54.5c0 18.667 3.66699 36.5 11 53.5s17.5 31.667 30.5 44s28.167 22.166 45.5 29.499s35.666 11 54.999 11zM1009 1853c18.667 0 36.3311 -3.66406 52.998 -10.9971
s31.334 -17.333 44.001 -30s22.667 -27.334 30 -44.001s11 -34.334 11 -53.001c0 -19.333 -3.66699 -37.5 -11 -54.5s-17.166 -31.833 -29.499 -44.5s-27 -22.667 -44 -30s-34.833 -11 -53.5 -11c-19.333 0 -37.666 3.66699 -54.999 11s-32.5 17.333 -45.5 30
s-23.167 27.5 -30.5 44.5s-11 35.167 -11 54.5c0 18.667 3.66699 36.5 11 53.5s17.5 31.667 30.5 44s28.167 22.166 45.5 29.499s35.666 11 54.999 11zM1365.99 1438.01l-0.00195312 -806c0 -104 -10.667 -196.667 -32 -278s-55.833 -150 -103.5 -206
s-109.667 -98.5 -186 -127.5s-169.5 -43.5 -279.5 -43.5c-112 0 -206.167 15 -282.5 45s-138 73.333 -185 130s-80.667 125.5 -101 206.5s-30.5 172.167 -30.5 273.5v806h284v-840c0 -63.333 5.5 -120.5 16.5 -171.5s29 -94.333 54 -130s57.5 -63.167 97.5 -82.5
s89 -29 147 -29c59.333 0 109.333 9.66699 150 29s73.334 47 98.001 83s42.334 79.5 53.001 130.5s16 107.833 16 170.5v840h284z" />
    <glyph glyph-name="Yacute" unicode="&#xdd;" horiz-adv-x="1400" 
d="M666 2009c24 17.333 50.165 30.834 78.498 40.501s55.833 14.5 82.5 14.5c18.667 0 36.334 -2.5 53.001 -7.5s31.334 -12.833 44.001 -23.5s22.667 -23.834 30 -39.501s11 -34.167 11 -55.5c0 -25.333 -3.66699 -49.5 -11 -72.5s-18.5 -47.833 -33.5 -74.5
s-33.833 -57 -56.5 -91l-79 -122h-156l95 262zM1335 1438l-495 -790v-648h-280v648l-495 790h304l331 -603l331 603h304z" />
    <glyph glyph-name="Thorn" unicode="&#xde;" horiz-adv-x="1295" 
d="M460 1438v-247h278c70 0 132.5 -9.5 187.5 -28.5s101.5 -46.833 139.5 -83.5s67 -82 87 -136s30 -116 30 -186c0 -76 -12.333 -142.5 -37 -199.5s-60 -104.5 -106 -142.5s-101.667 -66.667 -167 -86s-138.333 -29 -219 -29c-37.333 0 -72.5 1.16699 -105.5 3.5
s-62.167 4.83301 -87.5 7.5v-311h-279v1438h279zM460 502c21.333 -3.33301 42.501 -5.83301 63.501 -7.5s41.5 -2.5 61.5 -2.5c51.333 0 96.5 4.33301 135.5 13s71.667 23 98 43s46.166 46 59.499 78s20 71.667 20 119c0 46.667 -5 86.167 -15 118.5s-26 58.5 -48 78.5
s-50.333 34.5 -85 43.5s-76.667 13.5 -126 13.5h-164v-497z" />
    <glyph glyph-name="germandbls" unicode="&#xdf;" horiz-adv-x="1320" 
d="M186 1048c0 76 12.3311 140.164 36.998 192.497s58.5 94.833 101.5 127.5s93.5 56.167 151.5 70.5s120.667 21.5 188 21.5c66.667 0 128.667 -7 186 -21s107 -35.833 149 -65.5s74.833 -67 98.5 -112s35.5 -98.5 35.5 -160.5c0 -65.333 -13.5 -123.166 -40.5 -173.499
s-66.833 -98.833 -119.5 -145.5c36 -12.667 68.667 -29.834 98 -51.501s54.333 -47.167 75 -76.5s36.5 -62.166 47.5 -98.499s16.5 -75.833 16.5 -118.5c0 -88.667 -14.833 -162.667 -44.5 -222s-68.167 -106.666 -115.5 -141.999s-100.166 -60.5 -158.499 -75.5
s-116.5 -22.5 -174.5 -22.5c-24 0 -47.667 1.16699 -71 3.5s-45.666 5.5 -66.999 9.5l59 194c8.66699 -1.33301 17.167 -2 25.5 -2h26.5c30 0 59.5 3.33301 88.5 10s55 18.834 78 36.501s41.667 42.334 56 74.001s21.5 72.5 21.5 122.5c0 51.333 -11 92.5 -33 123.5
s-50 55.333 -84 73s-71.333 30.167 -112 37.5s-79.334 13.333 -116.001 18l46 178c16.667 -1.33301 34.667 -3.16602 54 -5.49902s36.333 -4.83301 51 -7.5c42 31.333 72.833 66.166 92.5 104.499s29.5 83.5 29.5 135.5c0 56.667 -17.667 100 -53 130
s-84.666 45 -147.999 45c-61.333 0 -110.333 -16.833 -147 -50.5s-55 -86.834 -55 -159.501v-1044h-273v1047z" />
    <glyph glyph-name="agrave" unicode="&#xe0;" horiz-adv-x="1141" 
d="M518 1191l-79.002 121.999c-22.667 34 -41.5 64.333 -56.5 91s-26.167 51.5 -33.5 74.5s-11 47.167 -11 72.5c0 21.333 3.66699 39.833 11 55.5s17.333 28.834 30 39.501s27.334 18.5 44.001 23.5s34.334 7.5 53.001 7.5c26.667 0 54.167 -4.83301 82.5 -14.5
s54.5 -23.167 78.5 -40.5l-58 -169l95 -262h-156zM186.998 988.999c24.667 10 52.833 19.335 84.5 28.002s65.334 16.5 101.001 23.5s72.667 12.5 111 16.5s77.166 6 116.499 6c55.333 0 107.166 -4.33301 155.499 -13s88.5 -23 120.5 -43s57 -47.167 75 -81.5
s27 -77.5 27 -129.5v-406c0 -46.667 0.333008 -88.167 1 -124.5s2 -71.833 4 -106.5c1.33301 -12.667 2.66602 -24.167 3.99902 -34.5s2.83301 -20.333 4.5 -30s3.66699 -19.834 6 -30.501s5.16602 -22.334 8.49902 -35.001l-123.5 -27c-41 -8.66699 -82.5 -17 -124.5 -25
c-7.33301 18.667 -13.166 37.834 -17.499 57.501s-8.16602 42.167 -11.499 67.5h-15c-23.333 -24 -46.666 -44 -69.999 -60s-47.666 -29 -72.999 -39s-51.666 -17 -78.999 -21s-56 -6 -86 -6c-46 0 -88.667 5.5 -128 16.5s-73.5 27.833 -102.5 50.5s-51.667 51.5 -68 86.5
s-24.5 76.167 -24.5 123.5c0 40 4.16699 75.667 12.5 107s20.166 59.333 35.499 84s33.666 46.334 54.999 65.001s45 35 71 49c52 28 110 47.167 174 57.5s129.333 15.5 196 15.5h86v130c0 24.667 -3.83301 44.167 -11.5 58.5s-18 25.166 -31 32.499
s-28.167 12.166 -45.5 14.499s-36 3.5 -56 3.5c-54 0 -108.5 -6.83301 -163.5 -20.5s-107.5 -30.5 -157.5 -50.5zM712.997 484.001h-19.999c-47.333 -0.666992 -92.5 -4.16699 -135.5 -10.5s-80.833 -17.166 -113.5 -32.499s-58.834 -35.5 -78.501 -60.5
s-29.5 -56.5 -29.5 -94.5c0 -42 12.167 -74.333 36.5 -97s58.5 -34 102.5 -34c20.667 0 42 2.83301 64 8.5s43.667 13.667 65 24s41.333 23.166 60 38.499s35 33 49 53v205z" />
    <glyph glyph-name="aacute" unicode="&#xe1;" horiz-adv-x="1141" 
d="M562 1622c24 17.333 50.165 30.834 78.498 40.501s55.833 14.5 82.5 14.5c18.667 0 36.334 -2.5 53.001 -7.5s31.334 -12.833 44.001 -23.5s22.667 -23.834 30 -39.501s11 -34.167 11 -55.5c0 -25.333 -3.66699 -49.5 -11 -72.5s-18.5 -47.833 -33.5 -74.5
s-33.833 -57 -56.5 -91l-79 -122h-156l95 262zM186.998 989.001c24.667 10 52.833 19.335 84.5 28.002s65.334 16.5 101.001 23.5s72.667 12.5 111 16.5s77.166 6 116.499 6c55.333 0 107.166 -4.33301 155.499 -13s88.5 -23 120.5 -43s57 -47.167 75 -81.5
s27 -77.5 27 -129.5v-406c0 -46.667 0.333008 -88.167 1 -124.5s2 -71.833 4 -106.5c1.33301 -12.667 2.66602 -24.167 3.99902 -34.5s2.83301 -20.333 4.5 -30s3.66699 -19.834 6 -30.501s5.16602 -22.334 8.49902 -35.001l-123.5 -27c-41 -8.66699 -82.5 -17 -124.5 -25
c-7.33301 18.667 -13.166 37.834 -17.499 57.501s-8.16602 42.167 -11.499 67.5h-15c-23.333 -24 -46.666 -44 -69.999 -60s-47.666 -29 -72.999 -39s-51.666 -17 -78.999 -21s-56 -6 -86 -6c-46 0 -88.667 5.5 -128 16.5s-73.5 27.833 -102.5 50.5s-51.667 51.5 -68 86.5
s-24.5 76.167 -24.5 123.5c0 40 4.16699 75.667 12.5 107s20.166 59.333 35.499 84s33.666 46.334 54.999 65.001s45 35 71 49c52 28 110 47.167 174 57.5s129.333 15.5 196 15.5h86v130c0 24.667 -3.83301 44.167 -11.5 58.5s-18 25.166 -31 32.499
s-28.167 12.166 -45.5 14.499s-36 3.5 -56 3.5c-54 0 -108.5 -6.83301 -163.5 -20.5s-107.5 -30.5 -157.5 -50.5zM712.997 484.003h-19.999c-47.333 -0.666992 -92.5 -4.16699 -135.5 -10.5s-80.833 -17.166 -113.5 -32.499s-58.834 -35.5 -78.501 -60.5
s-29.5 -56.5 -29.5 -94.5c0 -42 12.167 -74.333 36.5 -97s58.5 -34 102.5 -34c20.667 0 42 2.83301 64 8.5s43.667 13.667 65 24s41.333 23.166 60 38.499s35 33 49 53v205z" />
    <glyph glyph-name="acircumflex" unicode="&#xe2;" horiz-adv-x="1141" 
d="M596 1532l331 -254l-75 -87l-256 111l-256 -111l-75 87zM187 989c24.667 10 52.833 19.335 84.5 28.002s65.334 16.5 101.001 23.5s72.667 12.5 111 16.5s77.166 6 116.499 6c55.333 0 107.166 -4.33301 155.499 -13s88.5 -23 120.5 -43s57 -47.167 75 -81.5
s27 -77.5 27 -129.5v-406c0 -46.667 0.333008 -88.167 1 -124.5s2 -71.833 4 -106.5c1.33301 -12.667 2.66602 -24.167 3.99902 -34.5s2.83301 -20.333 4.5 -30s3.66699 -19.834 6 -30.501s5.16602 -22.334 8.49902 -35.001l-123.5 -27c-41 -8.66699 -82.5 -17 -124.5 -25
c-7.33301 18.667 -13.166 37.834 -17.499 57.501s-8.16602 42.167 -11.499 67.5h-15c-23.333 -24 -46.666 -44 -69.999 -60s-47.666 -29 -72.999 -39s-51.666 -17 -78.999 -21s-56 -6 -86 -6c-46 0 -88.667 5.5 -128 16.5s-73.5 27.833 -102.5 50.5s-51.667 51.5 -68 86.5
s-24.5 76.167 -24.5 123.5c0 40 4.16699 75.667 12.5 107s20.166 59.333 35.499 84s33.666 46.334 54.999 65.001s45 35 71 49c52 28 110 47.167 174 57.5s129.333 15.5 196 15.5h86v130c0 24.667 -3.83301 44.167 -11.5 58.5s-18 25.166 -31 32.499
s-28.167 12.166 -45.5 14.499s-36 3.5 -56 3.5c-54 0 -108.5 -6.83301 -163.5 -20.5s-107.5 -30.5 -157.5 -50.5zM712.999 484.002h-19.999c-47.333 -0.666992 -92.5 -4.16699 -135.5 -10.5s-80.833 -17.166 -113.5 -32.499s-58.834 -35.5 -78.501 -60.5
s-29.5 -56.5 -29.5 -94.5c0 -42 12.167 -74.333 36.5 -97s58.5 -34 102.5 -34c20.667 0 42 2.83301 64 8.5s43.667 13.667 65 24s41.333 23.166 60 38.499s35 33 49 53v205z" />
    <glyph glyph-name="atilde" unicode="&#xe3;" horiz-adv-x="1141" 
d="M925 1418c-2.66699 -26.667 -9.33398 -53.333 -20.001 -80s-24.5 -50.834 -41.5 -72.501s-37 -39.167 -60 -52.5s-48.5 -20 -76.5 -20c-23.333 0 -46.166 3.66699 -68.499 11s-44.166 15.333 -65.499 24s-42.333 16.667 -63 24s-41 11 -61 11
c-24.667 0 -43.167 -7.16699 -55.5 -21.5s-21.5 -33.833 -27.5 -58.5h-119c2.66699 26.667 9.33398 53.334 20.001 80.001s24.5 50.667 41.5 72s37 38.833 60 52.5s48.5 20.5 76.5 20.5c23.333 0 46.166 -3.66699 68.499 -11s44.166 -15.333 65.499 -24
s42.333 -16.667 63 -24s41 -11 61 -11c24.667 0 43.167 7.16699 55.5 21.5s21.5 33.833 27.5 58.5h119zM187 989.001c24.667 10 52.833 19.335 84.5 28.002s65.334 16.5 101.001 23.5s72.667 12.5 111 16.5s77.166 6 116.499 6c55.333 0 107.166 -4.33301 155.499 -13
s88.5 -23 120.5 -43s57 -47.167 75 -81.5s27 -77.5 27 -129.5v-406c0 -46.667 0.333008 -88.167 1 -124.5s2 -71.833 4 -106.5c1.33301 -12.667 2.66602 -24.167 3.99902 -34.5s2.83301 -20.333 4.5 -30s3.66699 -19.834 6 -30.501s5.16602 -22.334 8.49902 -35.001
l-123.5 -27c-41 -8.66699 -82.5 -17 -124.5 -25c-7.33301 18.667 -13.166 37.834 -17.499 57.501s-8.16602 42.167 -11.499 67.5h-15c-23.333 -24 -46.666 -44 -69.999 -60s-47.666 -29 -72.999 -39s-51.666 -17 -78.999 -21s-56 -6 -86 -6c-46 0 -88.667 5.5 -128 16.5
s-73.5 27.833 -102.5 50.5s-51.667 51.5 -68 86.5s-24.5 76.167 -24.5 123.5c0 40 4.16699 75.667 12.5 107s20.166 59.333 35.499 84s33.666 46.334 54.999 65.001s45 35 71 49c52 28 110 47.167 174 57.5s129.333 15.5 196 15.5h86v130
c0 24.667 -3.83301 44.167 -11.5 58.5s-18 25.166 -31 32.499s-28.167 12.166 -45.5 14.499s-36 3.5 -56 3.5c-54 0 -108.5 -6.83301 -163.5 -20.5s-107.5 -30.5 -157.5 -50.5zM712.999 484.003h-19.999c-47.333 -0.666992 -92.5 -4.16699 -135.5 -10.5
s-80.833 -17.166 -113.5 -32.499s-58.834 -35.5 -78.501 -60.5s-29.5 -56.5 -29.5 -94.5c0 -42 12.167 -74.333 36.5 -97s58.5 -34 102.5 -34c20.667 0 42 2.83301 64 8.5s43.667 13.667 65 24s41.333 23.166 60 38.499s35 33 49 53v205z" />
    <glyph glyph-name="adieresis" unicode="&#xe4;" horiz-adv-x="1141" 
d="M357 1466c18.667 0 36.3311 -3.66406 52.998 -10.9971s31.334 -17.333 44.001 -30s22.667 -27.334 30 -44.001s11 -34.334 11 -53.001c0 -19.333 -3.66699 -37.5 -11 -54.5s-17.166 -31.833 -29.499 -44.5s-27 -22.667 -44 -30s-34.833 -11 -53.5 -11
c-19.333 0 -37.666 3.66699 -54.999 11s-32.5 17.333 -45.5 30s-23.167 27.5 -30.5 44.5s-11 35.167 -11 54.5c0 18.667 3.66699 36.5 11 53.5s17.5 31.667 30.5 44s28.167 22.166 45.5 29.499s35.666 11 54.999 11zM838.997 1466
c18.667 0 36.3311 -3.66406 52.998 -10.9971s31.334 -17.333 44.001 -30s22.667 -27.334 30 -44.001s11 -34.334 11 -53.001c0 -19.333 -3.66699 -37.5 -11 -54.5s-17.166 -31.833 -29.499 -44.5s-27 -22.667 -44 -30s-34.833 -11 -53.5 -11
c-19.333 0 -37.666 3.66699 -54.999 11s-32.5 17.333 -45.5 30s-23.167 27.5 -30.5 44.5s-11 35.167 -11 54.5c0 18.667 3.66699 36.5 11 53.5s17.5 31.667 30.5 44s28.167 22.166 45.5 29.499s35.666 11 54.999 11zM186.994 989.006c24.667 10 52.833 19.335 84.5 28.002
s65.334 16.5 101.001 23.5s72.667 12.5 111 16.5s77.166 6 116.499 6c55.333 0 107.166 -4.33301 155.499 -13s88.5 -23 120.5 -43s57 -47.167 75 -81.5s27 -77.5 27 -129.5v-406c0 -46.667 0.333008 -88.167 1 -124.5s2 -71.833 4 -106.5
c1.33301 -12.667 2.66602 -24.167 3.99902 -34.5s2.83301 -20.333 4.5 -30s3.66699 -19.834 6 -30.501s5.16602 -22.334 8.49902 -35.001l-123.5 -27c-41 -8.66699 -82.5 -17 -124.5 -25c-7.33301 18.667 -13.166 37.834 -17.499 57.501s-8.16602 42.167 -11.499 67.5h-15
c-23.333 -24 -46.666 -44 -69.999 -60s-47.666 -29 -72.999 -39s-51.666 -17 -78.999 -21s-56 -6 -86 -6c-46 0 -88.667 5.5 -128 16.5s-73.5 27.833 -102.5 50.5s-51.667 51.5 -68 86.5s-24.5 76.167 -24.5 123.5c0 40 4.16699 75.667 12.5 107s20.166 59.333 35.499 84
s33.666 46.334 54.999 65.001s45 35 71 49c52 28 110 47.167 174 57.5s129.333 15.5 196 15.5h86v130c0 24.667 -3.83301 44.167 -11.5 58.5s-18 25.166 -31 32.499s-28.167 12.166 -45.5 14.499s-36 3.5 -56 3.5c-54 0 -108.5 -6.83301 -163.5 -20.5
s-107.5 -30.5 -157.5 -50.5zM712.993 484.008h-19.999c-47.333 -0.666992 -92.5 -4.16699 -135.5 -10.5s-80.833 -17.166 -113.5 -32.499s-58.834 -35.5 -78.501 -60.5s-29.5 -56.5 -29.5 -94.5c0 -42 12.167 -74.333 36.5 -97s58.5 -34 102.5 -34
c20.667 0 42 2.83301 64 8.5s43.667 13.667 65 24s41.333 23.166 60 38.499s35 33 49 53v205z" />
    <glyph glyph-name="aring" unicode="&#xe5;" horiz-adv-x="1141" 
d="M596 1570c27.333 0 52.833 -5 76.5 -15s44.334 -23.833 62.001 -41.5s31.5 -38.334 41.5 -62.001s15 -49.167 15 -76.5s-5 -52.833 -15 -76.5s-23.833 -44.334 -41.5 -62.001s-38.334 -31.5 -62.001 -41.5s-49.167 -15 -76.5 -15s-52.833 5 -76.5 15
s-44.334 23.833 -62.001 41.5s-31.5 38.334 -41.5 62.001s-15 49.167 -15 76.5s5 52.833 15 76.5s23.833 44.334 41.5 62.001s38.334 31.5 62.001 41.5s49.167 15 76.5 15zM596 1458c-23.333 0 -43 -8 -59 -24s-24 -35.667 -24 -59s8 -43 24 -59s35.667 -24 59 -24
s43 8 59 24s24 35.667 24 59s-8 43 -24 59s-35.667 24 -59 24zM187 989c24.667 10 52.833 19.335 84.5 28.002s65.334 16.5 101.001 23.5s72.667 12.5 111 16.5s77.166 6 116.499 6c55.333 0 107.166 -4.33301 155.499 -13s88.5 -23 120.5 -43s57 -47.167 75 -81.5
s27 -77.5 27 -129.5v-406c0 -46.667 0.333008 -88.167 1 -124.5s2 -71.833 4 -106.5c1.33301 -12.667 2.66602 -24.167 3.99902 -34.5s2.83301 -20.333 4.5 -30s3.66699 -19.834 6 -30.501s5.16602 -22.334 8.49902 -35.001l-123.5 -27c-41 -8.66699 -82.5 -17 -124.5 -25
c-7.33301 18.667 -13.166 37.834 -17.499 57.501s-8.16602 42.167 -11.499 67.5h-15c-23.333 -24 -46.666 -44 -69.999 -60s-47.666 -29 -72.999 -39s-51.666 -17 -78.999 -21s-56 -6 -86 -6c-46 0 -88.667 5.5 -128 16.5s-73.5 27.833 -102.5 50.5s-51.667 51.5 -68 86.5
s-24.5 76.167 -24.5 123.5c0 40 4.16699 75.667 12.5 107s20.166 59.333 35.499 84s33.666 46.334 54.999 65.001s45 35 71 49c52 28 110 47.167 174 57.5s129.333 15.5 196 15.5h86v130c0 24.667 -3.83301 44.167 -11.5 58.5s-18 25.166 -31 32.499
s-28.167 12.166 -45.5 14.499s-36 3.5 -56 3.5c-54 0 -108.5 -6.83301 -163.5 -20.5s-107.5 -30.5 -157.5 -50.5zM712.999 484.002h-19.999c-47.333 -0.666992 -92.5 -4.16699 -135.5 -10.5s-80.833 -17.166 -113.5 -32.499s-58.834 -35.5 -78.501 -60.5
s-29.5 -56.5 -29.5 -94.5c0 -42 12.167 -74.333 36.5 -97s58.5 -34 102.5 -34c20.667 0 42 2.83301 64 8.5s43.667 13.667 65 24s41.333 23.166 60 38.499s35 33 49 53v205z" />
    <glyph glyph-name="ae" unicode="&#xe6;" horiz-adv-x="1816" 
d="M187 989c24.667 10 52.833 19.3359 84.5 28.0029s65.334 16.5 101.001 23.5s72.667 12.5 111 16.5s77.166 6 116.499 6c72 0 134.167 -6.5 186.5 -19.5s93.5 -33.833 123.5 -62.5c37.333 26 80.333 46.167 129 60.5s104.334 21.5 167.001 21.5
c86.667 0 162 -10.5 226 -31.5s117 -53.333 159 -97s73.333 -99.334 94 -167.001s31 -148.167 31 -241.5v-79h-737c1.33301 -46 6.66602 -86.333 15.999 -121s24.5 -63.834 45.5 -87.501s49.167 -41.5 84.5 -53.5s79.666 -18 132.999 -18c46.667 0 97 5.83301 151 17.5
s110.333 28.5 169 50.5l64 -188c-27.333 -11.333 -57.166 -21.333 -89.499 -30s-66.166 -16 -101.499 -22s-71.166 -10.667 -107.499 -14s-71.833 -5 -106.5 -5c-104 0 -192.833 14.5 -266.5 43.5s-132.167 73.833 -175.5 134.5c-34.667 -41.333 -68.5 -73.833 -101.5 -97.5
s-65.5 -41.5 -97.5 -53.5s-63.833 -19.5 -95.5 -22.5s-63.167 -4.5 -94.5 -4.5c-46 0 -88.667 5.5 -128 16.5s-73.5 27.833 -102.5 50.5s-51.667 51.5 -68 86.5s-24.5 76.167 -24.5 123.5c0 40 4.16699 75.667 12.5 107s20.166 59.333 35.499 84
s33.666 46.334 54.999 65.001s45 35 71 49c52 28 110 47.167 174 57.5s129.333 15.5 196 15.5h86v130c0 24.667 -3.83301 44.167 -11.5 58.5s-18 25.166 -31 32.499s-28.167 12.166 -45.5 14.499s-36 3.5 -56 3.5c-54 0 -108.5 -6.83301 -163.5 -20.5
s-107.5 -30.5 -157.5 -50.5zM1442 625.003c-4.66699 164.667 -78.667 247 -222 247c-74 0 -130.167 -21.333 -168.5 -64s-61.833 -103.667 -70.5 -183h461zM692.999 484.003c-47.333 -0.666992 -92.498 -4.16895 -135.498 -10.502s-80.833 -17.166 -113.5 -32.499
s-58.834 -35.5 -78.501 -60.5s-29.5 -56.5 -29.5 -94.5c0 -42 12.167 -74.333 36.5 -97s58.5 -34 102.5 -34c26.667 0 52.167 3.66699 76.5 11s47.166 17.333 68.499 30s41.166 27.334 59.499 44.001s34.833 34.667 49.5 54c-7.33301 28 -13.166 57.667 -17.499 89
s-6.5 65 -6.5 101h-12z" />
    <glyph glyph-name="ccedilla" unicode="&#xe7;" horiz-adv-x="1063" 
d="M589 -113c53.333 -17.333 91.1729 -37.6689 113.506 -61.002s33.5 -52.666 33.5 -87.999c0 -28 -5.66699 -52.333 -17 -73s-26.833 -37.834 -46.5 -51.501s-43.167 -23.834 -70.5 -30.501s-57 -10 -89 -10c-30 0 -60.5 3 -91.5 9s-61.833 14 -92.5 24l54 101
c26.667 -13.333 51.167 -23.666 73.5 -30.999s42.166 -11 59.499 -11c21.333 0 37.666 5.33301 48.999 16s17 27.334 17 50.001c0 24.667 -11.833 44.5 -35.5 59.5s-58.834 30.167 -105.501 45.5l87 142c-82.667 6 -152.5 21.667 -209.5 47s-103.167 60 -138.5 104
s-60.833 97 -76.5 159s-23.5 132.667 -23.5 212c0 88.667 11.5 168 34.5 238s57.5 129 103.5 177s103.333 84.667 172 110s149 38 241 38c53.333 0 106.333 -4.16699 159 -12.5s103 -19.5 151 -33.5l-67 -198c-40 13.333 -78.833 24 -116.5 32s-75.834 12 -114.501 12
c-51.333 0 -95.166 -8.5 -131.499 -25.5s-66.166 -40.667 -89.499 -71s-40.5 -66.5 -51.5 -108.5s-16.5 -88 -16.5 -138c0 -116 20.167 -202.333 60.5 -259s107.166 -85 200.499 -85c57.333 0 110.166 6 158.499 18s96.5 26.333 144.5 43l63 -198
c-22.667 -8.66699 -47.334 -16.334 -74.001 -23.001s-53.834 -12.667 -81.501 -18s-55.5 -9.66602 -83.5 -12.999s-55 -5.66602 -81 -6.99902z" />
    <glyph glyph-name="egrave" unicode="&#xe8;" horiz-adv-x="1202" 
d="M529 1181l-79.002 121.999c-22.667 34 -41.5 64.333 -56.5 91s-26.167 51.5 -33.5 74.5s-11 47.167 -11 72.5c0 21.333 3.66699 39.833 11 55.5s17.333 28.834 30 39.501s27.334 18.5 44.001 23.5s34.334 7.5 53.001 7.5c26.667 0 54.167 -4.83301 82.5 -14.5
s54.5 -23.167 78.5 -40.5l-58 -169l95 -262h-156zM1029 46.999c-27.333 -11.333 -57.167 -21.3311 -89.5 -29.998s-66.166 -16 -101.499 -22s-71.166 -10.667 -107.499 -14s-71.833 -5 -106.5 -5c-175.333 0 -307.833 42.167 -397.5 126.5s-134.5 213.5 -134.5 387.5
c0 77.333 9 150.666 27 219.999s47.167 130.166 87.5 182.499s93.333 93.833 159 124.5s146.167 46 241.5 46c166.667 0 291 -44.167 373 -132.5s123 -223.166 123 -404.499v-79h-739c1.33301 -45.333 6.66602 -85.333 15.999 -120s24.833 -63.834 46.5 -87.501
s50.167 -41.667 85.5 -54s79.666 -18.5 132.999 -18.5c46.667 0 97 5.83301 151 17.5s110.333 28.5 169 50.5zM828.997 625.001c-4.66699 164.667 -78.667 247 -222 247c-74 0 -130.167 -21.333 -168.5 -64s-61.833 -103.667 -70.5 -183h461z" />
    <glyph glyph-name="eacute" unicode="&#xe9;" horiz-adv-x="1202" 
d="M573 1612c24 17.333 50.165 30.834 78.498 40.501s55.833 14.5 82.5 14.5c18.667 0 36.334 -2.5 53.001 -7.5s31.334 -12.833 44.001 -23.5s22.667 -23.834 30 -39.501s11 -34.167 11 -55.5c0 -25.333 -3.66699 -49.5 -11 -72.5s-18.5 -47.833 -33.5 -74.5
s-33.833 -57 -56.5 -91l-79 -122h-156l95 262zM1029 47.001c-27.333 -11.333 -57.167 -21.3311 -89.5 -29.998s-66.166 -16 -101.499 -22s-71.166 -10.667 -107.499 -14s-71.833 -5 -106.5 -5c-175.333 0 -307.833 42.167 -397.5 126.5s-134.5 213.5 -134.5 387.5
c0 77.333 9 150.666 27 219.999s47.167 130.166 87.5 182.499s93.333 93.833 159 124.5s146.167 46 241.5 46c166.667 0 291 -44.167 373 -132.5s123 -223.166 123 -404.499v-79h-739c1.33301 -45.333 6.66602 -85.333 15.999 -120s24.833 -63.834 46.5 -87.501
s50.167 -41.667 85.5 -54s79.666 -18.5 132.999 -18.5c46.667 0 97 5.83301 151 17.5s110.333 28.5 169 50.5zM828.997 625.003c-4.66699 164.667 -78.667 247 -222 247c-74 0 -130.167 -21.333 -168.5 -64s-61.833 -103.667 -70.5 -183h461z" />
    <glyph glyph-name="ecircumflex" unicode="&#xea;" horiz-adv-x="1202" 
d="M607 1522l331 -254l-75 -87l-256 111l-256 -111l-75 87zM1029 47c-27.333 -11.333 -57.167 -21.3311 -89.5 -29.998s-66.166 -16 -101.499 -22s-71.166 -10.667 -107.499 -14s-71.833 -5 -106.5 -5c-175.333 0 -307.833 42.167 -397.5 126.5s-134.5 213.5 -134.5 387.5
c0 77.333 9 150.666 27 219.999s47.167 130.166 87.5 182.499s93.333 93.833 159 124.5s146.167 46 241.5 46c166.667 0 291 -44.167 373 -132.5s123 -223.166 123 -404.499v-79h-739c1.33301 -45.333 6.66602 -85.333 15.999 -120s24.833 -63.834 46.5 -87.501
s50.167 -41.667 85.5 -54s79.666 -18.5 132.999 -18.5c46.667 0 97 5.83301 151 17.5s110.333 28.5 169 50.5zM828.999 625.002c-4.66699 164.667 -78.667 247 -222 247c-74 0 -130.167 -21.333 -168.5 -64s-61.833 -103.667 -70.5 -183h461z" />
    <glyph glyph-name="edieresis" unicode="&#xeb;" horiz-adv-x="1202" 
d="M368 1456c18.667 0 36.3311 -3.66406 52.998 -10.9971s31.334 -17.333 44.001 -30s22.667 -27.334 30 -44.001s11 -34.334 11 -53.001c0 -19.333 -3.66699 -37.5 -11 -54.5s-17.166 -31.833 -29.499 -44.5s-27 -22.667 -44 -30s-34.833 -11 -53.5 -11
c-19.333 0 -37.666 3.66699 -54.999 11s-32.5 17.333 -45.5 30s-23.167 27.5 -30.5 44.5s-11 35.167 -11 54.5c0 18.667 3.66699 36.5 11 53.5s17.5 31.667 30.5 44s28.167 22.166 45.5 29.499s35.666 11 54.999 11zM849.997 1456
c18.667 0 36.3311 -3.66406 52.998 -10.9971s31.334 -17.333 44.001 -30s22.667 -27.334 30 -44.001s11 -34.334 11 -53.001c0 -19.333 -3.66699 -37.5 -11 -54.5s-17.166 -31.833 -29.499 -44.5s-27 -22.667 -44 -30s-34.833 -11 -53.5 -11
c-19.333 0 -37.666 3.66699 -54.999 11s-32.5 17.333 -45.5 30s-23.167 27.5 -30.5 44.5s-11 35.167 -11 54.5c0 18.667 3.66699 36.5 11 53.5s17.5 31.667 30.5 44s28.167 22.166 45.5 29.499s35.666 11 54.999 11zM1028.99 47.0059
c-27.333 -11.333 -57.167 -21.3311 -89.5 -29.998s-66.166 -16 -101.499 -22s-71.166 -10.667 -107.499 -14s-71.833 -5 -106.5 -5c-175.333 0 -307.833 42.167 -397.5 126.5s-134.5 213.5 -134.5 387.5c0 77.333 9 150.666 27 219.999s47.167 130.166 87.5 182.499
s93.333 93.833 159 124.5s146.167 46 241.5 46c166.667 0 291 -44.167 373 -132.5s123 -223.166 123 -404.499v-79h-739c1.33301 -45.333 6.66602 -85.333 15.999 -120s24.833 -63.834 46.5 -87.501s50.167 -41.667 85.5 -54s79.666 -18.5 132.999 -18.5
c46.667 0 97 5.83301 151 17.5s110.333 28.5 169 50.5zM828.993 625.008c-4.66699 164.667 -78.667 247 -222 247c-74 0 -130.167 -21.333 -168.5 -64s-61.833 -103.667 -70.5 -183h461z" />
    <glyph glyph-name="igrave" unicode="&#xec;" horiz-adv-x="637" 
d="M241 1181l-79.002 121.999c-22.667 34 -41.5 64.333 -56.5 91s-26.167 51.5 -33.5 74.5s-11 47.167 -11 72.5c0 21.333 3.66699 39.833 11 55.5s17.333 28.834 30 39.501s27.334 18.5 44.001 23.5s34.334 7.5 53.001 7.5c26.667 0 54.167 -4.83301 82.5 -14.5
s54.5 -23.167 78.5 -40.5l-58 -169l95 -262h-156zM455.998 1040v-1040h-275v1040h275z" />
    <glyph glyph-name="iacute" unicode="&#xed;" horiz-adv-x="635" 
d="M269 1622c24 17.333 50.165 30.834 78.498 40.501s55.833 14.5 82.5 14.5c18.667 0 36.334 -2.5 53.001 -7.5s31.334 -12.833 44.001 -23.5s22.667 -23.834 30 -39.501s11 -34.167 11 -55.5c0 -25.333 -3.66699 -49.5 -11 -72.5s-18.5 -47.833 -33.5 -74.5
s-33.833 -57 -56.5 -91l-79 -122h-156l95 262zM455.998 1040v-1040h-275v1040h275z" />
    <glyph glyph-name="icircumflex" unicode="&#xee;" horiz-adv-x="665" 
d="M332 1532l331 -254l-75 -87l-256 111l-256 -111l-75 87zM486 1040v-1040h-275v1040h275z" />
    <glyph glyph-name="idieresis" unicode="&#xef;" horiz-adv-x="637" 
d="M80 1456c18.667 0 36.3311 -3.66406 52.998 -10.9971s31.334 -17.333 44.001 -30s22.667 -27.334 30 -44.001s11 -34.334 11 -53.001c0 -19.333 -3.66699 -37.5 -11 -54.5s-17.166 -31.833 -29.499 -44.5s-27 -22.667 -44 -30s-34.833 -11 -53.5 -11
c-19.333 0 -37.666 3.66699 -54.999 11s-32.5 17.333 -45.5 30s-23.167 27.5 -30.5 44.5s-11 35.167 -11 54.5c0 18.667 3.66699 36.5 11 53.5s17.5 31.667 30.5 44s28.167 22.166 45.5 29.499s35.666 11 54.999 11zM561.997 1456
c18.667 0 36.3311 -3.66406 52.998 -10.9971s31.334 -17.333 44.001 -30s22.667 -27.334 30 -44.001s11 -34.334 11 -53.001c0 -19.333 -3.66699 -37.5 -11 -54.5s-17.166 -31.833 -29.499 -44.5s-27 -22.667 -44 -30s-34.833 -11 -53.5 -11
c-19.333 0 -37.666 3.66699 -54.999 11s-32.5 17.333 -45.5 30s-23.167 27.5 -30.5 44.5s-11 35.167 -11 54.5c0 18.667 3.66699 36.5 11 53.5s17.5 31.667 30.5 44s28.167 22.166 45.5 29.499s35.666 11 54.999 11zM455.994 1040.01v-1040h-275v1040h275z" />
    <glyph glyph-name="eth" unicode="&#xf0;" horiz-adv-x="1238" 
d="M877 1635v-230.005l-67 -54c60 -34 111.333 -77 154 -129s77.667 -111.167 105 -177.5s47.333 -139.333 60 -219s19 -164.5 19 -254.5c0 -95.333 -11.5 -180.166 -34.5 -254.499s-57 -136.833 -102 -187.5s-101 -89.167 -168 -115.5s-144.5 -39.5 -232.5 -39.5
c-78 0 -149 10.333 -213 31s-118.833 51.834 -164.5 93.501s-81 94 -106 157s-37.5 136.833 -37.5 221.5c0 170 46.667 294 140 372c22 18.667 46 34.334 72 47.001s53.167 23 81.5 31s57.5 13.667 87.5 17s60 5 90 5c53.333 0 104 -4.66699 152 -14s88.333 -21 121 -35
c-16 70.667 -39.5 131.834 -70.5 183.501s-72.5 94.5 -124.5 128.5l-264 -215v233l73 58c-64 14 -137.333 22 -220 24l24 156c32 -1.33301 64.333 -3.16602 97 -5.49902s64.5 -5.33301 95.5 -9s60.833 -8 89.5 -13s55 -10.833 79 -17.5zM597 766.995
c-44 0 -80.167 -7.66602 -108.5 -22.999s-50.666 -36.333 -66.999 -63s-27.833 -57.5 -34.5 -92.5s-10 -72.5 -10 -112.5c0 -46 4.66699 -87.833 14 -125.5s23.333 -69.834 42 -96.501s42.167 -47.334 70.5 -62.001s61.833 -22 100.5 -22
c39.333 0 73.166 7.33301 101.499 22s52 33.667 71 57s34.167 49.5 45.5 78.5s20 58.167 26 87.5s9.83301 57 11.5 83s2.5 48 2.5 66c0 19.333 -0.666992 38.833 -2 58.5s-3 38.834 -5 57.501c-42 28 -84.5 49.5 -127.5 64.5s-86.5 22.5 -130.5 22.5z" />
    <glyph glyph-name="ntilde" unicode="&#xf1;" horiz-adv-x="1247" 
d="M953 1408c-2.66699 -26.667 -9.33398 -53.333 -20.001 -80s-24.5 -50.834 -41.5 -72.501s-37 -39.167 -60 -52.5s-48.5 -20 -76.5 -20c-23.333 0 -46.166 3.66699 -68.499 11s-44.166 15.333 -65.499 24s-42.333 16.667 -63 24s-41 11 -61 11
c-24.667 0 -43.167 -7.16699 -55.5 -21.5s-21.5 -33.833 -27.5 -58.5h-119c2.66699 26.667 9.33398 53.334 20.001 80.001s24.5 50.667 41.5 72s37 38.833 60 52.5s48.5 20.5 76.5 20.5c23.333 0 46.166 -3.66699 68.499 -11s44.166 -15.333 65.499 -24
s42.333 -16.667 63 -24s41 -11 61 -11c24.667 0 43.167 7.16699 55.5 21.5s21.5 33.833 27.5 58.5h119zM448 862.001c22 33.333 44.8301 62.5039 68.4971 87.5039s49 46 76 63s56.667 29.667 89 38s68.166 12.5 107.499 12.5c44 0 83 -4.83301 117 -14.5
s63.333 -23.667 88 -42s45.5 -41 62.5 -68s30.5 -57.5 40.5 -91.5c9.33301 -34 16.166 -70.833 20.499 -110.5s6.5 -82.5 6.5 -128.5v-608h-274v687c0 57.333 -13.167 101 -39.5 131s-62.166 45 -107.499 45c-25.333 0 -50.166 -6 -74.499 -18s-47.833 -27.833 -70.5 -47.5
s-43.667 -41.834 -63 -66.501s-36.666 -49.667 -51.999 -75v-656h-274v641c0 54 -0.5 99.167 -1.5 135.5s-2.83301 68.5 -5.5 96.5c-1.33301 14 -2.66602 26.333 -3.99902 37s-2.83301 21 -4.5 31s-3.66699 20.167 -6 30.5s-5.16602 22.166 -8.49902 35.499
c43.333 11.333 86.5 21.5 129.5 30.5s86.5 17.5 130.5 25.5c4.66699 -14 9 -27.833 13 -41.5s7.33301 -28.334 10 -44.001s5 -32.834 7 -51.501s4 -40 6 -64h13z" />
    <glyph glyph-name="ograve" unicode="&#xf2;" horiz-adv-x="1213" 
d="M529 1181l-79.002 121.999c-22.667 34 -41.5 64.333 -56.5 91s-26.167 51.5 -33.5 74.5s-11 47.167 -11 72.5c0 21.333 3.66699 39.833 11 55.5s17.333 28.834 30 39.501s27.334 18.5 44.001 23.5s34.334 7.5 53.001 7.5c26.667 0 54.167 -4.83301 82.5 -14.5
s54.5 -23.167 78.5 -40.5l-58 -169l95 -262h-156zM608.998 1063c87.333 0 163 -13.667 227 -41s116.833 -65.166 158.5 -113.499s72.667 -105.666 93 -171.999s30.5 -138.5 30.5 -216.5s-10.167 -150.333 -30.5 -217s-51.333 -124.167 -93 -172.5
s-94.5 -86.166 -158.5 -113.499s-139.667 -41 -227 -41s-163 13.667 -227 41s-116.833 65.166 -158.5 113.499s-72.667 105.833 -93 172.5s-30.5 139 -30.5 217s10.167 150.167 30.5 216.5s51.333 123.666 93 171.999s94.5 86.166 158.5 113.499s139.667 41 227 41z
M608.998 866.999c-48 0 -87.333 -9 -118 -27s-54.667 -42.667 -72 -74s-29.166 -68.166 -35.499 -110.499s-9.5 -87.5 -9.5 -135.5c0 -48.667 3.16699 -94.167 9.5 -136.5s18.166 -79.166 35.499 -110.499s41.333 -56 72 -74s70 -27 118 -27s87.333 9 118 27
s54.667 42.667 72 74s29.166 68.166 35.499 110.499s9.5 87.833 9.5 136.5c0 48 -3.16699 93.167 -9.5 135.5s-18.166 79.166 -35.499 110.499s-41.333 56 -72 74s-70 27 -118 27z" />
    <glyph glyph-name="oacute" unicode="&#xf3;" horiz-adv-x="1213" 
d="M573 1612c24 17.333 50.165 30.834 78.498 40.501s55.833 14.5 82.5 14.5c18.667 0 36.334 -2.5 53.001 -7.5s31.334 -12.833 44.001 -23.5s22.667 -23.834 30 -39.501s11 -34.167 11 -55.5c0 -25.333 -3.66699 -49.5 -11 -72.5s-18.5 -47.833 -33.5 -74.5
s-33.833 -57 -56.5 -91l-79 -122h-156l95 262zM608.998 1063c87.333 0 163 -13.667 227 -41s116.833 -65.166 158.5 -113.499s72.667 -105.666 93 -171.999s30.5 -138.5 30.5 -216.5s-10.167 -150.333 -30.5 -217s-51.333 -124.167 -93 -172.5
s-94.5 -86.166 -158.5 -113.499s-139.667 -41 -227 -41s-163 13.667 -227 41s-116.833 65.166 -158.5 113.499s-72.667 105.833 -93 172.5s-30.5 139 -30.5 217s10.167 150.167 30.5 216.5s51.333 123.666 93 171.999s94.5 86.166 158.5 113.499s139.667 41 227 41z
M608.998 867.001c-48 0 -87.333 -9 -118 -27s-54.667 -42.667 -72 -74s-29.166 -68.166 -35.499 -110.499s-9.5 -87.5 -9.5 -135.5c0 -48.667 3.16699 -94.167 9.5 -136.5s18.166 -79.166 35.499 -110.499s41.333 -56 72 -74s70 -27 118 -27s87.333 9 118 27
s54.667 42.667 72 74s29.166 68.166 35.499 110.499s9.5 87.833 9.5 136.5c0 48 -3.16699 93.167 -9.5 135.5s-18.166 79.166 -35.499 110.499s-41.333 56 -72 74s-70 27 -118 27z" />
    <glyph glyph-name="ocircumflex" unicode="&#xf4;" horiz-adv-x="1213" 
d="M607 1522l331 -254l-75 -87l-256 111l-256 -111l-75 87zM609 1063c87.333 0 163 -13.667 227 -41s116.833 -65.166 158.5 -113.499s72.667 -105.666 93 -171.999s30.5 -138.5 30.5 -216.5s-10.167 -150.333 -30.5 -217s-51.333 -124.167 -93 -172.5
s-94.5 -86.166 -158.5 -113.499s-139.667 -41 -227 -41s-163 13.667 -227 41s-116.833 65.166 -158.5 113.499s-72.667 105.833 -93 172.5s-30.5 139 -30.5 217s10.167 150.167 30.5 216.5s51.333 123.666 93 171.999s94.5 86.166 158.5 113.499s139.667 41 227 41zM609 867
c-48 0 -87.333 -9 -118 -27s-54.667 -42.667 -72 -74s-29.166 -68.166 -35.499 -110.499s-9.5 -87.5 -9.5 -135.5c0 -48.667 3.16699 -94.167 9.5 -136.5s18.166 -79.166 35.499 -110.499s41.333 -56 72 -74s70 -27 118 -27s87.333 9 118 27s54.667 42.667 72 74
s29.166 68.166 35.499 110.499s9.5 87.833 9.5 136.5c0 48 -3.16699 93.167 -9.5 135.5s-18.166 79.166 -35.499 110.499s-41.333 56 -72 74s-70 27 -118 27z" />
    <glyph glyph-name="otilde" unicode="&#xf5;" horiz-adv-x="1213" 
d="M936 1408c-2.66699 -26.667 -9.33398 -53.333 -20.001 -80s-24.5 -50.834 -41.5 -72.501s-37 -39.167 -60 -52.5s-48.5 -20 -76.5 -20c-23.333 0 -46.166 3.66699 -68.499 11s-44.166 15.333 -65.499 24s-42.333 16.667 -63 24s-41 11 -61 11
c-24.667 0 -43.167 -7.16699 -55.5 -21.5s-21.5 -33.833 -27.5 -58.5h-119c2.66699 26.667 9.33398 53.334 20.001 80.001s24.5 50.667 41.5 72s37 38.833 60 52.5s48.5 20.5 76.5 20.5c23.333 0 46.166 -3.66699 68.499 -11s44.166 -15.333 65.499 -24
s42.333 -16.667 63 -24s41 -11 61 -11c24.667 0 43.167 7.16699 55.5 21.5s21.5 33.833 27.5 58.5h119zM609 1063c87.333 0 163 -13.667 227 -41s116.833 -65.166 158.5 -113.499s72.667 -105.666 93 -171.999s30.5 -138.5 30.5 -216.5s-10.167 -150.333 -30.5 -217
s-51.333 -124.167 -93 -172.5s-94.5 -86.166 -158.5 -113.499s-139.667 -41 -227 -41s-163 13.667 -227 41s-116.833 65.166 -158.5 113.499s-72.667 105.833 -93 172.5s-30.5 139 -30.5 217s10.167 150.167 30.5 216.5s51.333 123.666 93 171.999
s94.5 86.166 158.5 113.499s139.667 41 227 41zM609 867.001c-48 0 -87.333 -9 -118 -27s-54.667 -42.667 -72 -74s-29.166 -68.166 -35.499 -110.499s-9.5 -87.5 -9.5 -135.5c0 -48.667 3.16699 -94.167 9.5 -136.5s18.166 -79.166 35.499 -110.499s41.333 -56 72 -74
s70 -27 118 -27s87.333 9 118 27s54.667 42.667 72 74s29.166 68.166 35.499 110.499s9.5 87.833 9.5 136.5c0 48 -3.16699 93.167 -9.5 135.5s-18.166 79.166 -35.499 110.499s-41.333 56 -72 74s-70 27 -118 27z" />
    <glyph glyph-name="odieresis" unicode="&#xf6;" horiz-adv-x="1213" 
d="M368 1456c18.667 0 36.3311 -3.66406 52.998 -10.9971s31.334 -17.333 44.001 -30s22.667 -27.334 30 -44.001s11 -34.334 11 -53.001c0 -19.333 -3.66699 -37.5 -11 -54.5s-17.166 -31.833 -29.499 -44.5s-27 -22.667 -44 -30s-34.833 -11 -53.5 -11
c-19.333 0 -37.666 3.66699 -54.999 11s-32.5 17.333 -45.5 30s-23.167 27.5 -30.5 44.5s-11 35.167 -11 54.5c0 18.667 3.66699 36.5 11 53.5s17.5 31.667 30.5 44s28.167 22.166 45.5 29.499s35.666 11 54.999 11zM849.997 1456
c18.667 0 36.3311 -3.66406 52.998 -10.9971s31.334 -17.333 44.001 -30s22.667 -27.334 30 -44.001s11 -34.334 11 -53.001c0 -19.333 -3.66699 -37.5 -11 -54.5s-17.166 -31.833 -29.499 -44.5s-27 -22.667 -44 -30s-34.833 -11 -53.5 -11
c-19.333 0 -37.666 3.66699 -54.999 11s-32.5 17.333 -45.5 30s-23.167 27.5 -30.5 44.5s-11 35.167 -11 54.5c0 18.667 3.66699 36.5 11 53.5s17.5 31.667 30.5 44s28.167 22.166 45.5 29.499s35.666 11 54.999 11zM608.994 1063.01c87.333 0 163 -13.667 227 -41
s116.833 -65.166 158.5 -113.499s72.667 -105.666 93 -171.999s30.5 -138.5 30.5 -216.5s-10.167 -150.333 -30.5 -217s-51.333 -124.167 -93 -172.5s-94.5 -86.166 -158.5 -113.499s-139.667 -41 -227 -41s-163 13.667 -227 41s-116.833 65.166 -158.5 113.499
s-72.667 105.833 -93 172.5s-30.5 139 -30.5 217s10.167 150.167 30.5 216.5s51.333 123.666 93 171.999s94.5 86.166 158.5 113.499s139.667 41 227 41zM608.994 867.006c-48 0 -87.333 -9 -118 -27s-54.667 -42.667 -72 -74s-29.166 -68.166 -35.499 -110.499
s-9.5 -87.5 -9.5 -135.5c0 -48.667 3.16699 -94.167 9.5 -136.5s18.166 -79.166 35.499 -110.499s41.333 -56 72 -74s70 -27 118 -27s87.333 9 118 27s54.667 42.667 72 74s29.166 68.166 35.499 110.499s9.5 87.833 9.5 136.5c0 48 -3.16699 93.167 -9.5 135.5
s-18.166 79.166 -35.499 110.499s-41.333 56 -72 74s-70 27 -118 27z" />
    <glyph glyph-name="divide" unicode="&#xf7;" horiz-adv-x="1216" 
d="M608 1076c21.333 0 40.668 -3.66602 58.001 -10.999s32.166 -17.5 44.499 -30.5s21.833 -28 28.5 -45s10 -35.167 10 -54.5s-3.66699 -37.5 -11 -54.5s-17.5 -32 -30.5 -45s-28 -23.167 -45 -30.5s-35.167 -11 -54.5 -11s-37.5 3.66699 -54.5 11s-32 17.5 -45 30.5
s-23.167 28 -30.5 45s-11 35.167 -11 54.5c0 20.667 3.83301 39.667 11.5 57s18 32.166 31 44.499s28 22 45 29s34.833 10.5 53.5 10.5zM1066 657.001v-190h-916v190h916zM608.002 330.001c21.333 0 40.668 -3.66602 58.001 -10.999s32.166 -17.5 44.499 -30.5
s21.833 -28 28.5 -45s10 -35.167 10 -54.5s-3.66699 -37.5 -11 -54.5s-17.5 -32 -30.5 -45s-28 -23.167 -45 -30.5s-35.167 -11 -54.5 -11s-37.5 3.66699 -54.5 11s-32 17.5 -45 30.5s-23.167 28 -30.5 45s-11 35.167 -11 54.5c0 20.667 3.83301 39.667 11.5 57
s18 32.166 31 44.499s28 22 45 29s34.833 10.5 53.5 10.5z" />
    <glyph glyph-name="oslash" unicode="&#xf8;" horiz-adv-x="1213" 
d="M976 928c48 -49.333 83.668 -108.667 107.001 -178s35 -146 35 -230c0 -78 -10.167 -150.333 -30.5 -217s-51.333 -124.167 -93 -172.5s-94.5 -86.166 -158.5 -113.499s-139.667 -41 -227 -41c-40 0 -77.167 2.83301 -111.5 8.5s-66.5 13.834 -96.5 24.501l-130 -208
h-229l196 314c-46.667 48.667 -81.334 107.5 -104.001 176.5s-34 145.167 -34 228.5c0 78 10.167 150.167 30.5 216.5s51.333 123.666 93 171.999s94.5 86.166 158.5 113.499s139.667 41 227 41c75.333 0 143 -10.667 203 -32l130 208h229zM700.001 851.999
c-26 10 -56.333 14.999 -91 14.999c-48 0 -87.333 -9 -118 -27s-54.667 -42.667 -72 -74s-29.166 -68.166 -35.499 -110.499s-9.5 -87.5 -9.5 -135.5c0 -30 1.16699 -58.833 3.5 -86.5s6.16602 -53.5 11.499 -77.5zM513.001 187.998
c28.667 -10.667 60.668 -15.9971 96.001 -15.9971c48 0 87.333 9 118 27s54.667 42.667 72 74s29.166 68.166 35.499 110.499s9.5 87.833 9.5 136.5c0 31.333 -1.16699 61.166 -3.5 89.499s-6.83301 55.166 -13.5 80.499z" />
    <glyph glyph-name="ugrave" unicode="&#xf9;" horiz-adv-x="1258" 
d="M545 1181l-79.002 121.999c-22.667 34 -41.5 64.333 -56.5 91s-26.167 51.5 -33.5 74.5s-11 47.167 -11 72.5c0 21.333 3.66699 39.833 11 55.5s17.333 28.834 30 39.501s27.334 18.5 44.001 23.5s34.334 7.5 53.001 7.5c26.667 0 54.167 -4.83301 82.5 -14.5
s54.5 -23.167 78.5 -40.5l-58 -169l95 -262h-156zM1100 1040l0.00488281 -642c0 -54 0.5 -99.167 1.5 -135.5s2.83301 -68.5 5.5 -96.5c1.33301 -14 2.66602 -26.333 3.99902 -37s2.83301 -21 4.5 -31s3.66699 -20.333 6 -31s5.16602 -22.334 8.49902 -35.001
c-43.333 -11.333 -86.5 -21.5 -129.5 -30.5s-86.5 -17.5 -130.5 -25.5c-5.33301 14 -9.83301 27.833 -13.5 41.5s-6.83398 28.334 -9.50098 44.001s-5 32.834 -7 51.501s-4 40 -6 64h-13c-22 -33.333 -44.833 -62.5 -68.5 -87.5s-49 -46 -76 -63s-56.667 -29.667 -89 -38
s-68.166 -12.5 -107.499 -12.5c-83.333 0 -148.833 16.833 -196.5 50.5s-82.167 81.5 -103.5 143.5c-12.667 36 -21.667 75.667 -27 119s-8 90.666 -8 141.999v609h274v-688c0 -57.333 13.167 -101 39.5 -131s62.166 -45 107.499 -45c25.333 0 50.166 6 74.499 18
s47.833 27.667 70.5 47s43.667 41.5 63 66.5s36.666 50.167 51.999 75.5v657h274z" />
    <glyph glyph-name="uacute" unicode="&#xfa;" horiz-adv-x="1258" 
d="M589 1612c24 17.333 50.165 30.834 78.498 40.501s55.833 14.5 82.5 14.5c18.667 0 36.334 -2.5 53.001 -7.5s31.334 -12.833 44.001 -23.5s22.667 -23.834 30 -39.501s11 -34.167 11 -55.5c0 -25.333 -3.66699 -49.5 -11 -72.5s-18.5 -47.833 -33.5 -74.5
s-33.833 -57 -56.5 -91l-79 -122h-156l95 262zM1100 1040l0.00488281 -642c0 -54 0.5 -99.167 1.5 -135.5s2.83301 -68.5 5.5 -96.5c1.33301 -14 2.66602 -26.333 3.99902 -37s2.83301 -21 4.5 -31s3.66699 -20.333 6 -31s5.16602 -22.334 8.49902 -35.001
c-43.333 -11.333 -86.5 -21.5 -129.5 -30.5s-86.5 -17.5 -130.5 -25.5c-5.33301 14 -9.83301 27.833 -13.5 41.5s-6.83398 28.334 -9.50098 44.001s-5 32.834 -7 51.501s-4 40 -6 64h-13c-22 -33.333 -44.833 -62.5 -68.5 -87.5s-49 -46 -76 -63s-56.667 -29.667 -89 -38
s-68.166 -12.5 -107.499 -12.5c-83.333 0 -148.833 16.833 -196.5 50.5s-82.167 81.5 -103.5 143.5c-12.667 36 -21.667 75.667 -27 119s-8 90.666 -8 141.999v609h274v-688c0 -57.333 13.167 -101 39.5 -131s62.166 -45 107.499 -45c25.333 0 50.166 6 74.499 18
s47.833 27.667 70.5 47s43.667 41.5 63 66.5s36.666 50.167 51.999 75.5v657h274z" />
    <glyph glyph-name="ucircumflex" unicode="&#xfb;" horiz-adv-x="1258" 
d="M623 1522l331 -254l-75 -87l-256 111l-256 -111l-75 87zM1100 1040l0.00488281 -642c0 -54 0.5 -99.167 1.5 -135.5s2.83301 -68.5 5.5 -96.5c1.33301 -14 2.66602 -26.333 3.99902 -37s2.83301 -21 4.5 -31s3.66699 -20.333 6 -31s5.16602 -22.334 8.49902 -35.001
c-43.333 -11.333 -86.5 -21.5 -129.5 -30.5s-86.5 -17.5 -130.5 -25.5c-5.33301 14 -9.83301 27.833 -13.5 41.5s-6.83398 28.334 -9.50098 44.001s-5 32.834 -7 51.501s-4 40 -6 64h-13c-22 -33.333 -44.833 -62.5 -68.5 -87.5s-49 -46 -76 -63s-56.667 -29.667 -89 -38
s-68.166 -12.5 -107.499 -12.5c-83.333 0 -148.833 16.833 -196.5 50.5s-82.167 81.5 -103.5 143.5c-12.667 36 -21.667 75.667 -27 119s-8 90.666 -8 141.999v609h274v-688c0 -57.333 13.167 -101 39.5 -131s62.166 -45 107.499 -45c25.333 0 50.166 6 74.499 18
s47.833 27.667 70.5 47s43.667 41.5 63 66.5s36.666 50.167 51.999 75.5v657h274z" />
    <glyph glyph-name="udieresis" unicode="&#xfc;" horiz-adv-x="1258" 
d="M384 1456c18.667 0 36.3311 -3.66406 52.998 -10.9971s31.334 -17.333 44.001 -30s22.667 -27.334 30 -44.001s11 -34.334 11 -53.001c0 -19.333 -3.66699 -37.5 -11 -54.5s-17.166 -31.833 -29.499 -44.5s-27 -22.667 -44 -30s-34.833 -11 -53.5 -11
c-19.333 0 -37.666 3.66699 -54.999 11s-32.5 17.333 -45.5 30s-23.167 27.5 -30.5 44.5s-11 35.167 -11 54.5c0 18.667 3.66699 36.5 11 53.5s17.5 31.667 30.5 44s28.167 22.166 45.5 29.499s35.666 11 54.999 11zM865.997 1456
c18.667 0 36.3311 -3.66406 52.998 -10.9971s31.334 -17.333 44.001 -30s22.667 -27.334 30 -44.001s11 -34.334 11 -53.001c0 -19.333 -3.66699 -37.5 -11 -54.5s-17.166 -31.833 -29.499 -44.5s-27 -22.667 -44 -30s-34.833 -11 -53.5 -11
c-19.333 0 -37.666 3.66699 -54.999 11s-32.5 17.333 -45.5 30s-23.167 27.5 -30.5 44.5s-11 35.167 -11 54.5c0 18.667 3.66699 36.5 11 53.5s17.5 31.667 30.5 44s28.167 22.166 45.5 29.499s35.666 11 54.999 11zM1099.99 1040.01l0.00488281 -642
c0 -54 0.5 -99.167 1.5 -135.5s2.83301 -68.5 5.5 -96.5c1.33301 -14 2.66602 -26.333 3.99902 -37s2.83301 -21 4.5 -31s3.66699 -20.333 6 -31s5.16602 -22.334 8.49902 -35.001c-43.333 -11.333 -86.5 -21.5 -129.5 -30.5s-86.5 -17.5 -130.5 -25.5
c-5.33301 14 -9.83301 27.833 -13.5 41.5s-6.83398 28.334 -9.50098 44.001s-5 32.834 -7 51.501s-4 40 -6 64h-13c-22 -33.333 -44.833 -62.5 -68.5 -87.5s-49 -46 -76 -63s-56.667 -29.667 -89 -38s-68.166 -12.5 -107.499 -12.5c-83.333 0 -148.833 16.833 -196.5 50.5
s-82.167 81.5 -103.5 143.5c-12.667 36 -21.667 75.667 -27 119s-8 90.666 -8 141.999v609h274v-688c0 -57.333 13.167 -101 39.5 -131s62.166 -45 107.499 -45c25.333 0 50.166 6 74.499 18s47.833 27.667 70.5 47s43.667 41.5 63 66.5s36.666 50.167 51.999 75.5v657h274z
" />
    <glyph glyph-name="yacute" unicode="&#xfd;" horiz-adv-x="1286" 
d="M605 1612c24 17.333 50.165 30.834 78.498 40.501s55.833 14.5 82.5 14.5c18.667 0 36.334 -2.5 53.001 -7.5s31.334 -12.833 44.001 -23.5s22.667 -23.834 30 -39.501s11 -34.167 11 -55.5c0 -25.333 -3.66699 -49.5 -11 -72.5s-18.5 -47.833 -33.5 -74.5
s-33.833 -57 -56.5 -91l-79 -122h-156l95 262zM1113 1040l0.00292969 -1032c0 -78 -12.5 -144.167 -37.5 -198.5s-60.333 -98.5 -106 -132.5s-100.334 -58.667 -164.001 -74s-133.834 -23 -210.501 -23c-59.333 0 -119.5 5.16699 -180.5 15.5s-117.5 25.833 -169.5 46.5
l43 98l45 96c48 -15.333 96.667 -28.5 146 -39.5s97 -16.5 143 -16.5c13.333 0 27.833 0.5 43.5 1.5s31.5 3.5 47.5 7.5s31.667 10.167 47 18.5s28.833 19.666 40.5 33.999s21.167 32.333 28.5 54s11.333 47.834 12 78.501v203h-9c-22 -33.333 -44.833 -62.5 -68.5 -87.5
s-49.167 -46 -76.5 -63s-57.333 -29.667 -90 -38s-69 -12.5 -109 -12.5c-65.333 0 -119.333 10.333 -162 31s-77 50.334 -103 89.001c-25.333 40 -43.333 88 -54 144s-16 119.667 -16 191v609h274v-688c0 -57.333 13.333 -101 40 -131s63.334 -45 110.001 -45
c25.333 0 50.166 6 74.499 18s47.833 27.667 70.5 47s43.667 41.5 63 66.5s36.666 50.167 51.999 75.5v657h276z" />
    <glyph glyph-name="thorn" unicode="&#xfe;" horiz-adv-x="1196" 
d="M411 1440l0.00292969 -547.001h3c76 113.333 181 170 315 170c70 0 129 -13.667 177 -41s86.833 -64.166 116.5 -110.499s51 -100 64 -161s19.5 -125.5 19.5 -193.5c0 -90 -10.333 -170.833 -31 -242.5s-54.334 -132.5 -101.001 -182.5s-107.834 -88.5 -183.501 -115.5
s-168.834 -40.5 -279.501 -40.5c-34.667 0 -68 1 -100 3v-379h-273v1840h273zM411.003 193.999c28.667 -5.33301 58 -9.66699 88 -13s62 -5 96 -5c34.667 0 66.5 6.16699 95.5 18.5s54 31 75 56s37.333 56.333 49 94s17.5 81.5 17.5 131.5c0 56.667 -2.33301 108.667 -7 156
s-14 88.166 -28 122.499s-34 61 -60 80s-60.333 28.5 -103 28.5c-26 0 -49.5 -4.66699 -70.5 -14s-40.333 -22.166 -58 -38.499s-34.167 -36 -49.5 -59s-30.333 -47.833 -45 -74.5v-483z" />
    <glyph glyph-name="ydieresis" unicode="&#xff;" horiz-adv-x="1286" 
d="M400 1456c18.667 0 36.3311 -3.66406 52.998 -10.9971s31.334 -17.333 44.001 -30s22.667 -27.334 30 -44.001s11 -34.334 11 -53.001c0 -19.333 -3.66699 -37.5 -11 -54.5s-17.166 -31.833 -29.499 -44.5s-27 -22.667 -44 -30s-34.833 -11 -53.5 -11
c-19.333 0 -37.666 3.66699 -54.999 11s-32.5 17.333 -45.5 30s-23.167 27.5 -30.5 44.5s-11 35.167 -11 54.5c0 18.667 3.66699 36.5 11 53.5s17.5 31.667 30.5 44s28.167 22.166 45.5 29.499s35.666 11 54.999 11zM881.997 1456
c18.667 0 36.3311 -3.66406 52.998 -10.9971s31.334 -17.333 44.001 -30s22.667 -27.334 30 -44.001s11 -34.334 11 -53.001c0 -19.333 -3.66699 -37.5 -11 -54.5s-17.166 -31.833 -29.499 -44.5s-27 -22.667 -44 -30s-34.833 -11 -53.5 -11
c-19.333 0 -37.666 3.66699 -54.999 11s-32.5 17.333 -45.5 30s-23.167 27.5 -30.5 44.5s-11 35.167 -11 54.5c0 18.667 3.66699 36.5 11 53.5s17.5 31.667 30.5 44s28.167 22.166 45.5 29.499s35.666 11 54.999 11zM1112.99 1040.01l0.00292969 -1032
c0 -78 -12.5 -144.167 -37.5 -198.5s-60.333 -98.5 -106 -132.5s-100.334 -58.667 -164.001 -74s-133.834 -23 -210.501 -23c-59.333 0 -119.5 5.16699 -180.5 15.5s-117.5 25.833 -169.5 46.5l43 98l45 96c48 -15.333 96.667 -28.5 146 -39.5s97 -16.5 143 -16.5
c13.333 0 27.833 0.5 43.5 1.5s31.5 3.5 47.5 7.5s31.667 10.167 47 18.5s28.833 19.666 40.5 33.999s21.167 32.333 28.5 54s11.333 47.834 12 78.501v203h-9c-22 -33.333 -44.833 -62.5 -68.5 -87.5s-49.167 -46 -76.5 -63s-57.333 -29.667 -90 -38s-69 -12.5 -109 -12.5
c-65.333 0 -119.333 10.333 -162 31s-77 50.334 -103 89.001c-25.333 40 -43.333 88 -54 144s-16 119.667 -16 191v609h274v-688c0 -57.333 13.333 -101 40 -131s63.334 -45 110.001 -45c25.333 0 50.166 6 74.499 18s47.833 27.667 70.5 47s43.667 41.5 63 66.5
s36.666 50.167 51.999 75.5v657h276z" />
    <glyph glyph-name="Amacron" unicode="&#x100;" horiz-adv-x="1454" 
d="M1030 1805v-171h-605v171h605zM865 1438l543 -1438h-282l-164 442h-474l-164 -442h-282l543 1438h280zM725 1141l-163 -498h326z" />
    <glyph glyph-name="amacron" unicode="&#x101;" horiz-adv-x="1141" 
d="M899 1418v-171h-605v171h605zM187 989c24.667 10 52.833 19.335 84.5 28.002s65.334 16.5 101.001 23.5s72.667 12.5 111 16.5s77.166 6 116.499 6c55.333 0 107.166 -4.33301 155.499 -13s88.5 -23 120.5 -43s57 -47.167 75 -81.5s27 -77.5 27 -129.5v-406
c0 -46.667 0.333008 -88.167 1 -124.5s2 -71.833 4 -106.5c1.33301 -12.667 2.66602 -24.167 3.99902 -34.5s2.83301 -20.333 4.5 -30s3.66699 -19.834 6 -30.501s5.16602 -22.334 8.49902 -35.001l-123.5 -27c-41 -8.66699 -82.5 -17 -124.5 -25
c-7.33301 18.667 -13.166 37.834 -17.499 57.501s-8.16602 42.167 -11.499 67.5h-15c-23.333 -24 -46.666 -44 -69.999 -60s-47.666 -29 -72.999 -39s-51.666 -17 -78.999 -21s-56 -6 -86 -6c-46 0 -88.667 5.5 -128 16.5s-73.5 27.833 -102.5 50.5s-51.667 51.5 -68 86.5
s-24.5 76.167 -24.5 123.5c0 40 4.16699 75.667 12.5 107s20.166 59.333 35.499 84s33.666 46.334 54.999 65.001s45 35 71 49c52 28 110 47.167 174 57.5s129.333 15.5 196 15.5h86v130c0 24.667 -3.83301 44.167 -11.5 58.5s-18 25.166 -31 32.499
s-28.167 12.166 -45.5 14.499s-36 3.5 -56 3.5c-54 0 -108.5 -6.83301 -163.5 -20.5s-107.5 -30.5 -157.5 -50.5zM712.999 484.002h-19.999c-47.333 -0.666992 -92.5 -4.16699 -135.5 -10.5s-80.833 -17.166 -113.5 -32.499s-58.834 -35.5 -78.501 -60.5
s-29.5 -56.5 -29.5 -94.5c0 -42 12.167 -74.333 36.5 -97s58.5 -34 102.5 -34c20.667 0 42 2.83301 64 8.5s43.667 13.667 65 24s41.333 23.166 60 38.499s35 33 49 53v205z" />
    <glyph glyph-name="Abreve" unicode="&#x102;" horiz-adv-x="1454" 
d="M1055 1904c-12 -96.667 -45.833 -170.667 -101.5 -222s-131.167 -77 -226.5 -77s-170.833 25.667 -226.5 77s-89.5 125.333 -101.5 222h100c24 -50 55 -84.667 93 -104s83 -29 135 -29s97 9.66699 135 29s69 54 93 104h100zM865 1438l543 -1438h-282l-164 442h-474
l-164 -442h-282l543 1438h280zM725 1141l-163 -498h326z" />
    <glyph glyph-name="abreve" unicode="&#x103;" horiz-adv-x="1141" 
d="M924 1517c-12 -96.667 -45.833 -170.667 -101.5 -222s-131.167 -77 -226.5 -77s-170.833 25.667 -226.5 77s-89.5 125.333 -101.5 222h100c24 -50 55 -84.667 93 -104s83 -29 135 -29s97 9.66699 135 29s69 54 93 104h100zM187 989c24.667 10 52.833 19.335 84.5 28.002
s65.334 16.5 101.001 23.5s72.667 12.5 111 16.5s77.166 6 116.499 6c55.333 0 107.166 -4.33301 155.499 -13s88.5 -23 120.5 -43s57 -47.167 75 -81.5s27 -77.5 27 -129.5v-406c0 -46.667 0.333008 -88.167 1 -124.5s2 -71.833 4 -106.5
c1.33301 -12.667 2.66602 -24.167 3.99902 -34.5s2.83301 -20.333 4.5 -30s3.66699 -19.834 6 -30.501s5.16602 -22.334 8.49902 -35.001l-123.5 -27c-41 -8.66699 -82.5 -17 -124.5 -25c-7.33301 18.667 -13.166 37.834 -17.499 57.501s-8.16602 42.167 -11.499 67.5h-15
c-23.333 -24 -46.666 -44 -69.999 -60s-47.666 -29 -72.999 -39s-51.666 -17 -78.999 -21s-56 -6 -86 -6c-46 0 -88.667 5.5 -128 16.5s-73.5 27.833 -102.5 50.5s-51.667 51.5 -68 86.5s-24.5 76.167 -24.5 123.5c0 40 4.16699 75.667 12.5 107s20.166 59.333 35.499 84
s33.666 46.334 54.999 65.001s45 35 71 49c52 28 110 47.167 174 57.5s129.333 15.5 196 15.5h86v130c0 24.667 -3.83301 44.167 -11.5 58.5s-18 25.166 -31 32.499s-28.167 12.166 -45.5 14.499s-36 3.5 -56 3.5c-54 0 -108.5 -6.83301 -163.5 -20.5
s-107.5 -30.5 -157.5 -50.5zM712.999 484.002h-19.999c-47.333 -0.666992 -92.5 -4.16699 -135.5 -10.5s-80.833 -17.166 -113.5 -32.499s-58.834 -35.5 -78.501 -60.5s-29.5 -56.5 -29.5 -94.5c0 -42 12.167 -74.333 36.5 -97s58.5 -34 102.5 -34
c20.667 0 42 2.83301 64 8.5s43.667 13.667 65 24s41.333 23.166 60 38.499s35 33 49 53v205z" />
    <glyph glyph-name="Aogonek" unicode="&#x104;" horiz-adv-x="1454" 
d="M1324 0c-20 -20.667 -37.667 -39.666 -53 -56.999s-28.333 -34 -39 -50s-18.834 -32 -24.501 -48s-8.5 -32.333 -8.5 -49c0 -32 7.16699 -54.5 21.5 -67.5s34.5 -19.5 60.5 -19.5c16 0 34 2.33301 54 7s41.333 10.667 64 18l-6 -95
c-25.333 -14.667 -51.166 -26.167 -77.499 -34.5s-57.833 -12.5 -94.5 -12.5c-24.667 0 -47.5 3.66699 -68.5 11s-39 18.166 -54 32.499s-26.833 31.833 -35.5 52.5s-13 44 -13 70c0 24.667 3.5 47.167 10.5 67.5s17 40 30 59s28.5 37.667 46.5 56l61 59.5h-72l-164 442
h-474l-164 -442h-282l543 1438h280l543 -1438h-84zM888 643.001l-163 498l-163 -498h326z" />
    <glyph glyph-name="aogonek" unicode="&#x105;" horiz-adv-x="1141" 
d="M978 390c0 -46.667 0.330078 -88.1631 0.99707 -124.496s2 -71.833 4 -106.5c1.33301 -12.667 2.66602 -24.167 3.99902 -34.5s2.83301 -20.333 4.5 -30s3.66699 -19.834 6 -30.501s5.16602 -22.334 8.49902 -35.001l-73 -16l-73 -16
c-39.333 -40 -69.666 -75 -90.999 -105s-32 -62 -32 -96c0 -32 7.16699 -54.5 21.5 -67.5s34.5 -19.5 60.5 -19.5c16 0 34 2.33301 54 7s41.333 10.667 64 18l-6 -95c-25.333 -14.667 -51.166 -26.167 -77.499 -34.5s-57.833 -12.5 -94.5 -12.5
c-24.667 0 -47.5 3.66699 -68.5 11s-39 18.166 -54 32.499s-26.833 31.833 -35.5 52.5s-13 44 -13 70s3.83301 49.5 11.5 70.5s18.334 41.167 32.001 60.5s30.334 38.833 50.001 58.5l65.5 62.5c-8 27.333 -14 58 -18 92h-15c-23.333 -24 -46.666 -44 -69.999 -60
s-47.666 -29 -72.999 -39s-51.666 -17 -78.999 -21s-56 -6 -86 -6c-46 0 -88.667 5.5 -128 16.5s-73.5 27.833 -102.5 50.5s-51.667 51.5 -68 86.5s-24.5 76.167 -24.5 123.5c0 40 4.16699 75.667 12.5 107s20.166 59.333 35.499 84s33.666 46.334 54.999 65.001
s45 35 71 49c52 28 110 47.167 174 57.5s129.333 15.5 196 15.5h86v130c0 24.667 -3.83301 44.167 -11.5 58.5s-18 25.166 -31 32.499s-28.167 12.166 -45.5 14.499s-36 3.5 -56 3.5c-54 0 -108.5 -6.83301 -163.5 -20.5s-107.5 -30.5 -157.5 -50.5l-61 190
c24.667 10 52.834 19.333 84.501 28s65.334 16.5 101.001 23.5s72.667 12.5 111 16.5s77.166 6 116.499 6c55.333 0 107.166 -4.33301 155.499 -13s88.5 -23 120.5 -43s57 -47.167 75 -81.5s27 -77.5 27 -129.5v-406zM712.997 484.004h-19.999
c-47.333 -0.666992 -92.5 -4.16699 -135.5 -10.5s-80.833 -17.166 -113.5 -32.499s-58.834 -35.5 -78.501 -60.5s-29.5 -56.5 -29.5 -94.5c0 -42 12.167 -74.333 36.5 -97s58.5 -34 102.5 -34c20.667 0 42 2.83301 64 8.5s43.667 13.667 65 24s41.333 23.166 60 38.499
s35 33 49 53v205z" />
    <glyph glyph-name="Cacute" unicode="&#x106;" horiz-adv-x="1289" 
d="M720 2009c24 17.333 50.165 30.834 78.498 40.501s55.833 14.5 82.5 14.5c18.667 0 36.334 -2.5 53.001 -7.5s31.334 -12.833 44.001 -23.5s22.667 -23.834 30 -39.501s11 -34.167 11 -55.5c0 -25.333 -3.66699 -49.5 -11 -72.5s-18.5 -47.833 -33.5 -74.5
s-33.833 -57 -56.5 -91l-79 -122h-156l95 262zM1207 40.001c-59.333 -19.333 -124.506 -34.834 -195.506 -46.501s-143.167 -17.5 -216.5 -17.5c-124.667 0 -230.167 14.5 -316.5 43.5s-156.5 73.333 -210.5 133s-93 134.667 -117 225s-36 196.833 -36 319.5
c0 128 11.833 239.667 35.5 335s61.167 174.666 112.5 237.999s117.5 110.833 198.5 142.5s179.167 47.5 294.5 47.5c40.667 0 80.834 -2 120.501 -6s77.334 -9.33301 113.001 -16s69 -14.334 100 -23.001s58.5 -17.667 82.5 -27l-66 -201
c-47.333 17.333 -97.833 32.5 -151.5 45.5s-110.167 19.5 -169.5 19.5c-71.333 0 -131.666 -10.667 -180.999 -32s-89.166 -53.666 -119.499 -96.999s-52.166 -98 -65.499 -164s-20 -143.333 -20 -232c0 -94.667 7.33301 -176.167 22 -244.5
s38.334 -124.666 71.001 -168.999s75.5 -77 128.5 -98s117.5 -31.5 193.5 -31.5c58 0 116.167 5.33301 174.5 16s112.5 24.334 162.5 41.001z" />
    <glyph glyph-name="cacute" unicode="&#x107;" horiz-adv-x="1063" 
d="M538 1612c24 17.333 50.165 30.834 78.498 40.501s55.833 14.5 82.5 14.5c18.667 0 36.334 -2.5 53.001 -7.5s31.334 -12.833 44.001 -23.5s22.667 -23.834 30 -39.501s11 -34.167 11 -55.5c0 -25.333 -3.66699 -49.5 -11 -72.5s-18.5 -47.833 -33.5 -74.5
s-33.833 -57 -56.5 -91l-79 -122h-156l95 262zM980.998 39.001c-27.333 -10 -57.3291 -18.999 -89.9961 -26.999s-65.834 -14.667 -99.501 -20s-66.834 -9.33301 -99.501 -12s-62.667 -4 -90 -4c-96.667 0 -178.334 11.333 -245.001 34s-120.5 56.167 -161.5 100.5
s-70.5 99.166 -88.5 164.499s-27 140.333 -27 225c0 88.667 11.5 168 34.5 238s57.5 129 103.5 177s103.333 84.667 172 110s149 38 241 38c53.333 0 106.333 -4.16699 159 -12.5s103 -19.5 151 -33.5l-67 -198c-40 13.333 -78.833 24 -116.5 32s-75.834 12 -114.501 12
c-51.333 0 -95.166 -8.5 -131.499 -25.5s-66.166 -40.667 -89.499 -71s-40.5 -66.5 -51.5 -108.5s-16.5 -88 -16.5 -138c0 -116 20.167 -202.333 60.5 -259s107.166 -85 200.499 -85c57.333 0 110.166 6 158.499 18s96.5 26.333 144.5 43z" />
    <glyph glyph-name="Cdotaccent" unicode="&#x10a;" horiz-adv-x="1289" 
d="M754 1853c18.667 0 36.3311 -3.66406 52.998 -10.9971s31.334 -17.333 44.001 -30s22.667 -27.334 30 -44.001s11 -34.334 11 -53.001c0 -19.333 -3.66699 -37.5 -11 -54.5s-17.166 -31.833 -29.499 -44.5s-27 -22.667 -44 -30s-34.833 -11 -53.5 -11
c-19.333 0 -37.666 3.66699 -54.999 11s-32.5 17.333 -45.5 30s-23.167 27.5 -30.5 44.5s-11 35.167 -11 54.5c0 18.667 3.66699 36.5 11 53.5s17.5 31.667 30.5 44s28.167 22.166 45.5 29.499s35.666 11 54.999 11zM1207 40.0029
c-59.333 -19.333 -124.506 -34.834 -195.506 -46.501s-143.167 -17.5 -216.5 -17.5c-124.667 0 -230.167 14.5 -316.5 43.5s-156.5 73.333 -210.5 133s-93 134.667 -117 225s-36 196.833 -36 319.5c0 128 11.833 239.667 35.5 335s61.167 174.666 112.5 237.999
s117.5 110.833 198.5 142.5s179.167 47.5 294.5 47.5c40.667 0 80.834 -2 120.501 -6s77.334 -9.33301 113.001 -16s69 -14.334 100 -23.001s58.5 -17.667 82.5 -27l-66 -201c-47.333 17.333 -97.833 32.5 -151.5 45.5s-110.167 19.5 -169.5 19.5
c-71.333 0 -131.666 -10.667 -180.999 -32s-89.166 -53.666 -119.499 -96.999s-52.166 -98 -65.499 -164s-20 -143.333 -20 -232c0 -94.667 7.33301 -176.167 22 -244.5s38.334 -124.666 71.001 -168.999s75.5 -77 128.5 -98s117.5 -31.5 193.5 -31.5
c58 0 116.167 5.33301 174.5 16s112.5 24.334 162.5 41.001z" />
    <glyph glyph-name="cdotaccent" unicode="&#x10b;" horiz-adv-x="1063" 
d="M572 1456c18.667 0 36.3311 -3.66406 52.998 -10.9971s31.334 -17.333 44.001 -30s22.667 -27.334 30 -44.001s11 -34.334 11 -53.001c0 -19.333 -3.66699 -37.5 -11 -54.5s-17.166 -31.833 -29.499 -44.5s-27 -22.667 -44 -30s-34.833 -11 -53.5 -11
c-19.333 0 -37.666 3.66699 -54.999 11s-32.5 17.333 -45.5 30s-23.167 27.5 -30.5 44.5s-11 35.167 -11 54.5c0 18.667 3.66699 36.5 11 53.5s17.5 31.667 30.5 44s28.167 22.166 45.5 29.499s35.666 11 54.999 11zM980.997 39.0029
c-27.333 -10 -57.3291 -18.999 -89.9961 -26.999s-65.834 -14.667 -99.501 -20s-66.834 -9.33301 -99.501 -12s-62.667 -4 -90 -4c-96.667 0 -178.334 11.333 -245.001 34s-120.5 56.167 -161.5 100.5s-70.5 99.166 -88.5 164.499s-27 140.333 -27 225
c0 88.667 11.5 168 34.5 238s57.5 129 103.5 177s103.333 84.667 172 110s149 38 241 38c53.333 0 106.333 -4.16699 159 -12.5s103 -19.5 151 -33.5l-67 -198c-40 13.333 -78.833 24 -116.5 32s-75.834 12 -114.501 12c-51.333 0 -95.166 -8.5 -131.499 -25.5
s-66.166 -40.667 -89.499 -71s-40.5 -66.5 -51.5 -108.5s-16.5 -88 -16.5 -138c0 -116 20.167 -202.333 60.5 -259s107.166 -85 200.499 -85c57.333 0 110.166 6 158.499 18s96.5 26.333 144.5 43z" />
    <glyph glyph-name="Ccaron" unicode="&#x10c;" horiz-adv-x="1289" 
d="M1010 1919l75 -87l-331 -254l-331 254l75 87l256 -111zM1207 40c-59.333 -19.333 -124.506 -34.834 -195.506 -46.501s-143.167 -17.5 -216.5 -17.5c-124.667 0 -230.167 14.5 -316.5 43.5s-156.5 73.333 -210.5 133s-93 134.667 -117 225s-36 196.833 -36 319.5
c0 128 11.833 239.667 35.5 335s61.167 174.666 112.5 237.999s117.5 110.833 198.5 142.5s179.167 47.5 294.5 47.5c40.667 0 80.834 -2 120.501 -6s77.334 -9.33301 113.001 -16s69 -14.334 100 -23.001s58.5 -17.667 82.5 -27l-66 -201
c-47.333 17.333 -97.833 32.5 -151.5 45.5s-110.167 19.5 -169.5 19.5c-71.333 0 -131.666 -10.667 -180.999 -32s-89.166 -53.666 -119.499 -96.999s-52.166 -98 -65.499 -164s-20 -143.333 -20 -232c0 -94.667 7.33301 -176.167 22 -244.5
s38.334 -124.666 71.001 -168.999s75.5 -77 128.5 -98s117.5 -31.5 193.5 -31.5c58 0 116.167 5.33301 174.5 16s112.5 24.334 162.5 41.001z" />
    <glyph glyph-name="ccaron" unicode="&#x10d;" horiz-adv-x="1063" 
d="M828 1522l75 -87l-331 -254l-331 254l75 87l256 -111zM981 39c-27.333 -10 -57.3291 -18.999 -89.9961 -26.999s-65.834 -14.667 -99.501 -20s-66.834 -9.33301 -99.501 -12s-62.667 -4 -90 -4c-96.667 0 -178.334 11.333 -245.001 34s-120.5 56.167 -161.5 100.5
s-70.5 99.166 -88.5 164.499s-27 140.333 -27 225c0 88.667 11.5 168 34.5 238s57.5 129 103.5 177s103.333 84.667 172 110s149 38 241 38c53.333 0 106.333 -4.16699 159 -12.5s103 -19.5 151 -33.5l-67 -198c-40 13.333 -78.833 24 -116.5 32s-75.834 12 -114.501 12
c-51.333 0 -95.166 -8.5 -131.499 -25.5s-66.166 -40.667 -89.499 -71s-40.5 -66.5 -51.5 -108.5s-16.5 -88 -16.5 -138c0 -116 20.167 -202.333 60.5 -259s107.166 -85 200.499 -85c57.333 0 110.166 6 158.499 18s96.5 26.333 144.5 43z" />
    <glyph glyph-name="Dcaron" unicode="&#x10e;" horiz-adv-x="1424" 
d="M936 1919l75 -87l-331 -254l-331 254l75 87l256 -111zM571 1438c78.667 0 151.332 -4.16699 217.999 -12.5s128 -22.833 184 -43.5c66 -24.667 121.333 -57.5 166 -98.5s80.334 -89.5 107.001 -145.5s45.667 -118.833 57 -188.5s17 -145.167 17 -226.5
s-5.83301 -157 -17.5 -227s-31.167 -133.167 -58.5 -189.5s-63.166 -105.333 -107.499 -147s-98.833 -75.167 -163.5 -100.5c-56 -21.333 -117.333 -36.5 -184 -45.5s-139.334 -13.5 -218.001 -13.5h-390v1438h390zM500.998 203c110 0 199.669 7.99805 269.002 23.998
s123.666 43.667 162.999 83s66.333 91.833 81 157.5s22 148.5 22 248.5s-7.16699 183.333 -21.5 250s-39.833 119.834 -76.5 159.501s-86.334 67.834 -149.001 84.501s-142 25 -238 25h-90v-1032h40z" />
    <glyph glyph-name="dcaron" unicode="&#x10f;" horiz-adv-x="1225" 
d="M1241 1609c26.667 19.333 55.501 34.167 86.501 44.5s61.167 15.5 90.5 15.5c20 0 39.167 -2.83301 57.5 -8.5s34.5 -14.334 48.5 -26.001s25.167 -26.167 33.5 -43.5s12.5 -37.666 12.5 -60.999c0 -28 -4 -54.5 -12 -79.5s-20.333 -52.333 -37 -82
s-37.334 -63.167 -62.001 -100.5l-87 -134h-172l105 289zM1058 1440l-0.000976562 -1101v-43c0 -52 1.66699 -98.833 5 -140.5s10.666 -83.834 21.999 -126.501c-21.333 -6 -42 -11.5 -62 -16.5s-39.833 -9.66699 -59.5 -14s-39.5 -8.33301 -59.5 -12
s-41 -7.16699 -63 -10.5c-5.33301 14 -9.83301 27.333 -13.5 40s-7 26.334 -10 41.001s-5.5 30.667 -7.5 48s-3.66699 37.666 -5 60.999h-11c-77.333 -126.667 -186.666 -190 -327.999 -190c-70 0 -129 13.667 -177 41s-86.833 64.166 -116.5 110.499s-51 100 -64 161
s-19.5 125.5 -19.5 193.5c0 96 12.833 180.167 38.5 252.5s61.834 132.833 108.501 181.5s102.5 85.334 167.5 110.001s136.833 37 215.5 37c28.667 0 56.5 -1.33301 83.5 -4s54.167 -6 81.5 -10v391h274zM787 843.002c-53.333 13.333 -103 19.999 -149 19.999
c-39.333 0 -75.833 -5.33301 -109.5 -16s-62.834 -28 -87.501 -52s-43.834 -55 -57.501 -93s-20.5 -84.333 -20.5 -139c0 -56.667 2.16699 -108.667 6.5 -156s13.5 -88.166 27.5 -122.499s34 -61 60 -80s60.667 -28.5 104 -28.5c31.333 0 58.833 6.33301 82.5 19
s45.167 30.334 64.5 53.001c14.667 16 28.334 34.167 41.001 54.5s25.334 42.166 38.001 65.499v475z" />
    <glyph glyph-name="Dcroat" unicode="&#x110;" horiz-adv-x="1424" 
d="M983 1805v-171h-605v171h605zM571 1438c78.667 0 151.332 -4.16699 217.999 -12.5s128 -22.833 184 -43.5c66 -24.667 121.333 -57.5 166 -98.5s80.334 -89.5 107.001 -145.5s45.667 -118.833 57 -188.5s17 -145.167 17 -226.5s-5.83301 -157 -17.5 -227
s-31.167 -133.167 -58.5 -189.5s-63.166 -105.333 -107.499 -147s-98.833 -75.167 -163.5 -100.5c-56 -21.333 -117.333 -36.5 -184 -45.5s-139.334 -13.5 -218.001 -13.5h-390v1438h390zM500.998 203c110 0 199.669 7.99805 269.002 23.998s123.666 43.667 162.999 83
s66.333 91.833 81 157.5s22 148.5 22 248.5s-7.16699 183.333 -21.5 250s-39.833 119.834 -76.5 159.501s-86.334 67.834 -149.001 84.501s-142 25 -238 25h-90v-1032h40z" />
    <glyph glyph-name="dcroat" unicode="&#x111;" horiz-adv-x="1225" 
d="M1058 339l-0.000976562 -42.999c0 -52 1.66699 -98.833 5 -140.5s10.666 -83.834 21.999 -126.501c-21.333 -6 -42 -11.5 -62 -16.5s-39.833 -9.66699 -59.5 -14s-39.5 -8.33301 -59.5 -12s-41 -7.16699 -63 -10.5c-5.33301 14 -9.83301 27.333 -13.5 40
s-7 26.334 -10 41.001s-5.5 30.667 -7.5 48s-3.66699 37.666 -5 60.999h-11c-77.333 -126.667 -186.666 -190 -327.999 -190c-70 0 -129 13.667 -177 41s-86.833 64.166 -116.5 110.499s-51 100 -64 161s-19.5 125.5 -19.5 193.5c0 96 12.833 180.167 38.5 252.5
s61.834 132.833 108.501 181.5s102.5 85.334 167.5 110.001s136.833 37 215.5 37c28.667 0 56.5 -1.33301 83.5 -4s54.167 -6 81.5 -10v168h-164v171h164v52h274v-52h167v-171h-167v-878zM786.999 843.001c-53.333 13.333 -103 19.999 -149 19.999
c-39.333 0 -75.833 -5.33301 -109.5 -16s-62.834 -28 -87.501 -52s-43.834 -55 -57.501 -93s-20.5 -84.333 -20.5 -139c0 -56.667 2.16699 -108.667 6.5 -156s13.5 -88.166 27.5 -122.499s34 -61 60 -80s60.667 -28.5 104 -28.5c31.333 0 58.833 6.33301 82.5 19
s45.167 30.334 64.5 53.001c14.667 16 28.334 34.167 41.001 54.5s25.334 42.166 38.001 65.499v475z" />
    <glyph glyph-name="Emacron" unicode="&#x112;" horiz-adv-x="1191" 
d="M921 1798v-171h-605v171h605zM1042 1438v-205h-581v-326h411v-205h-411v-497h602v-205h-881v1438h860z" />
    <glyph glyph-name="emacron" unicode="&#x113;" horiz-adv-x="1202" 
d="M910 1408v-171h-605v171h605zM1029 47c-27.333 -11.333 -57.167 -21.3311 -89.5 -29.998s-66.166 -16 -101.499 -22s-71.166 -10.667 -107.499 -14s-71.833 -5 -106.5 -5c-175.333 0 -307.833 42.167 -397.5 126.5s-134.5 213.5 -134.5 387.5
c0 77.333 9 150.666 27 219.999s47.167 130.166 87.5 182.499s93.333 93.833 159 124.5s146.167 46 241.5 46c166.667 0 291 -44.167 373 -132.5s123 -223.166 123 -404.499v-79h-739c1.33301 -45.333 6.66602 -85.333 15.999 -120s24.833 -63.834 46.5 -87.501
s50.167 -41.667 85.5 -54s79.666 -18.5 132.999 -18.5c46.667 0 97 5.83301 151 17.5s110.333 28.5 169 50.5zM828.999 625.002c-4.66699 164.667 -78.667 247 -222 247c-74 0 -130.167 -21.333 -168.5 -64s-61.833 -103.667 -70.5 -183h461z" />
    <glyph glyph-name="Edotaccent" unicode="&#x116;" horiz-adv-x="1191" 
d="M618 1846c18.667 0 36.3311 -3.66406 52.998 -10.9971s31.334 -17.333 44.001 -30s22.667 -27.334 30 -44.001s11 -34.334 11 -53.001c0 -19.333 -3.66699 -37.5 -11 -54.5s-17.166 -31.833 -29.499 -44.5s-27 -22.667 -44 -30s-34.833 -11 -53.5 -11
c-19.333 0 -37.666 3.66699 -54.999 11s-32.5 17.333 -45.5 30s-23.167 27.5 -30.5 44.5s-11 35.167 -11 54.5c0 18.667 3.66699 36.5 11 53.5s17.5 31.667 30.5 44s28.167 22.166 45.5 29.499s35.666 11 54.999 11zM1042 1438v-205h-581v-326h411v-205h-411v-497h602v-205
h-881v1438h860z" />
    <glyph glyph-name="edotaccent" unicode="&#x117;" horiz-adv-x="1202" 
d="M607 1456c18.667 0 36.3311 -3.66406 52.998 -10.9971s31.334 -17.333 44.001 -30s22.667 -27.334 30 -44.001s11 -34.334 11 -53.001c0 -19.333 -3.66699 -37.5 -11 -54.5s-17.166 -31.833 -29.499 -44.5s-27 -22.667 -44 -30s-34.833 -11 -53.5 -11
c-19.333 0 -37.666 3.66699 -54.999 11s-32.5 17.333 -45.5 30s-23.167 27.5 -30.5 44.5s-11 35.167 -11 54.5c0 18.667 3.66699 36.5 11 53.5s17.5 31.667 30.5 44s28.167 22.166 45.5 29.499s35.666 11 54.999 11zM1029 47.0029
c-27.333 -11.333 -57.167 -21.3311 -89.5 -29.998s-66.166 -16 -101.499 -22s-71.166 -10.667 -107.499 -14s-71.833 -5 -106.5 -5c-175.333 0 -307.833 42.167 -397.5 126.5s-134.5 213.5 -134.5 387.5c0 77.333 9 150.666 27 219.999s47.167 130.166 87.5 182.499
s93.333 93.833 159 124.5s146.167 46 241.5 46c166.667 0 291 -44.167 373 -132.5s123 -223.166 123 -404.499v-79h-739c1.33301 -45.333 6.66602 -85.333 15.999 -120s24.833 -63.834 46.5 -87.501s50.167 -41.667 85.5 -54s79.666 -18.5 132.999 -18.5
c46.667 0 97 5.83301 151 17.5s110.333 28.5 169 50.5zM828.996 625.005c-4.66699 164.667 -78.667 247 -222 247c-74 0 -130.167 -21.333 -168.5 -64s-61.833 -103.667 -70.5 -183h461z" />
    <glyph glyph-name="Eogonek" unicode="&#x118;" horiz-adv-x="1191" 
d="M878 0c-20 -20.667 -37.667 -39.666 -53 -56.999s-28.333 -34 -39 -50s-18.834 -32 -24.501 -48s-8.5 -32.333 -8.5 -49c0 -32 7.16699 -54.5 21.5 -67.5s34.5 -19.5 60.5 -19.5c16 0 34 2.33301 54 7s41.333 10.667 64 18l-6 -95
c-25.333 -14.667 -51.166 -26.167 -77.499 -34.5s-57.833 -12.5 -94.5 -12.5c-24.667 0 -47.5 3.66699 -68.5 11s-39 18.166 -54 32.499s-26.833 31.833 -35.5 52.5s-13 44 -13 70c0 24.667 3.5 47.167 10.5 67.5s17 40 30 59s28.5 37.667 46.5 56l61 59.5h-570v1438h860
v-205h-581v-326h411v-205h-411v-497h602v-205h-185z" />
    <glyph glyph-name="eogonek" unicode="&#x119;" horiz-adv-x="1202" 
d="M1103 447l-739 0.00195312c1.33301 -45.333 6.66602 -85.333 15.999 -120s24.833 -63.834 46.5 -87.501s50.167 -41.667 85.5 -54s79.666 -18.5 132.999 -18.5c46.667 0 97 5.83301 151 17.5s110.333 28.5 169 50.5l64 -188c-46 -18.667 -98.667 -34 -158 -46
c-20 -20.667 -37.667 -39.667 -53 -57s-28.5 -34.166 -39.5 -50.499s-19.333 -32.333 -25 -48s-8.5 -32.167 -8.5 -49.5c0 -32 7.16699 -54.5 21.5 -67.5s34.5 -19.5 60.5 -19.5c16 0 34 2.33301 54 7s41.333 10.667 64 18l-6 -95
c-25.333 -14.667 -51.166 -26.167 -77.499 -34.5s-57.833 -12.5 -94.5 -12.5c-24.667 0 -47.5 3.66699 -68.5 11s-39 18.166 -54 32.499s-26.833 31.833 -35.5 52.5s-13 44 -13 70c0 22.667 3 43.5 9 62.5s14.5 37.333 25.5 55s24.333 35 40 52s33.167 34.5 52.5 52.5
c-17.333 -1.33301 -34.166 -2.33301 -50.499 -3s-32.5 -1 -48.5 -1c-175.333 0 -307.833 42.167 -397.5 126.5s-134.5 213.5 -134.5 387.5c0 77.333 9 150.666 27 219.999s47.167 130.166 87.5 182.499s93.333 93.833 159 124.5s146.167 46 241.5 46
c166.667 0 291 -44.167 373 -132.5s123 -223.166 123 -404.499v-79zM829 625.002c-4.66699 164.667 -78.667 247 -222 247c-74 0 -130.167 -21.333 -168.5 -64s-61.833 -103.667 -70.5 -183h461z" />
    <glyph glyph-name="Ecaron" unicode="&#x11a;" horiz-adv-x="1191" 
d="M874 1912l75 -87l-331 -254l-331 254l75 87l256 -111zM1042 1438v-205h-581v-326h411v-205h-411v-497h602v-205h-881v1438h860z" />
    <glyph glyph-name="ecaron" unicode="&#x11b;" horiz-adv-x="1202" 
d="M863 1522l75 -87l-331 -254l-331 254l75 87l256 -111zM1029 47c-27.333 -11.333 -57.167 -21.3311 -89.5 -29.998s-66.166 -16 -101.499 -22s-71.166 -10.667 -107.499 -14s-71.833 -5 -106.5 -5c-175.333 0 -307.833 42.167 -397.5 126.5s-134.5 213.5 -134.5 387.5
c0 77.333 9 150.666 27 219.999s47.167 130.166 87.5 182.499s93.333 93.833 159 124.5s146.167 46 241.5 46c166.667 0 291 -44.167 373 -132.5s123 -223.166 123 -404.499v-79h-739c1.33301 -45.333 6.66602 -85.333 15.999 -120s24.833 -63.834 46.5 -87.501
s50.167 -41.667 85.5 -54s79.666 -18.5 132.999 -18.5c46.667 0 97 5.83301 151 17.5s110.333 28.5 169 50.5zM828.999 625.002c-4.66699 164.667 -78.667 247 -222 247c-74 0 -130.167 -21.333 -168.5 -64s-61.833 -103.667 -70.5 -183h461z" />
    <glyph glyph-name="Gbreve" unicode="&#x11e;" horiz-adv-x="1445" 
d="M1092 1904c-12 -96.667 -45.833 -170.667 -101.5 -222s-131.167 -77 -226.5 -77s-170.833 25.667 -226.5 77s-89.5 125.333 -101.5 222h100c24 -50 55 -84.667 93 -104s83 -29 135 -29s97 9.66699 135 29s69 54 93 104h100zM1303 70
c-29.333 -14.667 -62.6689 -27.8311 -100.002 -39.498s-77.333 -21.5 -120 -29.5s-87 -14.167 -133 -18.5s-92 -6.5 -138 -6.5c-116.667 0 -218.667 12 -306 36s-160 64 -218 120s-101.333 130.167 -130 222.5s-43 207.166 -43 344.499c0 143.333 15 263.666 45 360.999
s73 175.833 129 235.5s123.833 102.5 203.5 128.5s168.834 39 267.501 39c42 0 84.5 -2.16699 127.5 -6.5s85.5 -10.833 127.5 -19.5s82.5 -19.5 121.5 -32.5s75.5 -27.833 109.5 -44.5l-77 -195c-67.333 32 -133.833 55 -199.5 69s-127.834 21 -186.501 21
c-66.667 0 -124.167 -10.5 -172.5 -31.5s-88.166 -53 -119.499 -96s-54.5 -97.667 -69.5 -164s-22.5 -144.5 -22.5 -234.5c0 -95.333 7.66699 -177.166 23 -245.499s39.5 -124.833 72.5 -169.5s75 -77.5 126 -98.5s112.5 -31.5 184.5 -31.5c36 0 72.833 2.66699 110.5 8
s75.834 12.666 114.501 21.999v347h-229v203h502v-694z" />
    <glyph glyph-name="gbreve" unicode="&#x11f;" horiz-adv-x="1232" 
d="M877 1507c-12 -96.667 -45.833 -170.667 -101.5 -222s-131.167 -77 -226.5 -77s-170.833 25.667 -226.5 77s-89.5 125.333 -101.5 222h100c24 -50 55 -84.667 93 -104s83 -29 135 -29s97 9.66699 135 29s69 54 93 104h100zM837 1041
c32 0 59.3369 0.335938 82.0039 1.00293s44.334 2.33398 65.001 5.00098s42.334 6.66699 65.001 12s50 12.333 82 21l31 -95.5c10.667 -33 20.667 -65.833 30 -98.5c-22 -8 -42.167 -14.667 -60.5 -20s-36 -9.83301 -53 -13.5s-33.667 -6.33398 -50 -8.00098
s-33.833 -2.83398 -52.5 -3.50098c12.667 -28.667 21.334 -56.834 26.001 -84.501s7 -56.834 7 -87.501c0 -64 -9.66699 -119.833 -29 -167.5s-47 -88.167 -83 -121.5c-22 -20 -47 -36.667 -75 -50s-57.333 -24.166 -88 -32.499s-61.834 -14.166 -93.501 -17.499
s-62.167 -5 -91.5 -5c-54 0 -103.333 4 -148 12c-11.333 -32 -17 -57.333 -17 -76c0 -12.667 2.5 -23.5 7.5 -32.5s13.167 -16.833 24.5 -23.5c17.333 -9.33301 38.166 -15.333 62.499 -18s51.166 -4 80.499 -4h33.5c13.667 0 27.834 0.166992 42.501 0.5
s28.834 0.5 42.501 0.5h35.5c53.333 0 101.666 -4.83301 144.999 -14.5s80.5 -25.167 111.5 -46.5s55 -49.666 72 -84.999s25.5 -78.333 25.5 -129c0 -58 -14.167 -106.833 -42.5 -146.5s-65.833 -71.834 -112.5 -96.501s-100 -42.5 -160 -53.5s-122 -16.5 -186 -16.5
c-46 0 -91.833 2.5 -137.5 7.5s-89.834 11.5 -132.501 19.5c-33.333 6.66699 -64.833 14.167 -94.5 22.5s-57.167 17.166 -82.5 26.499c8.66699 20.667 21.5 47 38.5 79l56.5 103c68 -24 132.667 -41.667 194 -53s117.333 -17 168 -17c31.333 0 60.666 2 87.999 6
s51 10.667 71 20s35.833 21.833 47.5 37.5s17.5 35.5 17.5 59.5c0 18.667 -4 33.5 -12 44.5s-19 19.5 -33 25.5s-30.5 9.83301 -49.5 11.5s-39.5 2.5 -61.5 2.5c-9.33301 0 -19 -0.166992 -29 -0.5s-20 -0.5 -30 -0.5h-32c-30.667 0 -61.167 0.5 -91.5 1.5
s-59.5 3.83301 -87.5 8.5s-54 11.5 -78 20.5s-44.833 21.333 -62.5 37s-31.667 35.334 -42 59.001s-15.5 52.167 -15.5 85.5c0 32.667 6.33301 65.834 19 99.501s28.667 67.167 48 100.5c-18 12 -35.833 27.667 -53.5 47s-33.334 42.166 -47.001 68.499
s-24.667 56.166 -33 89.499s-12.5 70.666 -12.5 111.999c0 62.667 9.83301 118.167 29.5 166.5s47.5 89.5 83.5 123.5c21.333 20 45.333 36.667 72 50s54.667 24 84 32s59.666 13.667 90.999 17s62 5 92 5c38 0 73.667 -2.16699 107 -6.5s62.666 -9.5 87.999 -15.5h93z
M553.004 878.003c-58.667 0 -105 -17.667 -139 -53s-51 -87.333 -51 -156c0 -70.667 17.167 -123.167 51.5 -157.5s80.5 -51.5 138.5 -51.5c58.667 0 105 17.667 139 53s51 87.333 51 156c0 69.333 -17.5 121.5 -52.5 156.5s-80.833 52.5 -137.5 52.5z" />
    <glyph glyph-name="Gdotaccent" unicode="&#x120;" horiz-adv-x="1445" 
d="M764 1853c18.667 0 36.3311 -3.66406 52.998 -10.9971s31.334 -17.333 44.001 -30s22.667 -27.334 30 -44.001s11 -34.334 11 -53.001c0 -19.333 -3.66699 -37.5 -11 -54.5s-17.166 -31.833 -29.499 -44.5s-27 -22.667 -44 -30s-34.833 -11 -53.5 -11
c-19.333 0 -37.666 3.66699 -54.999 11s-32.5 17.333 -45.5 30s-23.167 27.5 -30.5 44.5s-11 35.167 -11 54.5c0 18.667 3.66699 36.5 11 53.5s17.5 31.667 30.5 44s28.167 22.166 45.5 29.499s35.666 11 54.999 11zM1303 70.0029
c-29.333 -14.667 -62.6689 -27.8311 -100.002 -39.498s-77.333 -21.5 -120 -29.5s-87 -14.167 -133 -18.5s-92 -6.5 -138 -6.5c-116.667 0 -218.667 12 -306 36s-160 64 -218 120s-101.333 130.167 -130 222.5s-43 207.166 -43 344.499c0 143.333 15 263.666 45 360.999
s73 175.833 129 235.5s123.833 102.5 203.5 128.5s168.834 39 267.501 39c42 0 84.5 -2.16699 127.5 -6.5s85.5 -10.833 127.5 -19.5s82.5 -19.5 121.5 -32.5s75.5 -27.833 109.5 -44.5l-77 -195c-67.333 32 -133.833 55 -199.5 69s-127.834 21 -186.501 21
c-66.667 0 -124.167 -10.5 -172.5 -31.5s-88.166 -53 -119.499 -96s-54.5 -97.667 -69.5 -164s-22.5 -144.5 -22.5 -234.5c0 -95.333 7.66699 -177.166 23 -245.499s39.5 -124.833 72.5 -169.5s75 -77.5 126 -98.5s112.5 -31.5 184.5 -31.5c36 0 72.833 2.66699 110.5 8
s75.834 12.666 114.501 21.999v347h-229v203h502v-694z" />
    <glyph glyph-name="gdotaccent" unicode="&#x121;" horiz-adv-x="1232" 
d="M549 1456c18.667 0 36.3311 -3.66406 52.998 -10.9971s31.334 -17.333 44.001 -30s22.667 -27.334 30 -44.001s11 -34.334 11 -53.001c0 -19.333 -3.66699 -37.5 -11 -54.5s-17.166 -31.833 -29.499 -44.5s-27 -22.667 -44 -30s-34.833 -11 -53.5 -11
c-19.333 0 -37.666 3.66699 -54.999 11s-32.5 17.333 -45.5 30s-23.167 27.5 -30.5 44.5s-11 35.167 -11 54.5c0 18.667 3.66699 36.5 11 53.5s17.5 31.667 30.5 44s28.167 22.166 45.5 29.499s35.666 11 54.999 11zM836.997 1041c32 0 59.3369 0.335938 82.0039 1.00293
s44.334 2.33398 65.001 5.00098s42.334 6.66699 65.001 12s50 12.333 82 21l31 -95.5c10.667 -33 20.667 -65.833 30 -98.5c-22 -8 -42.167 -14.667 -60.5 -20s-36 -9.83301 -53 -13.5s-33.667 -6.33398 -50 -8.00098s-33.833 -2.83398 -52.5 -3.50098
c12.667 -28.667 21.334 -56.834 26.001 -84.501s7 -56.834 7 -87.501c0 -64 -9.66699 -119.833 -29 -167.5s-47 -88.167 -83 -121.5c-22 -20 -47 -36.667 -75 -50s-57.333 -24.166 -88 -32.499s-61.834 -14.166 -93.501 -17.499s-62.167 -5 -91.5 -5
c-54 0 -103.333 4 -148 12c-11.333 -32 -17 -57.333 -17 -76c0 -12.667 2.5 -23.5 7.5 -32.5s13.167 -16.833 24.5 -23.5c17.333 -9.33301 38.166 -15.333 62.499 -18s51.166 -4 80.499 -4h33.5c13.667 0 27.834 0.166992 42.501 0.5s28.834 0.5 42.501 0.5h35.5
c53.333 0 101.666 -4.83301 144.999 -14.5s80.5 -25.167 111.5 -46.5s55 -49.666 72 -84.999s25.5 -78.333 25.5 -129c0 -58 -14.167 -106.833 -42.5 -146.5s-65.833 -71.834 -112.5 -96.501s-100 -42.5 -160 -53.5s-122 -16.5 -186 -16.5c-46 0 -91.833 2.5 -137.5 7.5
s-89.834 11.5 -132.501 19.5c-33.333 6.66699 -64.833 14.167 -94.5 22.5s-57.167 17.166 -82.5 26.499c8.66699 20.667 21.5 47 38.5 79l56.5 103c68 -24 132.667 -41.667 194 -53s117.333 -17 168 -17c31.333 0 60.666 2 87.999 6s51 10.667 71 20
s35.833 21.833 47.5 37.5s17.5 35.5 17.5 59.5c0 18.667 -4 33.5 -12 44.5s-19 19.5 -33 25.5s-30.5 9.83301 -49.5 11.5s-39.5 2.5 -61.5 2.5c-9.33301 0 -19 -0.166992 -29 -0.5s-20 -0.5 -30 -0.5h-32c-30.667 0 -61.167 0.5 -91.5 1.5s-59.5 3.83301 -87.5 8.5
s-54 11.5 -78 20.5s-44.833 21.333 -62.5 37s-31.667 35.334 -42 59.001s-15.5 52.167 -15.5 85.5c0 32.667 6.33301 65.834 19 99.501s28.667 67.167 48 100.5c-18 12 -35.833 27.667 -53.5 47s-33.334 42.166 -47.001 68.499s-24.667 56.166 -33 89.499
s-12.5 70.666 -12.5 111.999c0 62.667 9.83301 118.167 29.5 166.5s47.5 89.5 83.5 123.5c21.333 20 45.333 36.667 72 50s54.667 24 84 32s59.666 13.667 90.999 17s62 5 92 5c38 0 73.667 -2.16699 107 -6.5s62.666 -9.5 87.999 -15.5h93zM553.001 878.006
c-58.667 0 -105 -17.667 -139 -53s-51 -87.333 -51 -156c0 -70.667 17.167 -123.167 51.5 -157.5s80.5 -51.5 138.5 -51.5c58.667 0 105 17.667 139 53s51 87.333 51 156c0 69.333 -17.5 121.5 -52.5 156.5s-80.833 52.5 -137.5 52.5z" />
    <glyph glyph-name="Gcommaaccent" unicode="&#x122;" horiz-adv-x="1445" 
d="M1303 70c-29.333 -14.667 -62.6689 -27.8311 -100.002 -39.498s-77.333 -21.5 -120 -29.5s-87 -14.167 -133 -18.5s-92 -6.5 -138 -6.5c-116.667 0 -218.667 12 -306 36s-160 64 -218 120s-101.333 130.167 -130 222.5s-43 207.166 -43 344.499
c0 143.333 15 263.666 45 360.999s73 175.833 129 235.5s123.833 102.5 203.5 128.5s168.834 39 267.501 39c42 0 84.5 -2.16699 127.5 -6.5s85.5 -10.833 127.5 -19.5s82.5 -19.5 121.5 -32.5s75.5 -27.833 109.5 -44.5l-77 -195c-67.333 32 -133.833 55 -199.5 69
s-127.834 21 -186.501 21c-66.667 0 -124.167 -10.5 -172.5 -31.5s-88.166 -53 -119.499 -96s-54.5 -97.667 -69.5 -164s-22.5 -144.5 -22.5 -234.5c0 -95.333 7.66699 -177.166 23 -245.499s39.5 -124.833 72.5 -169.5s75 -77.5 126 -98.5s112.5 -31.5 184.5 -31.5
c36 0 72.833 2.66699 110.5 8s75.834 12.666 114.501 21.999v347h-229v203h502v-694zM676.997 -181.997c24 17.333 50.165 30.834 78.498 40.501s55.833 14.5 82.5 14.5c18.667 0 36.334 -2.5 53.001 -7.5s31.334 -12.833 44.001 -23.5s22.667 -23.834 30 -39.501
s11 -34.167 11 -55.5c0 -25.333 -3.66699 -49.5 -11 -72.5s-18.5 -47.833 -33.5 -74.5s-33.833 -57 -56.5 -91l-79 -122h-156l95 262z" />
    <glyph glyph-name="gcommaaccent" unicode="&#x123;" horiz-adv-x="1232" 
d="M739 1703l-94.998 -262.001l58 -169c-24 -17.333 -50.167 -30.833 -78.5 -40.5s-55.833 -14.5 -82.5 -14.5c-18.667 0 -36.334 2.5 -53.001 7.5s-31.334 12.833 -44.001 23.5s-22.667 23.834 -30 39.501s-11 34.167 -11 55.5c0 25.333 3.66699 49.5 11 72.5
s18.5 47.833 33.5 74.5s33.833 57 56.5 91l79 122h156zM837.002 1041c32 0 59.3369 0.335938 82.0039 1.00293s44.334 2.33398 65.001 5.00098s42.334 6.66699 65.001 12s50 12.333 82 21l31 -95.5c10.667 -33 20.667 -65.833 30 -98.5c-22 -8 -42.167 -14.667 -60.5 -20
s-36 -9.83301 -53 -13.5s-33.667 -6.33398 -50 -8.00098s-33.833 -2.83398 -52.5 -3.50098c12.667 -28.667 21.334 -56.834 26.001 -84.501s7 -56.834 7 -87.501c0 -64 -9.66699 -119.833 -29 -167.5s-47 -88.167 -83 -121.5c-22 -20 -47 -36.667 -75 -50
s-57.333 -24.166 -88 -32.499s-61.834 -14.166 -93.501 -17.499s-62.167 -5 -91.5 -5c-54 0 -103.333 4 -148 12c-11.333 -32 -17 -57.333 -17 -76c0 -12.667 2.5 -23.5 7.5 -32.5s13.167 -16.833 24.5 -23.5c17.333 -9.33301 38.166 -15.333 62.499 -18
s51.166 -4 80.499 -4h33.5c13.667 0 27.834 0.166992 42.501 0.5s28.834 0.5 42.501 0.5h35.5c53.333 0 101.666 -4.83301 144.999 -14.5s80.5 -25.167 111.5 -46.5s55 -49.666 72 -84.999s25.5 -78.333 25.5 -129c0 -58 -14.167 -106.833 -42.5 -146.5
s-65.833 -71.834 -112.5 -96.501s-100 -42.5 -160 -53.5s-122 -16.5 -186 -16.5c-46 0 -91.833 2.5 -137.5 7.5s-89.834 11.5 -132.501 19.5c-33.333 6.66699 -64.833 14.167 -94.5 22.5s-57.167 17.166 -82.5 26.499c8.66699 20.667 21.5 47 38.5 79l56.5 103
c68 -24 132.667 -41.667 194 -53s117.333 -17 168 -17c31.333 0 60.666 2 87.999 6s51 10.667 71 20s35.833 21.833 47.5 37.5s17.5 35.5 17.5 59.5c0 18.667 -4 33.5 -12 44.5s-19 19.5 -33 25.5s-30.5 9.83301 -49.5 11.5s-39.5 2.5 -61.5 2.5
c-9.33301 0 -19 -0.166992 -29 -0.5s-20 -0.5 -30 -0.5h-32c-30.667 0 -61.167 0.5 -91.5 1.5s-59.5 3.83301 -87.5 8.5s-54 11.5 -78 20.5s-44.833 21.333 -62.5 37s-31.667 35.334 -42 59.001s-15.5 52.167 -15.5 85.5c0 32.667 6.33301 65.834 19 99.501
s28.667 67.167 48 100.5c-18 12 -35.833 27.667 -53.5 47s-33.334 42.166 -47.001 68.499s-24.667 56.166 -33 89.499s-12.5 70.666 -12.5 111.999c0 62.667 9.83301 118.167 29.5 166.5s47.5 89.5 83.5 123.5c21.333 20 45.333 36.667 72 50s54.667 24 84 32
s59.666 13.667 90.999 17s62 5 92 5c38 0 73.667 -2.16699 107 -6.5s62.666 -9.5 87.999 -15.5h93zM553.006 878.002c-58.667 0 -105 -17.667 -139 -53s-51 -87.333 -51 -156c0 -70.667 17.167 -123.167 51.5 -157.5s80.5 -51.5 138.5 -51.5c58.667 0 105 17.667 139 53
s51 87.333 51 156c0 69.333 -17.5 121.5 -52.5 156.5s-80.833 52.5 -137.5 52.5z" />
    <glyph glyph-name="Hbar" unicode="&#x126;" horiz-adv-x="1746" 
d="M1476 1438v-210h170v-161h-170v-1067h-279v701h-636v-701h-279v1067h-182v161h182v210h279v-210h636v210h279zM1197 1067h-636v-161h636v161z" />
    <glyph glyph-name="hbar" unicode="&#x127;" horiz-adv-x="1259" 
d="M447 1440l0.00195312 -172.001h181v-170h-181v-236h7c20.667 30.667 42 58.334 64 83.001s46.5 45.834 73.5 63.501s56.833 31.167 89.5 40.5s69.667 14 111 14c79.333 0 143.166 -15.833 191.499 -47.5s84.166 -79.834 107.499 -144.501
c12.667 -34.667 21.834 -73.667 27.501 -117s8.5 -92 8.5 -146v-608h-274v687c0 54 -12.667 96.833 -38 128.5s-61.666 47.5 -108.999 47.5c-26.667 0 -52.667 -6.66699 -78 -20s-49.333 -30 -72 -50s-43.334 -42 -62.001 -66s-34.334 -47 -47.001 -69v-658h-275v1098h-171
v170h171v172h275z" />
    <glyph glyph-name="Imacron" unicode="&#x12a;" horiz-adv-x="687" 
d="M647 1805v-171h-605v171h605zM483 1438v-1438h-279v1438h279z" />
    <glyph glyph-name="imacron" unicode="&#x12b;" horiz-adv-x="637" 
d="M622 1408v-171h-605v171h605zM456 1040v-1040h-275v1040h275z" />
    <glyph glyph-name="Iogonek" unicode="&#x12e;" horiz-adv-x="687" 
d="M428 0c-20 -20.667 -37.667 -39.666 -53 -56.999s-28.333 -34 -39 -50s-18.834 -32 -24.501 -48s-8.5 -32.333 -8.5 -49c0 -32 7.16699 -54.5 21.5 -67.5s34.5 -19.5 60.5 -19.5c16 0 34 2.33301 54 7s41.333 10.667 64 18l-6 -95
c-25.333 -14.667 -51.166 -26.167 -77.499 -34.5s-57.833 -12.5 -94.5 -12.5c-24.667 0 -47.5 3.66699 -68.5 11s-39 18.166 -54 32.499s-26.833 31.833 -35.5 52.5s-13 44 -13 70c0 24.667 3.5 47.167 10.5 67.5s17 40 30 59s28.5 37.667 46.5 56l61 59.5h-98v1438h279
v-1438h-55z" />
    <glyph glyph-name="iogonek" unicode="&#x12f;" horiz-adv-x="637" 
d="M319 1178c-19.333 0 -37.6689 3.66992 -55.002 11.0029s-32.5 17.333 -45.5 30s-23.167 27.5 -30.5 44.5s-11 35.167 -11 54.5c0 18.667 3.66699 36.5 11 53.5s17.5 31.667 30.5 44s28.167 22.166 45.5 29.499s35.666 11 54.999 11c18.667 0 36.334 -3.66699 53.001 -11
s31.334 -17.333 44.001 -30s22.667 -27.334 30 -44.001s11 -34.334 11 -53.001c0 -19.333 -3.66699 -37.5 -11 -54.5s-17.166 -31.833 -29.499 -44.5s-27 -22.667 -44 -30s-34.833 -11 -53.5 -11zM383.997 0.00292969c-20 -20.667 -37.667 -39.666 -53 -56.999
s-28.333 -34 -39 -50s-18.834 -32 -24.501 -48s-8.5 -32.333 -8.5 -49c0 -32 7.16699 -54.5 21.5 -67.5s34.5 -19.5 60.5 -19.5c16 0 34 2.33301 54 7s41.333 10.667 64 18l-6 -95c-25.333 -14.667 -51.166 -26.167 -77.499 -34.5s-57.833 -12.5 -94.5 -12.5
c-24.667 0 -47.5 3.66699 -68.5 11s-39 18.166 -54 32.499s-26.833 31.833 -35.5 52.5s-13 44 -13 70c0 24.667 3.5 47.167 10.5 67.5s17 40 30 59s28.5 37.667 46.5 56l61 59.5h-77v1040h275v-1040h-72z" />
    <glyph glyph-name="Idotaccent" unicode="&#x130;" horiz-adv-x="687" 
d="M344 1853c18.667 0 36.3311 -3.66406 52.998 -10.9971s31.334 -17.333 44.001 -30s22.667 -27.334 30 -44.001s11 -34.334 11 -53.001c0 -19.333 -3.66699 -37.5 -11 -54.5s-17.166 -31.833 -29.499 -44.5s-27 -22.667 -44 -30s-34.833 -11 -53.5 -11
c-19.333 0 -37.666 3.66699 -54.999 11s-32.5 17.333 -45.5 30s-23.167 27.5 -30.5 44.5s-11 35.167 -11 54.5c0 18.667 3.66699 36.5 11 53.5s17.5 31.667 30.5 44s28.167 22.166 45.5 29.499s35.666 11 54.999 11zM482.997 1438v-1438h-279v1438h279z" />
    <glyph glyph-name="dotlessi" unicode="&#x131;" horiz-adv-x="637" 
d="M456 1040v-1040h-275v1040h275z" />
    <glyph glyph-name="IJ" unicode="&#x132;" horiz-adv-x="1225" 
d="M160 1438h279v-1438h-279v1438zM1065 327c0 -80.667 -5.33203 -149.999 -15.999 -207.999s-26.834 -109.667 -48.501 -155s-49 -86.833 -82 -124.5s-72.167 -76.167 -117.5 -115.5l-98 75.5c-34 26.333 -65.333 53.5 -94 81.5c32.667 34.667 60.167 66 82.5 94
s40.5 57.5 54.5 88.5s24.167 66.167 30.5 105.5s9.5 87.666 9.5 144.999v1124h279v-1111z" />
    <glyph glyph-name="ij" unicode="&#x133;" horiz-adv-x="1119" 
d="M277 1547c22.667 0 44.167 -4.33301 64.5 -13s38 -20.5 53 -35.5s26.833 -32.667 35.5 -53s13 -41.833 13 -64.5c0 -23.333 -4.33301 -45 -13 -65s-20.5 -37.667 -35.5 -53s-32.667 -27.333 -53 -36s-41.833 -13 -64.5 -13c-23.333 0 -45 4.33301 -65 13
s-37.667 20.667 -53 36s-27.333 33 -36 53s-13 41.667 -13 65c0 22.667 4.33301 44.167 13 64.5s20.667 38 36 53s33 26.833 53 35.5s41.667 13 65 13zM843 1547c22.667 0 44.167 -4.33301 64.5 -13s38 -20.5 53 -35.5s26.833 -32.667 35.5 -53s13 -41.833 13 -64.5
c0 -23.333 -4.33301 -45 -13 -65s-20.5 -37.667 -35.5 -53s-32.667 -27.333 -53 -36s-41.833 -13 -64.5 -13c-23.333 0 -45 4.33301 -65 13s-37.667 20.667 -53 36s-27.333 33 -36 53s-13 41.667 -13 65c0 22.667 4.33301 44.167 13 64.5s20.667 38 36 53s33 26.833 53 35.5
s41.667 13 65 13zM139 1040h274v-1040h-274v1040zM980 144c0 -79.333 -5.16895 -147.331 -15.502 -203.998s-26.166 -107.334 -47.499 -152.001s-48.166 -85.334 -80.499 -122.001s-70.833 -74.334 -115.5 -113.001l-96.5 74c-33 26 -63.5 52.667 -91.5 80
c31.333 34 58 64.5 80 91.5s39.833 55.833 53.5 86.5s23.667 65.334 30 104.001s9.5 86 9.5 142v909h274v-896z" />
    <glyph glyph-name="Kcommaaccent" unicode="&#x136;" horiz-adv-x="1310" 
d="M990 1460l180 -150l-486 -576l586 -734h-352l-455 615v-615h-279v1438h279v-602zM524 -182c24 17.333 50.165 30.834 78.498 40.501s55.833 14.5 82.5 14.5c18.667 0 36.334 -2.5 53.001 -7.5s31.334 -12.833 44.001 -23.5s22.667 -23.834 30 -39.501
s11 -34.167 11 -55.5c0 -25.333 -3.66699 -49.5 -11 -72.5s-18.5 -47.833 -33.5 -74.5s-33.833 -57 -56.5 -91l-79 -122h-156l95 262z" />
    <glyph glyph-name="kcommaaccent" unicode="&#x137;" horiz-adv-x="1138" 
d="M441 1440v-761l417 384l152 -165l-370 -340l478 -558h-334l-343 415v-415h-274v1440h274zM472 -182c24 17.333 50.165 30.834 78.498 40.501s55.833 14.5 82.5 14.5c18.667 0 36.334 -2.5 53.001 -7.5s31.334 -12.833 44.001 -23.5s22.667 -23.834 30 -39.501
s11 -34.167 11 -55.5c0 -25.333 -3.66699 -49.5 -11 -72.5s-18.5 -47.833 -33.5 -74.5s-33.833 -57 -56.5 -91l-79 -122h-156l95 262z" />
    <glyph glyph-name="Lacute" unicode="&#x139;" horiz-adv-x="1133" 
d="M300 2009c24 17.333 50.165 30.834 78.498 40.501s55.833 14.5 82.5 14.5c18.667 0 36.334 -2.5 53.001 -7.5s31.334 -12.833 44.001 -23.5s22.667 -23.834 30 -39.501s11 -34.167 11 -55.5c0 -25.333 -3.66699 -49.5 -11 -72.5s-18.5 -47.833 -33.5 -74.5
s-33.833 -57 -56.5 -91l-79 -122h-156l95 262zM474.998 1438v-1233h561v-205h-840v1438h279z" />
    <glyph glyph-name="lacute" unicode="&#x13a;" horiz-adv-x="513" 
d="M223 2012c24 17.333 50.165 30.834 78.498 40.501s55.833 14.5 82.5 14.5c18.667 0 36.334 -2.5 53.001 -7.5s31.334 -12.833 44.001 -23.5s22.667 -23.834 30 -39.501s11 -34.167 11 -55.5c0 -25.333 -3.66699 -49.5 -11 -72.5s-18.5 -47.833 -33.5 -74.5
s-33.833 -57 -56.5 -91l-79 -122h-156l95 262zM383.998 408.001c0 -55.333 0.50293 -101.667 1.50293 -139s2.83301 -70 5.5 -98c1.33301 -14.667 2.66602 -27.5 3.99902 -38.5l4 -32c1.33301 -10.333 3.16602 -20.666 5.49902 -30.999s5.16602 -21.833 8.49902 -34.5
c-44 -13.333 -88 -24.833 -132 -34.5s-89 -17.834 -135 -24.501c-10 30 -18.5 61.833 -25.5 95.5s-10.5 70.5 -10.5 110.5v1258h274v-1032z" />
    <glyph glyph-name="Lcommaaccent" unicode="&#x13b;" horiz-adv-x="1133" 
d="M475 1438v-1233h561v-205h-840v1438h279zM481 -182c24 17.333 50.165 30.834 78.498 40.501s55.833 14.5 82.5 14.5c18.667 0 36.334 -2.5 53.001 -7.5s31.334 -12.833 44.001 -23.5s22.667 -23.834 30 -39.501s11 -34.167 11 -55.5c0 -25.333 -3.66699 -49.5 -11 -72.5
s-18.5 -47.833 -33.5 -74.5s-33.833 -57 -56.5 -91l-79 -122h-156l95 262z" />
    <glyph glyph-name="lcommaaccent" unicode="&#x13c;" horiz-adv-x="513" 
d="M384 408c0 -55.333 0.50293 -101.667 1.50293 -139s2.83301 -70 5.5 -98c1.33301 -14.667 2.66602 -27.5 3.99902 -38.5l4 -32c1.33301 -10.333 3.16602 -20.666 5.49902 -30.999s5.16602 -21.833 8.49902 -34.5c-44 -13.333 -88 -24.833 -132 -34.5
s-89 -17.834 -135 -24.501c-10 30 -18.5 61.833 -25.5 95.5s-10.5 70.5 -10.5 110.5v1258h274v-1032zM96.0029 -182.001c24 17.333 50.165 30.834 78.498 40.501s55.833 14.5 82.5 14.5c18.667 0 36.334 -2.5 53.001 -7.5s31.334 -12.833 44.001 -23.5
s22.667 -23.834 30 -39.501s11 -34.167 11 -55.5c0 -25.333 -3.66699 -49.5 -11 -72.5s-18.5 -47.833 -33.5 -74.5s-33.833 -57 -56.5 -91l-79 -122h-156l95 262z" />
    <glyph glyph-name="Lcaron" unicode="&#x13d;" horiz-adv-x="1133" 
d="M759 1622c26.667 19.333 55.501 34.167 86.501 44.5s61.167 15.5 90.5 15.5c20 0 39.167 -2.83301 57.5 -8.5s34.5 -14.334 48.5 -26.001s25.167 -26.167 33.5 -43.5s12.5 -37.666 12.5 -60.999c0 -28 -4 -54.5 -12 -79.5s-20.333 -52.333 -37 -82
s-37.334 -63.167 -62.001 -100.5l-87 -134h-172l105 289zM475.001 1438v-1233h561v-205h-840v1438h279z" />
    <glyph glyph-name="lcaron" unicode="&#x13e;" horiz-adv-x="513" 
d="M567 1557c26.667 19.333 55.501 34.167 86.501 44.5s61.167 15.5 90.5 15.5c20 0 39.167 -2.83301 57.5 -8.5s34.5 -14.334 48.5 -26.001s25.167 -26.167 33.5 -43.5s12.5 -37.666 12.5 -60.999c0 -28 -4 -54.5 -12 -79.5s-20.333 -52.333 -37 -82
s-37.334 -63.167 -62.001 -100.5l-87 -134h-172l105 289zM384.001 408.001c0 -55.333 0.50293 -101.667 1.50293 -139s2.83301 -70 5.5 -98c1.33301 -14.667 2.66602 -27.5 3.99902 -38.5l4 -32c1.33301 -10.333 3.16602 -20.666 5.49902 -30.999
s5.16602 -21.833 8.49902 -34.5c-44 -13.333 -88 -24.833 -132 -34.5s-89 -17.834 -135 -24.501c-10 30 -18.5 61.833 -25.5 95.5s-10.5 70.5 -10.5 110.5v1258h274v-1032z" />
    <glyph glyph-name="Ldot" unicode="&#x13f;" horiz-adv-x="1035" 
d="M970 0h-840v1438h279v-1233h561v-205zM759 930c18.667 0 36.3311 -3.66406 52.998 -10.9971s31.334 -17.333 44.001 -30s22.667 -27.334 30 -44.001s11 -34.334 11 -53.001c0 -19.333 -3.66699 -37.5 -11 -54.5s-17.166 -31.833 -29.499 -44.5s-27 -22.667 -44 -30
s-34.833 -11 -53.5 -11c-19.333 0 -37.666 3.66699 -54.999 11s-32.5 17.333 -45.5 30s-23.167 27.5 -30.5 44.5s-11 35.167 -11 54.5c0 18.667 3.66699 36.5 11 53.5s17.5 31.667 30.5 44s28.167 22.166 45.5 29.499s35.666 11 54.999 11z" />
    <glyph glyph-name="ldot" unicode="&#x140;" horiz-adv-x="493" 
d="M384 408c0 -55.333 0.50293 -101.667 1.50293 -139s2.83301 -70 5.5 -98c1.33301 -14.667 2.66602 -27.5 3.99902 -38.5l4 -32c1.33301 -10.333 3.16602 -20.666 5.49902 -30.999s5.16602 -21.833 8.49902 -34.5c-44 -13.333 -88 -24.833 -132 -34.5
s-89 -17.834 -135 -24.501c-10 30 -18.5 61.833 -25.5 95.5s-10.5 70.5 -10.5 110.5v1258h274v-1032zM667.003 867.999c18.667 0 36.3311 -3.66406 52.998 -10.9971s31.334 -17.333 44.001 -30s22.667 -27.334 30 -44.001s11 -34.334 11 -53.001
c0 -19.333 -3.66699 -37.5 -11 -54.5s-17.166 -31.833 -29.499 -44.5s-27 -22.667 -44 -30s-34.833 -11 -53.5 -11c-19.333 0 -37.666 3.66699 -54.999 11s-32.5 17.333 -45.5 30s-23.167 27.5 -30.5 44.5s-11 35.167 -11 54.5c0 18.667 3.66699 36.5 11 53.5
s17.5 31.667 30.5 44s28.167 22.166 45.5 29.499s35.666 11 54.999 11z" />
    <glyph glyph-name="Lslash" unicode="&#x141;" horiz-adv-x="1144" 
d="M485 1438v-492l328 184v-207l-328 -184v-534h561v-205h-840v582l-196 -110v207l196 110v649h279z" />
    <glyph glyph-name="lslash" unicode="&#x142;" horiz-adv-x="685" 
d="M480 1440v-508l175 98v-207l-175 -98v-725h-275v570l-175 -98v207l175 98v663h275z" />
    <glyph glyph-name="Nacute" unicode="&#x143;" horiz-adv-x="1574" 
d="M753 2009c24 17.333 50.165 30.834 78.498 40.501s55.833 14.5 82.5 14.5c18.667 0 36.334 -2.5 53.001 -7.5s31.334 -12.833 44.001 -23.5s22.667 -23.834 30 -39.501s11 -34.167 11 -55.5c0 -25.333 -3.66699 -49.5 -11 -72.5s-18.5 -47.833 -33.5 -74.5
s-33.833 -57 -56.5 -91l-79 -122h-156l95 262zM1396 1438v-1438h-309l-629 1075v-1075h-279v1438h309l629 -1075v1075h279z" />
    <glyph glyph-name="nacute" unicode="&#x144;" horiz-adv-x="1247" 
d="M590 1612c24 17.333 50.165 30.834 78.498 40.501s55.833 14.5 82.5 14.5c18.667 0 36.334 -2.5 53.001 -7.5s31.334 -12.833 44.001 -23.5s22.667 -23.834 30 -39.501s11 -34.167 11 -55.5c0 -25.333 -3.66699 -49.5 -11 -72.5s-18.5 -47.833 -33.5 -74.5
s-33.833 -57 -56.5 -91l-79 -122h-156l95 262zM447.998 862.001c22 33.333 44.8301 62.5039 68.4971 87.5039s49 46 76 63s56.667 29.667 89 38s68.166 12.5 107.499 12.5c44 0 83 -4.83301 117 -14.5s63.333 -23.667 88 -42s45.5 -41 62.5 -68s30.5 -57.5 40.5 -91.5
c9.33301 -34 16.166 -70.833 20.499 -110.5s6.5 -82.5 6.5 -128.5v-608h-274v687c0 57.333 -13.167 101 -39.5 131s-62.166 45 -107.499 45c-25.333 0 -50.166 -6 -74.499 -18s-47.833 -27.833 -70.5 -47.5s-43.667 -41.834 -63 -66.501s-36.666 -49.667 -51.999 -75v-656
h-274v641c0 54 -0.5 99.167 -1.5 135.5s-2.83301 68.5 -5.5 96.5c-1.33301 14 -2.66602 26.333 -3.99902 37s-2.83301 21 -4.5 31s-3.66699 20.167 -6 30.5s-5.16602 22.166 -8.49902 35.499c43.333 11.333 86.5 21.5 129.5 30.5s86.5 17.5 130.5 25.5
c4.66699 -14 9 -27.833 13 -41.5s7.33301 -28.334 10 -44.001s5 -32.834 7 -51.501s4 -40 6 -64h13z" />
    <glyph glyph-name="Ncommaaccent" unicode="&#x145;" horiz-adv-x="1574" 
d="M1396 1438v-1438h-309l-629 1075v-1075h-279v1438h309l629 -1075v1075h279zM656 -182c24 17.333 50.165 30.834 78.498 40.501s55.833 14.5 82.5 14.5c18.667 0 36.334 -2.5 53.001 -7.5s31.334 -12.833 44.001 -23.5s22.667 -23.834 30 -39.501s11 -34.167 11 -55.5
c0 -25.333 -3.66699 -49.5 -11 -72.5s-18.5 -47.833 -33.5 -74.5s-33.833 -57 -56.5 -91l-79 -122h-156l95 262z" />
    <glyph glyph-name="ncommaaccent" unicode="&#x146;" horiz-adv-x="1247" 
d="M448 862c22 33.333 44.8301 62.5039 68.4971 87.5039s49 46 76 63s56.667 29.667 89 38s68.166 12.5 107.499 12.5c44 0 83 -4.83301 117 -14.5s63.333 -23.667 88 -42s45.5 -41 62.5 -68s30.5 -57.5 40.5 -91.5c9.33301 -34 16.166 -70.833 20.499 -110.5
s6.5 -82.5 6.5 -128.5v-608h-274v687c0 57.333 -13.167 101 -39.5 131s-62.166 45 -107.499 45c-25.333 0 -50.166 -6 -74.499 -18s-47.833 -27.833 -70.5 -47.5s-43.667 -41.834 -63 -66.501s-36.666 -49.667 -51.999 -75v-656h-274v641c0 54 -0.5 99.167 -1.5 135.5
s-2.83301 68.5 -5.5 96.5c-1.33301 14 -2.66602 26.333 -3.99902 37s-2.83301 21 -4.5 31s-3.66699 20.167 -6 30.5s-5.16602 22.166 -8.49902 35.499c43.333 11.333 86.5 21.5 129.5 30.5s86.5 17.5 130.5 25.5c4.66699 -14 9 -27.833 13 -41.5s7.33301 -28.334 10 -44.001
s5 -32.834 7 -51.501s4 -40 6 -64h13zM512.997 -181.996c24 17.333 50.165 30.834 78.498 40.501s55.833 14.5 82.5 14.5c18.667 0 36.334 -2.5 53.001 -7.5s31.334 -12.833 44.001 -23.5s22.667 -23.834 30 -39.501s11 -34.167 11 -55.5
c0 -25.333 -3.66699 -49.5 -11 -72.5s-18.5 -47.833 -33.5 -74.5s-33.833 -57 -56.5 -91l-79 -122h-156l95 262z" />
    <glyph glyph-name="Ncaron" unicode="&#x147;" horiz-adv-x="1574" 
d="M1043 1919l75 -87l-331 -254l-331 254l75 87l256 -111zM1396 1438v-1438h-309l-629 1075v-1075h-279v1438h309l629 -1075v1075h279z" />
    <glyph glyph-name="ncaron" unicode="&#x148;" horiz-adv-x="1247" 
d="M880 1522l75 -87l-331 -254l-331 254l75 87l256 -111zM448 862c22 33.333 44.8301 62.5039 68.4971 87.5039s49 46 76 63s56.667 29.667 89 38s68.166 12.5 107.499 12.5c44 0 83 -4.83301 117 -14.5s63.333 -23.667 88 -42s45.5 -41 62.5 -68s30.5 -57.5 40.5 -91.5
c9.33301 -34 16.166 -70.833 20.499 -110.5s6.5 -82.5 6.5 -128.5v-608h-274v687c0 57.333 -13.167 101 -39.5 131s-62.166 45 -107.499 45c-25.333 0 -50.166 -6 -74.499 -18s-47.833 -27.833 -70.5 -47.5s-43.667 -41.834 -63 -66.501s-36.666 -49.667 -51.999 -75v-656
h-274v641c0 54 -0.5 99.167 -1.5 135.5s-2.83301 68.5 -5.5 96.5c-1.33301 14 -2.66602 26.333 -3.99902 37s-2.83301 21 -4.5 31s-3.66699 20.167 -6 30.5s-5.16602 22.166 -8.49902 35.499c43.333 11.333 86.5 21.5 129.5 30.5s86.5 17.5 130.5 25.5
c4.66699 -14 9 -27.833 13 -41.5s7.33301 -28.334 10 -44.001s5 -32.834 7 -51.501s4 -40 6 -64h13z" />
    <glyph glyph-name="Eng" unicode="&#x14a;" horiz-adv-x="1576" 
d="M1396 1438v-1263c0 -86 -3.5 -161.667 -10.5 -227s-21.5 -123.333 -43.5 -174c-12 -26.667 -27 -53 -45 -79s-40.5 -51.5 -67.5 -76.5s-58.667 -49.5 -95 -73.5s-78.833 -48 -127.5 -72l-112 154l94.5 86.5c27.667 26.333 51.167 56.166 70.5 89.499
c15.333 27.333 27.5 58.166 36.5 92.499s15.167 75.833 18.5 124.5l-657 1055v-1075h-279v1438h309l629 -1011v1011h279z" />
    <glyph glyph-name="eng" unicode="&#x14b;" horiz-adv-x="1304" 
d="M448 862c22 33.333 44.832 62.502 68.499 87.502s49 46 76 63s56.667 29.667 89 38s68.166 12.5 107.499 12.5c55.333 0 102.5 -7.5 141.5 -22.5s71.5 -36.5 97.5 -64.5c36 -39.333 61 -90 75 -152s21 -134 21 -216v-464c0 -47.333 -1.83301 -90.166 -5.5 -128.499
s-9.83398 -74.166 -18.501 -107.499s-20.5 -64.833 -35.5 -94.5s-33.833 -58.834 -56.5 -87.501c-16.667 -21.333 -37 -45.5 -61 -72.5s-54.667 -58.833 -92 -95.5l-178 138l40 51c20.667 26.667 39.167 52.334 55.5 77.001s30.166 51.5 41.499 80.5
s20.166 61.5 26.499 97.5s9.5 79 9.5 129v556c0 57.333 -13.167 101 -39.5 131s-62.166 45 -107.499 45c-25.333 0 -50.166 -6 -74.499 -18s-47.833 -27.833 -70.5 -47.5s-43.667 -41.834 -63 -66.501s-36.666 -49.667 -51.999 -75v-656h-274v641
c0 54 -0.5 99.167 -1.5 135.5s-2.83301 68.5 -5.5 96.5c-1.33301 14 -2.66602 26.333 -3.99902 37s-2.83301 21 -4.5 31s-3.66699 20.167 -6 30.5s-5.16602 22.166 -8.49902 35.499c43.333 11.333 86.5 21.5 129.5 30.5s86.5 17.5 130.5 25.5
c4.66699 -14 9 -27.833 13 -41.5s7.33301 -28.334 10 -44.001s5 -32.834 7 -51.501s4 -40 6 -64h13z" />
    <glyph glyph-name="Omacron" unicode="&#x14c;" horiz-adv-x="1542" 
d="M1074 1805v-171h-605v171h605zM771 1460c120 0 221.333 -18.1689 304 -54.502s149.834 -87.166 201.501 -152.499s88.834 -143.5 111.501 -234.5s34 -191.167 34 -300.5s-11.333 -209.5 -34 -300.5s-59.834 -169.167 -111.501 -234.5
s-118.834 -116.166 -201.501 -152.499s-184 -54.5 -304 -54.5c-118 0 -218.333 17.667 -301 53s-149.834 85.333 -201.501 150s-89.334 142.667 -113.001 234s-35.5 193 -35.5 305s11.833 213.667 35.5 305s61.334 169.333 113.001 234s118.834 114.667 201.501 150
s183 53 301 53zM771 1255c-70 0 -128.5 -11.3311 -175.5 -33.998s-84.667 -56.5 -113 -101.5s-48.5 -101 -60.5 -168s-18 -144.833 -18 -233.5s6 -166.5 18 -233.5s32.167 -123 60.5 -168s66 -78.833 113 -101.5s105.5 -34 175.5 -34c69.333 0 127.5 11.167 174.5 33.5
s84.667 55.833 113 100.5s48.666 100.667 60.999 168s18.5 145.666 18.5 234.999s-6.16699 167.666 -18.5 234.999s-32.666 123.333 -60.999 168s-66 78.167 -113 100.5s-105.167 33.5 -174.5 33.5z" />
    <glyph glyph-name="omacron" unicode="&#x14d;" horiz-adv-x="1213" 
d="M910 1408v-171h-605v171h605zM609 1063c87.333 0 163 -13.667 227 -41s116.833 -65.166 158.5 -113.499s72.667 -105.666 93 -171.999s30.5 -138.5 30.5 -216.5s-10.167 -150.333 -30.5 -217s-51.333 -124.167 -93 -172.5s-94.5 -86.166 -158.5 -113.499
s-139.667 -41 -227 -41s-163 13.667 -227 41s-116.833 65.166 -158.5 113.499s-72.667 105.833 -93 172.5s-30.5 139 -30.5 217s10.167 150.167 30.5 216.5s51.333 123.666 93 171.999s94.5 86.166 158.5 113.499s139.667 41 227 41zM609 867c-48 0 -87.333 -9 -118 -27
s-54.667 -42.667 -72 -74s-29.166 -68.166 -35.499 -110.499s-9.5 -87.5 -9.5 -135.5c0 -48.667 3.16699 -94.167 9.5 -136.5s18.166 -79.166 35.499 -110.499s41.333 -56 72 -74s70 -27 118 -27s87.333 9 118 27s54.667 42.667 72 74s29.166 68.166 35.499 110.499
s9.5 87.833 9.5 136.5c0 48 -3.16699 93.167 -9.5 135.5s-18.166 79.166 -35.499 110.499s-41.333 56 -72 74s-70 27 -118 27z" />
    <glyph glyph-name="Ohungarumlaut" unicode="&#x150;" horiz-adv-x="1542" 
d="M552 2009c24 17.333 50.165 30.834 78.498 40.501s55.833 14.5 82.5 14.5c18.667 0 36.334 -2.5 53.001 -7.5s31.334 -12.833 44.001 -23.5s22.667 -23.834 30 -39.501s11 -34.167 11 -55.5c0 -25.333 -3.66699 -49.5 -11 -72.5s-18.5 -47.833 -33.5 -74.5
s-33.833 -57 -56.5 -91l-79 -122h-156l95 262zM951.998 2009c24 17.333 50.165 30.834 78.498 40.501s55.833 14.5 82.5 14.5c18.667 0 36.334 -2.5 53.001 -7.5s31.334 -12.833 44.001 -23.5s22.667 -23.834 30 -39.501s11 -34.167 11 -55.5
c0 -25.333 -3.66699 -49.5 -11 -72.5s-18.5 -47.833 -33.5 -74.5s-33.833 -57 -56.5 -91l-79 -122h-156l95 262zM770.996 1460c120 0 221.333 -18.1689 304 -54.502s149.834 -87.166 201.501 -152.499s88.834 -143.5 111.501 -234.5s34 -191.167 34 -300.5
s-11.333 -209.5 -34 -300.5s-59.834 -169.167 -111.501 -234.5s-118.834 -116.166 -201.501 -152.499s-184 -54.5 -304 -54.5c-118 0 -218.333 17.667 -301 53s-149.834 85.333 -201.501 150s-89.334 142.667 -113.001 234s-35.5 193 -35.5 305s11.833 213.667 35.5 305
s61.334 169.333 113.001 234s118.834 114.667 201.501 150s183 53 301 53zM770.996 1255c-70 0 -128.5 -11.3311 -175.5 -33.998s-84.667 -56.5 -113 -101.5s-48.5 -101 -60.5 -168s-18 -144.833 -18 -233.5s6 -166.5 18 -233.5s32.167 -123 60.5 -168
s66 -78.833 113 -101.5s105.5 -34 175.5 -34c69.333 0 127.5 11.167 174.5 33.5s84.667 55.833 113 100.5s48.666 100.667 60.999 168s18.5 145.666 18.5 234.999s-6.16699 167.666 -18.5 234.999s-32.666 123.333 -60.999 168s-66 78.167 -113 100.5
s-105.167 33.5 -174.5 33.5z" />
    <glyph glyph-name="ohungarumlaut" unicode="&#x151;" horiz-adv-x="1213" 
d="M388 1612c24 17.333 50.165 30.834 78.498 40.501s55.833 14.5 82.5 14.5c18.667 0 36.334 -2.5 53.001 -7.5s31.334 -12.833 44.001 -23.5s22.667 -23.834 30 -39.501s11 -34.167 11 -55.5c0 -25.333 -3.66699 -49.5 -11 -72.5s-18.5 -47.833 -33.5 -74.5
s-33.833 -57 -56.5 -91l-79 -122h-156l95 262zM787.998 1612c24 17.333 50.165 30.834 78.498 40.501s55.833 14.5 82.5 14.5c18.667 0 36.334 -2.5 53.001 -7.5s31.334 -12.833 44.001 -23.5s22.667 -23.834 30 -39.501s11 -34.167 11 -55.5
c0 -25.333 -3.66699 -49.5 -11 -72.5s-18.5 -47.833 -33.5 -74.5s-33.833 -57 -56.5 -91l-79 -122h-156l95 262zM608.996 1063c87.333 0 163 -13.667 227 -41s116.833 -65.166 158.5 -113.499s72.667 -105.666 93 -171.999s30.5 -138.5 30.5 -216.5
s-10.167 -150.333 -30.5 -217s-51.333 -124.167 -93 -172.5s-94.5 -86.166 -158.5 -113.499s-139.667 -41 -227 -41s-163 13.667 -227 41s-116.833 65.166 -158.5 113.499s-72.667 105.833 -93 172.5s-30.5 139 -30.5 217s10.167 150.167 30.5 216.5
s51.333 123.666 93 171.999s94.5 86.166 158.5 113.499s139.667 41 227 41zM608.996 867.002c-48 0 -87.333 -9 -118 -27s-54.667 -42.667 -72 -74s-29.166 -68.166 -35.499 -110.499s-9.5 -87.5 -9.5 -135.5c0 -48.667 3.16699 -94.167 9.5 -136.5
s18.166 -79.166 35.499 -110.499s41.333 -56 72 -74s70 -27 118 -27s87.333 9 118 27s54.667 42.667 72 74s29.166 68.166 35.499 110.499s9.5 87.833 9.5 136.5c0 48 -3.16699 93.167 -9.5 135.5s-18.166 79.166 -35.499 110.499s-41.333 56 -72 74s-70 27 -118 27z" />
    <glyph glyph-name="OE" unicode="&#x152;" horiz-adv-x="2152" 
d="M1032 48c-38.667 -24.667 -79.834 -42.832 -123.501 -54.499s-89.5 -17.5 -137.5 -17.5c-118 0 -218.333 17.667 -301 53s-149.834 85.333 -201.501 150s-89.334 142.667 -113.001 234s-35.5 193 -35.5 305s11.833 213.333 35.5 304s61.334 168.167 113.001 232.5
s118.834 114.333 201.501 150s183 54.167 301 55.5c48 0 93.833 -5.83301 137.5 -17.5s84.834 -29.834 123.501 -54.501v50h860v-205h-581v-326h411v-205h-411v-497h602v-205h-881v48zM1032 1157c-29.333 32.667 -65.166 57.167 -107.499 73.5s-93.5 24.5 -153.5 24.5
c-70 0 -128.5 -11.333 -175.5 -34s-84.667 -56.5 -113 -101.5s-48.5 -101 -60.5 -168s-18 -144.833 -18 -233.5s6 -166.5 18 -233.5s32.167 -123 60.5 -168s66 -78.833 113 -101.5s105.5 -34 175.5 -34c60 0 111.167 8.16699 153.5 24.5s78.166 40.833 107.499 73.5v878z
" />
    <glyph glyph-name="oe" unicode="&#x153;" horiz-adv-x="1952" 
d="M1780 48c-27.333 -11.333 -57.168 -21.3311 -89.501 -29.998s-66.166 -16 -101.499 -22s-71.166 -10.667 -107.499 -14s-71.833 -5 -106.5 -5c-89.333 0 -167.5 12.167 -234.5 36.5s-122.833 66.166 -167.5 125.499c-42 -56.667 -93 -97.834 -153 -123.501
s-130.333 -38.5 -211 -38.5c-87.333 0 -163 13.667 -227 41s-116.833 65.166 -158.5 113.499s-72.667 105.833 -93 172.5s-30.5 139 -30.5 217s10.167 150.333 30.5 217s51.333 124.167 93 172.5s94.5 86.166 158.5 113.499s139.667 41 227 41
c83.333 0 155.833 -13.167 217.5 -39.5s113.5 -66.833 155.5 -121.5c40 54 89.5 94.333 148.5 121s130.167 40 213.5 40c86.667 0 161.834 -10.667 225.501 -32s116.5 -54 158.5 -98s73.167 -99.833 93.5 -167.5s30.5 -148.167 30.5 -241.5v-76h-735
c1.33301 -44 6.66602 -83.167 15.999 -117.5s24.5 -63.166 45.5 -86.499s49.167 -41.166 84.5 -53.499s79.666 -18.5 132.999 -18.5c46.667 0 97 5.83301 151 17.5s110.333 28.5 169 50.5zM1580 628.002c-4.66699 164.667 -78.667 247 -222 247
c-74 0 -130.167 -21.333 -168.5 -64s-61.833 -103.667 -70.5 -183h461zM608.998 866.002c-48 0 -87.333 -9 -118 -27s-54.667 -42.667 -72 -74s-29.166 -67.833 -35.499 -109.5s-9.5 -86.5 -9.5 -134.5s3.16699 -92.833 9.5 -134.5s18.166 -78.167 35.499 -109.5
s41.333 -56 72 -74s70 -27 118 -27s87.333 9 118 27s54.667 42.667 72 74s29.166 67.833 35.499 109.5s9.5 86.5 9.5 134.5s-3.16699 92.833 -9.5 134.5s-18.166 78.167 -35.499 109.5s-41.333 56 -72 74s-70 27 -118 27z" />
    <glyph glyph-name="Racute" unicode="&#x154;" horiz-adv-x="1323" 
d="M608 2009c24 17.333 50.165 30.834 78.498 40.501s55.833 14.5 82.5 14.5c18.667 0 36.334 -2.5 53.001 -7.5s31.334 -12.833 44.001 -23.5s22.667 -23.834 30 -39.501s11 -34.167 11 -55.5c0 -25.333 -3.66699 -49.5 -11 -72.5s-18.5 -47.833 -33.5 -74.5
s-33.833 -57 -56.5 -91l-79 -122h-156l95 262zM710.998 1438c64.667 0 124.333 -8.16406 179 -24.4971s102 -40.833 142 -73.5s71.167 -74 93.5 -124s33.5 -108.333 33.5 -175c0 -54 -9 -103.333 -27 -148s-43.333 -83.5 -76 -116.5s-71.334 -59.833 -116.001 -80.5
s-94 -34.334 -148 -41.001l-1 -3c26.667 -15.333 52.667 -36.833 78 -64.5s49.833 -57.834 73.5 -90.501s46.334 -66 68.001 -100l59.5 -94l198 -303h-315l-78.5 132.5l-87 148.5l-82 137.5c-25.667 42.333 -46.5 75.5 -62.5 99.5c-15.333 22 -29.5 40.667 -42.5 56
s-26.167 27.666 -39.5 36.999s-27.5 16 -42.5 20s-31.833 6.33301 -50.5 7h-8v-638h-279v1438h530zM603.997 830.004c43.333 0 81.833 3.49805 115.5 10.498s62 18.667 85 35s40.5 37.833 52.5 64.5s18 59.334 18 98.001s-6 71.334 -18 98.001s-29.5 48.167 -52.5 64.5
s-51.333 28 -85 35s-72.167 10.5 -115.5 10.5h-144v-416h144z" />
    <glyph glyph-name="racute" unicode="&#x155;" horiz-adv-x="950" 
d="M460 1612c24 17.333 50.165 30.834 78.498 40.501s55.833 14.5 82.5 14.5c18.667 0 36.334 -2.5 53.001 -7.5s31.334 -12.833 44.001 -23.5s22.667 -23.834 30 -39.501s11 -34.167 11 -55.5c0 -25.333 -3.66699 -49.5 -11 -72.5s-18.5 -47.833 -33.5 -74.5
s-33.833 -57 -56.5 -91l-79 -122h-156l95 262zM454.998 862.001c24 35.333 46.333 64.333 67 87c20 22 41 40.167 63 54.5s44.167 26 66.5 35s44.833 15.333 67.5 19s45 5.5 67 5.5c18.667 0 36.834 -1.16699 54.501 -3.5s34.167 -5.16602 49.5 -8.49902
c-2 -18.667 -4.66699 -38.5 -8 -59.5s-7 -42.167 -11 -63.5s-8.5 -42.333 -13.5 -63s-10.167 -40 -15.5 -58l-99 18.5c-28 5 -53 7.5 -75 7.5c-20.667 0 -39.5 -2.83301 -56.5 -8.5s-33.833 -15.5 -50.5 -29.5s-33.834 -32.5 -51.501 -55.5s-37.5 -51.833 -59.5 -86.5v-653
h-274v641c0 38.667 -0.333008 74.834 -1 108.501s-2 65.334 -4 95.001s-5 57.834 -9 84.501s-9.33301 52.667 -16 78c43.333 11.333 86.5 21.666 129.5 30.999s86.5 17.666 130.5 24.999c4.66699 -14 9 -27.833 13 -41.5s7.33301 -28.334 10 -44.001s5 -32.834 7 -51.501
s4 -40 6 -64h13z" />
    <glyph glyph-name="Rcommaaccent" unicode="&#x156;" horiz-adv-x="1323" 
d="M711 1438c64.667 0 124.333 -8.16406 179 -24.4971s102 -40.833 142 -73.5s71.167 -74 93.5 -124s33.5 -108.333 33.5 -175c0 -54 -9 -103.333 -27 -148s-43.333 -83.5 -76 -116.5s-71.334 -59.833 -116.001 -80.5s-94 -34.334 -148 -41.001l-1 -3
c26.667 -15.333 52.667 -36.833 78 -64.5s49.833 -57.834 73.5 -90.501s46.334 -66 68.001 -100l59.5 -94l198 -303h-315l-78.5 132.5l-87 148.5l-82 137.5c-25.667 42.333 -46.5 75.5 -62.5 99.5c-15.333 22 -29.5 40.667 -42.5 56s-26.167 27.666 -39.5 36.999
s-27.5 16 -42.5 20s-31.833 6.33301 -50.5 7h-8v-638h-279v1438h530zM603.999 830.003c43.333 0 81.833 3.49805 115.5 10.498s62 18.667 85 35s40.5 37.833 52.5 64.5s18 59.334 18 98.001s-6 71.334 -18 98.001s-29.5 48.167 -52.5 64.5s-51.333 28 -85 35
s-72.167 10.5 -115.5 10.5h-144v-416h144zM550.999 -181.999c24 17.333 50.165 30.834 78.498 40.501s55.833 14.5 82.5 14.5c18.667 0 36.334 -2.5 53.001 -7.5s31.334 -12.833 44.001 -23.5s22.667 -23.834 30 -39.501s11 -34.167 11 -55.5
c0 -25.333 -3.66699 -49.5 -11 -72.5s-18.5 -47.833 -33.5 -74.5s-33.833 -57 -56.5 -91l-79 -122h-156l95 262z" />
    </font>
</defs>
</svg>
